<svg id="圖層_1" data-name="圖層 1" xmlns="http://www.w3.org/2000/svg" viewBox="0 0 300 90"><defs><style>.cls-1{fill:#fff;}</style></defs><title>工作區域 1</title><path class="cls-1" d="M93.32,47.13c0-2.48,0-5,0-7.46.06-3.09,1.55-3.86,4.24-2.38a6.2,6.2,0,0,0,2.28.25,15.38,15.38,0,0,0-.15-3,1.8,1.8,0,0,0-1.38-.94c-2.3-.1-4.61,0-6.92-.05a4.84,4.84,0,0,1-3.75-3c-.29-1.21,1.62-2.49,3.1-2.24a40.47,40.47,0,0,0,5.91.65c.69,0,1.92-.71,2-1.21a3.09,3.09,0,0,0-1.06-2.34,3.93,3.93,0,0,0-2.49-.6A2.89,2.89,0,0,1,92.26,23a2.61,2.61,0,0,1,0-2.12A2.31,2.31,0,0,1,94,20c1.29,0,2.6.34,3.88.23,1.49-.11,2.95-.66,4.45-.84a37.61,37.61,0,0,1,5.61-.3c.47,0,1.21.83,1.3,1.37a2.08,2.08,0,0,1-.85,1.69,10.31,10.31,0,0,1-3.1,1.23c-1.58.37-2,1.34-1.73,2.76s1.14,2,2.58,1.6c2.22-.58,4.46-1.12,6.68-1.72s3.82-.36,4.67,1c.55.84.61,1.63-.49,2-2.63.81-5.28,1.55-7.94,2.3a20.33,20.33,0,0,0-2.22.47c-2.26.95-2.66,1.77-1.84,4a2.1,2.1,0,0,0,1.57,1c4.4.31,6.69,2.57,6.88,7,.1,2.19.22,4.37.35,6.56.1,1.62-.31,2.88-2,3.5a41.49,41.49,0,0,0-4.54,2,2.19,2.19,0,0,0-1.11,1.41c-.15,1.41,0,2.84,0,4.26s.63,1.92,1.94,1.89a22.26,22.26,0,0,1,3.37,0,5.72,5.72,0,0,1,1.75.9,5.73,5.73,0,0,1-1.1,1.61,6.77,6.77,0,0,1-2.12.81c-.56.17-1.27.08-1.71.38-.81.55-2.09,1.33-2.08,2,0,1.56,1.53,1.07,2.52,1,1.33-.13,2.65-.53,4-.62a4.33,4.33,0,0,1,2.45.45c1.18.69,1.12,1.64-.14,2.25a34.84,34.84,0,0,1-5.37,2.12c-3.21.92-6.35,2.34-9.83,1.85-.29-.05-.6,0-.89,0-1.26-.15-2.71-.32-2.79-1.9s1.29-1.85,2.62-1.94a2.66,2.66,0,0,0,1.67-.46,3.56,3.56,0,0,0,1.13-2.24c-.06-.58-1-1.3-1.74-1.52-.86-.27-1.91.07-2.8-.16-.62-.15-1.64-1-1.56-1.23a4.52,4.52,0,0,1,1.44-1.91c.28-.24.91-.09,1.38-.1,2.18,0,3.14-1.09,2.91-3.21,0-.35-.09-.71-.1-1.06-.09-2.52-1.38-3.61-3.89-3.27-3.11.43-3.81-.18-3.84-3.31,0-1.12,0-2.25,0-3.37s0-2.13,0-3.2Zm8.26-2.61c-.19-.72-.18-1.49-.5-1.67a9.7,9.7,0,0,0-2.32-.65l-.3,4c.74.06,1.62.39,2.17.09S101.31,45.07,101.58,44.52Zm6,3.6a9.25,9.25,0,0,0-1.42,2.19c-.07.3.74,1.18.9,1.12a3.09,3.09,0,0,0,1.66-1.19C108.89,49.92,108.21,49.19,107.6,48.12Zm-6.76,2.12-1,.47-1.66,1.45c.31.34.8,1,.92,1a6.87,6.87,0,0,0,2-1.43C101.38,51.48,101,50.74,100.84,50.24Zm7.67-6.55a9.56,9.56,0,0,0-1.74-1.43c-.15-.08-1,.74-1,.83a5.42,5.42,0,0,0,1.28,1.57C107.2,44.74,107.84,44.17,108.51,43.69Z"/><path class="cls-1" d="M191.48,35.17c2.39.34,4.82.51,7.15,1.08a4.4,4.4,0,0,1,2.42,2.07,13.61,13.61,0,0,1,1.36,4.2q1.32,8.22,2.43,16.47c.62,4.56,1.07,9.15,1.66,13.72A5.77,5.77,0,0,1,202.91,79c-1.93.6-5-.92-6-3.11a1.89,1.89,0,0,1,.14-1.71c.3-.33,1.11-.21,1.71-.24.15,0,.31.16.47.23l2.21.84a8.91,8.91,0,0,0,.45-2.49c-.65-5.76-1.34-11.5-2.14-17.24-.3-2.14-1.07-2.31-3-1.56a26.05,26.05,0,0,1-5.64,1.42c-1.41.19-2.15-1-2.33-2.22-.56-4-1-8-1.5-11.93-.11-.82-.26-1.63-.41-2.44-.44-2.3.35-3.23,2.67-3.14.65,0,1.3,0,2,0Zm2.61,14.94c1.46-.56,2.67-1,3.83-1.51a1.15,1.15,0,0,0,.49-1c-.12-.37-.56-.88-.9-.9a10.07,10.07,0,0,0-3.64.1c-.55.16-1,1.29-1.1,2C192.72,49.2,193.6,49.68,194.09,50.11Zm2.78-8.17c-.05-.32-.11-.65-.16-1a18.56,18.56,0,0,0-3.14-.26c-.37,0-1,.86-1,1.11.16.49.84,1.21,1.19,1.16A17.73,17.73,0,0,0,196.87,41.94Z"/><path class="cls-1" d="M134.17,39c.71.1,1.25.21,1.8.23,1.24.06,2.48,0,3.72.12,2.82.19,4.34,1.67,4.12,4.43-.31,3.88-.89,7.75-1.44,11.61a4.5,4.5,0,0,1-.92,2.08c-1.72,2.21-3.85,2.33-5.62.16a15.46,15.46,0,0,1-2.53-4.4c-.61-1.67.4-2.56,2.07-1.94,1.25.47,1.81.37,1.93-1.14s.68-3,.78-4.48-.72-2.06-2.29-1.74c-3.46.72-3.88,1.45-4.9,4.89-1.31,4.44-2.61,9-5.94,12.49a8.82,8.82,0,0,1-2.77,1.84,1.85,1.85,0,0,1-1.7-.34,1.76,1.76,0,0,1,0-1.68c3.59-4.48,5-9.86,6.32-15.26.14-.57-.49-1.36-.84-2-.12-.22-.6-.23-.74-.45-.39-.6-1-1.33-.92-1.88A2.08,2.08,0,0,1,126,40.35c2.11.09,3-1.1,3.47-2.85a29.68,29.68,0,0,0,.56-3c.4-2.67,2.06-3.77,4.67-3.07a1.73,1.73,0,0,1,1.34,2.3,18.68,18.68,0,0,1-.68,2.57C135.07,37.16,134.65,37.93,134.17,39Z"/><path class="cls-1" d="M163.13,61.44c.24,3.3.48,6.61.74,9.9.15,1.78-.61,3-2,3.25s-2.57-1-2.71-2.67c-.57-7.3-1.13-14.6-1.63-21.91a36.37,36.37,0,0,1,.23-3.88,14.35,14.35,0,0,0,0-2.78c-.38-2.55.79-3.84,3.32-3.67,1.59.11,3.19.08,4.79.1a5.7,5.7,0,0,1,5.57,5.52q.08,3.54,0,7.1c-.08,3-1.86,4.15-4.64,3-2.31-1-3.61-.12-3.58,2.34,0,1.24,0,2.49,0,3.73Zm.9-8.61,2.47-2.16c-.32-.34-.82-1-.93-1-1,.55-1.91,1.21-2.85,1.85Zm.52-5.92c.56-.66,1.21-1.27,1.14-1.37a4.41,4.41,0,0,0-1.55-1.46c-.2-.09-.82.75-1.25,1.16C163.36,45.72,163.83,46.2,164.55,46.91Z"/><path class="cls-1" d="M57,38.28a16.55,16.55,0,0,0,2.82-.05c.46-.08.84-.65,1.25-1a5.65,5.65,0,0,0-1.19-1.07c-1.65-.75-3.36-1.36-5-2.12-.93-.43-1.93-1.09-1.29-2.3s1.53-2.3,3.08-1.83A36.65,36.65,0,0,0,68,31.22a6.92,6.92,0,0,1,2.93.5A3.26,3.26,0,0,1,72.6,33.5c.13.46-.54,1.49-1.09,1.75a30.4,30.4,0,0,1-3.49,1,8.22,8.22,0,0,0-1.64,1c.56.38,1.11,1.08,1.68,1.09,1.82,0,3.65-.36,5.46-.27a3.55,3.55,0,0,1,2.59,1.24c.65,1.11-.35,2.13-1.39,2.41a34.62,34.62,0,0,1-5.87,1.07c-2.2.21-2.34.26-2.47,2.51a14.73,14.73,0,0,1-.56,4c-.22.66-1.34,1.56-1.84,1.45-.68-.17-1.26-1.13-1.68-1.87A5.29,5.29,0,0,1,62,47.05c-.42-2.95-.44-2.87-3.39-3.46a30.82,30.82,0,0,1-4.73-1.48,1.88,1.88,0,0,1-1.47-2.29,2,2,0,0,1,2.24-1.6c.76,0,1.53.06,2.3.1Z"/><path class="cls-1" d="M73.6,60.06c.37,1.29.7,2.59,1.12,3.86A2.26,2.26,0,0,1,73.3,67c-2.28.52-4.61.84-6.92,1.25a29.7,29.7,0,0,0-4.12.8c-2.61.84-3.75.24-4-2.46-.17-2.06-.15-4.14-.3-6.2-.09-1.29-.49-2.56-.46-3.84a11.69,11.69,0,0,1,.71-4c.45-1.11,1.59-1.38,2.88-1.08a21,21,0,0,0,3.47.28,27.43,27.43,0,0,1,5.07.28c3.62.91,3.77,4.13,4.2,7.07a6.46,6.46,0,0,1,0,.88Zm-7.81,3.72h.71c2,0,2.11-.24,1.62-2.15a14.14,14.14,0,0,1-.29-2.44c-.14-1.86-1.33-2.53-3.94-2.26-2,.19-.89,1.49-.89,2.38,0,.64.12,1.29.16,1.93C63.34,63.77,63.34,63.77,65.79,63.78Z"/><path class="cls-1" d="M182.63,55.32a4.94,4.94,0,0,1,4.78,3.56c.4,1.66.54,3.37.83,5.06.25,1.44.49,2.88.83,4.3.28,1.21-.83,5.07-1.84,5.73a2,2,0,0,1-2.93-.65c-1-1.63-2.13-1.34-3.39-.37a11.8,11.8,0,0,1-1.29.94c-1.58.91-3,.27-3.2-1.56-.32-2.52-.52-5-.83-7.57-.26-2.11-.56-4.22-.93-6.31a1.79,1.79,0,0,1,1.7-2.37C178.46,55.77,180.57,55.56,182.63,55.32Zm-3.12,5.44,1.92,2.37c.38-.41,1.15-1,1.06-1.2A13.4,13.4,0,0,0,181,59.58Z"/><path class="cls-1" d="M178.86,20.53a5.88,5.88,0,0,0-3.9,5.13c-.24,2-1.63,4-2.82,5.8-.91,1.37-3,.7-3.29-1.1a59.34,59.34,0,0,1-.59-6c-.06-.72-.11-1.45-.17-2.17l-.52-.12c-.22.41-.44.81-.64,1.22-.45.9-.68,2-1.38,2.63a3.07,3.07,0,0,1-2.6.59,2.56,2.56,0,0,1-1.09-2.22,63.32,63.32,0,0,1,2.07-8.73,3.51,3.51,0,0,1,2.55-1.69,3.16,3.16,0,0,1,2.36,1.33c1,1.48,3.69,2.68,5.52,2.14,2.71-.8,4.15.25,4.46,3.22Z"/><path class="cls-1" d="M251.39,53.57c-.35,4.07-.82,9.19-1.23,14.31-.15,1.82-.08,3.67-.23,5.49a5.64,5.64,0,0,1-.74,2.5c-.35.54-1.17.78-1.78,1.15-.36-.63-1-1.24-1-1.89-.18-2.12-.19-4.25-.2-6.37q0-9.14,0-18.28a66.12,66.12,0,0,1,.31-6.9c.14-1.17.11-2.72,2-2.81s2.23,1.4,2.35,2.7C251.14,46.46,251.2,49.48,251.39,53.57Z"/><path class="cls-1" d="M178.82,20.58c1.51-1.86,1.42-4,1.26-6.24s1.27-3.86,3.19-3.33a3.41,3.41,0,0,1,1.89,1.64c.8,1.66,1.86,2.1,3.69,1.79a25.67,25.67,0,0,1,6-.16,2.41,2.41,0,0,1,1.84,1.39,2.56,2.56,0,0,1-1.18,2,11.46,11.46,0,0,1-3.2.88c-.65.14-1.32.2-2.3.35a32.19,32.19,0,0,1,2.37,3,17.67,17.67,0,0,1,1.77,3.63,2.17,2.17,0,0,1-.33,2,2.18,2.18,0,0,1-2.09-.05c-2.35-1.92-5.15-3.44-6.2-6.6a15,15,0,0,0-.95-1.88c-.39.74-.59,1.11-.78,1.49-.38.73-.57,1.69-1.17,2.14a3.92,3.92,0,0,1-2.64.84c-1.61-.3-1.12-1.79-1.14-2.92Z"/><path class="cls-1" d="M225.39,41.21c-.9-.9-2.1-1.6-2.47-2.6-.45-1.23.83-1.58,1.84-2.07a11.52,11.52,0,0,0,3.18-2.38c1.43-1.48,2.74-3.08,4-4.7a39.62,39.62,0,0,0,3-4.26c1.23-2.08,2.47-2.7,4.81-2.08,1.49.4,2,1.57,1,2.79-3.65,4.71-7.26,9.46-11.94,13.23A29.22,29.22,0,0,1,225.39,41.21Z"/><path class="cls-1" d="M245.79,24.05c.26-.4.5-1.19,1-1.42s1.26.23,1.62.64c4,4.56,9.17,7.41,14.5,10.05,1.14.56,2.18,1.36,1.82,2.86-.32,1.27-2.1,2-3.77,1.24a51.45,51.45,0,0,1-9.53-5.31c-2.16-1.66-3.56-4.32-5.25-6.56A5.16,5.16,0,0,1,245.79,24.05Z"/><path class="cls-1" d="M236.57,44.87c2,0,2.75,1.05,2.65,3a24.28,24.28,0,0,1-3.31,11.4,11.67,11.67,0,0,1-1.85,2.36,2,2,0,0,1-3,.11c-1.07-.92-.31-1.66.11-2.61,1.69-3.89,4.21-7.59,3.25-12.22C234.13,45.59,235,44.87,236.57,44.87Z"/><path class="cls-1" d="M45.69,51.59c-3.56,0-9.54-3.84-10.44-6.57A3.59,3.59,0,0,1,36,42.43c.18-.27,1.39-.14,1.94.17,2.82,1.57,5.63,3.19,8.33,5,.69.45,1.51,1.76,1.3,2.29C47.24,50.72,46.09,51.26,45.69,51.59Z"/><path class="cls-1" d="M43.68,61a51.67,51.67,0,0,1-5.92-1.75c-.67-.27-1-1.42-1.45-2.17a6.56,6.56,0,0,1,2-1.12,65.86,65.86,0,0,1,7.54-.72,4.13,4.13,0,0,1,2.65,1.07c.59.55,1.2,1.86.92,2.37A4.19,4.19,0,0,1,47,60.29a11.88,11.88,0,0,1-3.16.06Z"/><path class="cls-1" d="M42.5,69.14a13.13,13.13,0,0,1-2.56-1c-.55-.35-1.27-1.22-1.15-1.65a2.78,2.78,0,0,1,1.59-1.58c2.29-.87,4.67-1.51,7-2.34.7-.25,1.23-1,1.93-1.22s1.91-.4,2.3,0a2.44,2.44,0,0,1,.18,2.32C49.73,67,46.6,68.66,42.5,69.14Z"/></svg>