<?xml version="1.0" encoding="utf-8"?>
<!-- Generator: Adobe Illustrator 22.1.0, SVG Export Plug-In . SVG Version: 6.00 Build 0)  -->
<svg version="1.1" id="圖層_1" xmlns="http://www.w3.org/2000/svg" xmlns:xlink="http://www.w3.org/1999/xlink" x="0px" y="0px"
	 viewBox="0 0 310 110" style="enable-background:new 0 0 310 110;" xml:space="preserve">
<style type="text/css">
	.st0{fill:#FF739F;}
	.st1{fill:#CB4641;}
	.st2{fill:#FFFFFF;}
	.st3{fill:url(#SVGID_1_);}
	.st4{fill:url(#SVGID_2_);}
	.st5{fill:url(#SVGID_3_);}
	.st6{fill:url(#SVGID_4_);}
	.st7{fill:url(#SVGID_5_);}
	.st8{fill:url(#SVGID_6_);}
	.st9{fill:url(#SVGID_7_);}
	.st10{fill:url(#SVGID_8_);}
	.st11{fill:url(#SVGID_9_);}
	.st12{fill:url(#SVGID_10_);}
	.st13{fill:url(#SVGID_11_);}
	.st14{fill:url(#SVGID_12_);}
	.st15{fill:url(#SVGID_13_);}
	.st16{fill:url(#SVGID_14_);}
	.st17{fill:url(#SVGID_15_);}
</style>
<g>
	<g>
		<path class="st0" d="M76.3,72.5c-2.5-0.5-4.7-2.2-7-3.3c-2.3-1.1-5.2-1.8-7.4-0.3c-2.2,1.4-2.2,5.5,0.3,6.1
			c-2.6,1.2-2.5,5.4-0.5,7.4c2.1,2.1,5.2,2.6,8,3c-1.6-0.5-3.4-0.9-5-0.2c-1.6,0.7-2.3,3.1-0.9,4.1c0.6,0.5,1.5,0.5,2.3,0.4
			c4.3-0.1,9.9-1.3,10.4-5.6c-0.1,2.4,2.7,3.7,5.1,3.9c5.3,0.5,10.7-1.4,14.6-4.9c-2.2-0.9-4.1,2.6-2.8,4.6c1.3,2,4.1,2.4,6.4,2.4
			c4.2,0,9.1-1.4,10.6-5.3c5.3,4,12.4,4.5,19,4.9c2.1,0.1,4.4,0.2,6.3-0.9c1.8-1.1,2.8-3.9,1.4-5.4c-0.2,2.5,3.2,4.1,5.6,3.2
			c2.4-0.9,3.9-3.2,5.2-5.4c-0.6,1.7,0.4,3.7,1.9,4.7c1.5,1,3.4,1.4,5.2,1.5c6.2,0.4,13.6-1.9,15.3-7.9c2.1,3.4,6.2,5.5,10.3,5.2
			c4-0.3,7.8-3.1,9.3-6.8c-2.8,3.1-0.5,8.8,3.5,9.8c4,1,8.4-2.1,9.4-6.1c1.3,2.7,4.2,4.6,7.2,4.7c3,0.1,6-1.6,7.4-4.3
			c2.9,1.8,6,3.7,9.4,3.9c3.4,0.2,7.3-2.1,7.5-5.5c-0.3,2.9,2,5.9,4.9,6.4c2.9,0.5,6-1.5,6.8-4.3c-0.1,1.1,1,2.1,2.1,2.1
			c1.1,0.1,2.2-0.6,2.9-1.4c2.2-2.4,2.4-6.2,1-9.1c-1.4-2.9-4.2-5-7.2-6.2c-2.9-1.2-6.2-1.6-9-0.3c-2.8,1.2-4.9,4.5-4.1,7.5
			c-4.6-4.5-13.5-2.7-16.1,3.2c-3.5-5.4-10.6-6.9-17-7.8c-2.5-0.3-5.4-0.6-7.4,1c-2,1.6-1.8,5.7,0.8,6c0.9-1.1,0.7-3-0.3-4.1
			c-1-1.1-2.5-1.6-3.9-1.8c-5-0.6-10.2,2.7-11.8,7.4c-1.2-4.1-3.8-8.1-7.8-9.4c-4-1.3-9.4,1.4-9.3,5.7c-2.6-2.2-5.8-4-9.2-3.9
			c-3.4,0.1-6.8,2.7-7,6.1c0.8-1.8-0.4-4-2.2-4.9c-1.8-0.8-3.9-0.6-5.8,0c-2.7,0.8-5.3,2.1-7.5,3.9c-2-4.4-6-8-10.8-8.5
			c-4.8-0.5-9.9,2.6-10.8,7.3c-1.6-1-3.3-2.1-5.1-1.9c-1.8,0.2-3.6,2.3-2.6,3.9c-0.7-2.8-3.2-5-6-5.3c-2.8-0.4-5.8,1.1-7.2,3.6
			c-0.6-2.2-1.4-4.5-3.1-5.9c-1.8-1.4-4.9-1.3-5.8,0.8L76.3,72.5z"/>
	</g>
	<g>
		<path class="st1" d="M187.3,4.9c-2.8,1.3-5.8,2.8-5.5,6c0.6,6.2,3.1,11.7,10.4,8.6s18,1.4,18.7,1.4c0.7,0,8.8,2.1,8.4-4.2
			c-0.4-6.3,2.3-11.4-16.9-12.5C192.9,3.6,187.3,4.9,187.3,4.9z"/>
		<path class="st1" d="M148,8.2c0,0,0.6-4.2,8.4-3c7.8,1.3,14.4,1.4,15.6,5.1c1.2,3.7-1.5,8.3-8.1,8c-6.7-0.3-10.1,3.7-13.9,2.1
			C146.1,18.9,146.4,11.1,148,8.2z"/>
		<path class="st2" d="M201.6,14.2c0,0.2,0,0.2,0,0.3c0,1,0,2,0.1,3c0,0.3-0.2,0.4-0.4,0.5c-0.4,0.1-1.1-0.1-1.3-0.4
			c-0.1-0.1-0.1-0.3-0.1-0.5c0.2,0,0.4,0,0.5,0c0.4,0.2,0.5,0.1,0.5-0.3c0-0.6,0-1.2,0-1.8c0-0.1,0-0.2-0.1-0.4
			c-0.1,0.1-0.2,0.2-0.2,0.3c-0.2,0.3-0.4,0.5-0.7,0.7c-0.2,0.2-0.5,0.1-0.7-0.1c0-0.1,0-0.2,0-0.3c0.4-0.2,0.5-0.6,0.7-1
			c0.2-0.5,0.5-0.9,0.7-1.4c-0.2,0-0.3,0-0.4,0c-0.2,0-0.5,0-0.7-0.1c-0.3-0.1-0.4-0.3-0.3-0.7c-0.1,0-0.1-0.1-0.2-0.1
			c-0.2,0-0.3-0.1-0.3-0.3c-0.1-0.9-0.2-1.8,0.1-2.7c0,0,0-0.1,0-0.1c0.1-0.6,0.1-0.6,0.7-0.6c1.1,0,0.8,0,0.7-0.9
			c0-0.3-0.1-0.4-0.5-0.3c-0.5,0.2-1,0-1.3-0.5c-0.1-0.1-0.1-0.3-0.1-0.4c0-0.1,0.2-0.1,0.3-0.1c0.3,0,0.6,0,0.9,0
			c0.2,0,0.4-0.1,0.3-0.4c0-0.2,0-0.3,0-0.5c0-0.2,0.1-0.4,0.4-0.5c0.2,0,0.5,0.2,0.6,0.4c0,0.1,0,0.2,0,0.3
			c0.1,0.3,0.3,0.5,0.6,0.5c0.3,0,0.5-0.1,0.8-0.1c0.1,0,0.3,0,0.4,0c0.2,0.1,0.4,0.2,0.4,0.5c0,0.3-0.3,0.6-0.5,0.6
			c-0.2,0-0.5,0-0.7,0c-0.2,0-0.3,0-0.5,0.1c-0.3,0.1-0.4,0.2-0.2,0.5c0.1,0.1,0.1,0.3,0.1,0.4c0,0.3,0.2,0.4,0.4,0.4
			c0.2,0,0.4,0,0.6,0.1c0.5,0.2,0.7,0.6,0.7,1.1c0,0.6,0,1.2,0,1.8c0,0.4-0.2,0.6-0.5,0.5c-0.3,0-0.4-0.1-0.3-0.4
			c0-0.2,0-0.3-0.2-0.3c-0.2,0-0.3,0.1-0.4,0.3c0,0.1,0,0.2,0,0.3c0,0.3,0.1,0.4,0.3,0.4c0.1,0,0.2,0,0.2,0c0.2,0,0.4,0.1,0.3,0.3
			c0,0.1-0.2,0.3-0.3,0.3c-0.3,0.1-0.4,0.2-0.1,0.4c0.2,0.2,0.4,0.5,0.6,0.7c0.3,0.3,0.7,0.5,1,0.8c0.1,0.1,0.4,0.2,0.2,0.4
			c-0.1,0.1-0.4,0.2-0.5,0.2c-0.5-0.2-1.1-0.4-1.5-0.8C201.8,14.4,201.7,14.3,201.6,14.2z M199.7,9.6c0,0.7,0,0.8,0.6,0.7
			c0.1,0,0.2-0.1,0.2-0.2c0-0.2,0-0.4,0-0.7c0-0.4-0.1-0.4-0.5-0.4c-0.3,0-0.2,0.3-0.2,0.4C199.7,9.5,199.7,9.6,199.7,9.6z
			 M199.4,12c0.3,0,0.6,0,0.9,0c0.1,0,0.2-0.2,0.2-0.3c0-0.2-0.1-0.4-0.2-0.4c-0.2-0.1-0.4,0-0.6,0c-0.1,0-0.1,0.1-0.2,0.1
			C199.6,11.6,199.5,11.8,199.4,12z M202,9.9c-0.1-0.3-0.2-0.6-0.4-0.8c-0.1-0.1-0.3-0.1-0.3,0.1c0,0.3,0,0.5,0.1,0.8
			c0,0.1,0.2,0.2,0.4,0.2C201.8,10.3,201.9,10.1,202,9.9z"/>
		<path class="st2" d="M187.1,14.4c-0.2,0.4-0.4,0.7-0.6,1c-0.1,0.2-0.3,0.3-0.5,0.4c-0.1,0-0.4,0-0.5-0.1c-0.2-0.1,0-0.3,0.1-0.4
			c0.5-0.5,0.6-1.1,0.8-1.7c0.1-0.2-0.1-0.2-0.3-0.3c-0.4,0-0.8-0.1-1.2-0.2c-0.1,0-0.2,0-0.2-0.1c-0.1-0.1-0.2-0.3-0.1-0.4
			c0-0.1,0.2-0.2,0.3-0.2c0.5,0,0.9-0.1,1.4-0.1c0.2,0,0.4-0.1,0.4-0.4c0-0.3-0.2-0.3-0.4-0.3c-0.3,0-0.7-0.1-1-0.2
			c-0.2-0.1-0.4-0.3-0.3-0.5c0.1-0.2,0.3-0.3,0.5-0.3c0.5,0,0.5,0,0.4-0.5c-0.1-0.4-0.2-0.7,0-1.1c0,0,0-0.2-0.1-0.3
			c-0.1-0.1-0.3-0.1-0.4-0.2c-0.1-0.1-0.2-0.3-0.2-0.4c0-0.2,0.2-0.4,0.4-0.3c0.2,0,0.3,0.1,0.5,0.1c0.1,0,0.2,0,0.3,0.1
			c-0.1-0.1-0.1-0.2-0.2-0.3c-0.1-0.1-0.2-0.1-0.2-0.2c0-0.2,0-0.4-0.1-0.6c0.2,0,0.4-0.1,0.5,0c0.3,0.2,0.5,0.4,0.8,0.6
			c0.2,0.1,0.4,0.3,0.6,0.3c0.2,0.1,0.5,0.1,0.5,0.3c0,0.3-0.2,0.4-0.4,0.4c0,0-0.1,0-0.1,0.1c0.3,0.5,0.2,0.9,0,1.3
			c-0.1,0.2,0,0.3,0.2,0.3c0.2,0,0.4,0,0.6,0c0.1,0,0.3,0.1,0.3,0.2c0,0.1-0.1,0.3-0.2,0.3c-0.3,0.2-0.6,0.3-0.9,0.4
			c-0.3,0.1-0.4,0.2-0.3,0.6c0.1,0.3,0.3,0.2,0.4,0.1c0.3-0.1,0.6-0.1,0.9-0.1c0.1,0,0.3,0.2,0.4,0.3c-0.1,0.1-0.2,0.3-0.3,0.4
			c-0.2,0.1-0.4,0.1-0.7,0.2c-0.1,0-0.3,0.1-0.4,0.1c-0.2,0.1-0.2,0.2-0.1,0.3c0.3,0.2,0.7,0.4,1.1,0.6c0.3,0.1,0.6,0.2,0.6,0.4
			c-0.1,0.3-0.3,0.3-0.6,0.3c-0.2,0-0.4,0-0.6-0.1c-0.2-0.1-0.3,0-0.3,0.2c0,0.4,0,0.8,0,1.3c0,0.2-0.1,0.4-0.4,0.4
			c-0.3,0-0.6,0-0.7-0.3c0-0.1,0-0.3,0.1-0.4C187.3,15.4,187.3,14.9,187.1,14.4z M186.9,10.1C187,10.2,187,10.2,186.9,10.1
			c0.1,0,0.1,0,0.1-0.1c0.1-0.3,0.2-0.6,0.3-0.9c0-0.1-0.1-0.2-0.1-0.2c-0.1,0-0.3,0-0.3,0.1C186.9,9.5,186.8,9.8,186.9,10.1z"/>
		<path class="st2" d="M154.1,16.5c-0.1,0.2-0.2,0.4-0.3,0.6c-0.1,0.1-0.1,0.3-0.3,0.3c-0.1,0.1-0.3,0.1-0.5,0.1c0-0.1,0-0.3,0-0.4
			c0.3-0.9,0.5-1.7,0.8-2.6c0-0.1,0-0.2-0.1-0.3c-0.1,0.1-0.1,0.2-0.2,0.3c-0.1,0.4-0.3,0.9-0.4,1.3c0,0.1,0,0.2-0.1,0.2
			c-0.1,0.1-0.3,0.2-0.4,0.2c-0.2,0-0.2-0.2-0.2-0.4c0-0.3,0.1-0.6,0.2-0.9c0-0.2,0.1-0.3,0.1-0.5c0.1-0.4,0.2-0.5,0.6-0.6
			c0.1,0,0.3-0.2,0.3-0.2c0-0.2-0.1-0.3-0.2-0.4c-0.1,0.1-0.2,0.1-0.3,0.2c-0.3,0.3-0.5,0.7-0.9,1c-0.1,0.1-0.4,0.2-0.6,0.2
			c-0.1,0-0.3-0.1-0.3-0.2c0-0.1,0-0.2,0.1-0.3c0.6-0.6,0.9-1.3,1.3-2c0.1-0.2,0.2-0.3,0.3-0.5c-0.2-0.1-0.4-0.2-0.5-0.3
			c-0.1-0.1-0.2-0.3-0.2-0.4c0-0.1,0.2-0.3,0.4-0.4c0.7,0,1.4,0,2.1,0c0.3,0,0.5,0.3,0.5,0.5c0,0.2-0.3,0.4-0.6,0.4
			c-0.2,0-0.5-0.1-0.5,0c-0.2,0.3-0.4,0.6-0.5,0.9c0,0.1,0.1,0.3,0.2,0.4c0.2,0.3,0.5,0.7,0.7,1c0.1,0.2,0.3,0.3,0.5,0.1
			c0.2-0.2,0.3-0.4,0.5-0.5c0.2-0.3,0.4-0.3,0.7-0.1c0.2,0.2,0.2,0.3,0,0.5c-0.1,0.2-0.3,0.3-0.4,0.5c-0.1,0.2-0.1,0.3,0.1,0.4
			c0.5,0.1,0.9,0.2,1.4,0.3c0.2,0,0.5,0,0.5,0.3c0,0.2-0.3,0.5-0.5,0.5c-0.7,0-1.5,0.1-2.2-0.4c0,0,0,0-0.1,0c0,0.1,0,0.1-0.1,0.2
			c0,0.7-0.1,1.4-0.1,2.1c0,0.6-0.3,1.2-0.8,1.6c-0.2,0.2-0.5,0.2-0.7,0c-0.3-0.2-0.5-0.4-0.4-0.7c0-0.2,0.2-0.2,0.4-0.1
			c0.2,0.2,0.4,0.1,0.5-0.1C154.1,17.6,154.2,17.1,154.1,16.5C154.2,16.5,154.1,16.5,154.1,16.5z"/>
		<path class="st2" d="M213.9,15.7c-0.2,0.3-0.3,0.5-0.5,0.8c-0.1,0.3-0.3,0.5-0.4,0.8c-0.1,0.1-0.3,0.1-0.3,0.1
			c-0.1,0-0.2-0.2-0.2-0.3c0.1-0.5,0.1-1.1,0.5-1.6c0.1-0.2,0.1-0.3,0-0.4c-0.2-0.1-0.2,0-0.3,0.1c-0.4,0.4-0.7,0.7-1.1,1
			c-0.2,0.2-0.4,0.2-0.6,0c-0.1-0.2,0-0.3,0.1-0.5c0.3-0.3,0.5-0.7,0.7-1.1c0.2-0.4,0.4-0.7,0.7-1.1c0.2-0.3,0.2-0.4-0.1-0.5
			c-0.1-0.1-0.3-0.2-0.4-0.3c-0.2-0.1-0.3-0.3-0.1-0.5c0.1-0.2,0.3-0.3,0.5-0.1c0.3,0.2,0.6,0.2,0.9,0.2c0.5,0,1,0,1.5,0.1
			c0.2,0,0.4,0.1,0.5,0.2c0.1,0.1,0.2,0.3,0.2,0.4c-0.1,0.1-0.2,0.2-0.4,0.2c-0.3,0-0.6,0-0.9,0c-0.4,0-0.9,0.4-0.9,0.8
			c0,0.1,0.1,0.2,0.2,0.3c0.3,0.2,0.6,0.3,0.9,0.4c0.3,0.1,0.6,0.2,0.9,0.3c0.6,0.3,0.9,0.6,0.7,1.3c-0.1,0.4-0.2,0.8-0.5,1.1
			c-0.1,0.1-0.1,0.2-0.1,0.2c-0.1,0.5-0.4,0.7-0.8,0.9c-0.2,0.1-0.4,0-0.6,0c-0.1,0-0.3-0.1-0.4-0.1c-0.4,0-0.5-0.2-0.4-0.5
			c0.2-0.4,0.4-0.9,0.6-1.3c0.1-0.3,0.2-0.5,0.4-0.8c0,0,0-0.1,0-0.2C213.9,15.7,213.9,15.7,213.9,15.7z M214.8,16
			c-0.1,0.2-0.2,0.3-0.2,0.4c-0.1,0.3-0.2,0.6-0.4,0.9c-0.1,0.2-0.2,0.4-0.3,0.6C214.3,17.7,214.9,16.5,214.8,16z"/>
		<path class="st2" d="M166.5,13.6c-0.1,0.4-0.2,0.6-0.3,0.9c-0.2,0.5-0.5,1.1-0.8,1.6c-0.1,0.1-0.2,0.3-0.4,0.4
			c-0.1,0.1-0.3,0-0.4,0c0-0.1,0-0.3,0-0.4c0.3-0.7,0.6-1.3,0.9-2c0.1-0.3,0.1-0.6,0.2-1c0.1-0.3,0-0.4-0.3-0.4
			c-0.2,0-0.4-0.1-0.6-0.2c-0.1-0.1-0.1-0.3-0.1-0.5c0-0.1,0.2-0.1,0.3-0.2c0.2,0,0.4,0,0.7,0c0.2,0,0.3-0.1,0.3-0.3
			c0-0.2,0.1-0.4-0.2-0.5c-0.3-0.1-0.5-0.1-0.8-0.2c-0.1,0-0.2-0.1-0.2-0.2c0-0.1,0.1-0.2,0.2-0.3c0.2-0.1,0.4-0.1,0.6-0.1
			c0.5,0,0.5-0.1,0.6-0.5c0-0.1,0.1-0.3,0.1-0.4c0.1-0.3,0.3-0.3,0.5-0.2c0.2,0,0.2,0.2,0.2,0.4c0,0.1,0,0.3,0,0.4
			c0,0.5,0.1,0.6,0.5,0.6c0.2,0,0.4,0,0.6,0c0.2,0,0.5,0.1,0.5,0.3c0,0.1-0.2,0.4-0.3,0.4c-0.3,0.1-0.7,0.1-1,0.1
			c-0.2,0-0.3,0-0.4,0.3c0,0.2,0,0.4,0.3,0.4c0.5,0,0.9,0,1.4,0c0.1,0,0.3,0,0.4,0.1c0.1,0.1,0.2,0.2,0.2,0.3c0,0.1-0.1,0.3-0.2,0.3
			c-0.3,0.1-0.5,0.2-0.8,0.2c-0.3,0-0.7,0-1,0c-0.1,0-0.2,0-0.2,0.1c0,0,0,0.1,0.1,0.2c0.7,0.9,1.4,1.8,2.1,2.7
			c0.1,0.1,0.1,0.3,0,0.4c-0.1,0.1-0.3,0.1-0.4,0c-0.9-0.6-1.7-1.2-2.1-2.3C166.6,13.8,166.6,13.8,166.5,13.6z"/>
		<path class="st2" d="M195.3,9.9c0,0.3-0.2,0.5-0.5,0.5c-0.5,0-0.5,0.1-0.5,0.6c0,0.8,0,1.7,0.1,2.5c0,0.5,0,0.9,0,1.4
			c0,0.2,0,0.4-0.2,0.4c-0.3,0-0.3-0.2-0.4-0.4c-0.1-0.6-0.1-1.2-0.2-1.9c-0.1-0.7-0.1-1.3-0.2-2c0-0.2-0.2-0.3-0.4-0.3
			c-0.2,0-0.2,0.1-0.2,0.3c-0.1,0.4-0.2,0.8-0.2,1.2c-0.1,0.2-0.3,0.4-0.6,0.3c-0.3-0.1-0.2-0.3-0.2-0.5c0.1-0.8,0.1-1.5,0.1-2.3
			c0-0.2-0.1-0.2-0.3-0.1c-0.3,0.2-0.7,0.3-1,0.4c-0.1,0-0.3,0-0.3-0.1c0,0,0-0.3,0.1-0.3c0.5-0.4,1.1-0.8,1.7-1.3
			c0.2-0.1,0.3-0.3,0.5-0.4c0.2-0.1,0.4-0.3,0.7-0.3c0.1,0,0.3,0.1,0.4,0.3c0,0-0.1,0.3-0.2,0.4c-0.1,0.2-0.3,0.3-0.5,0.4
			c-0.2,0.2-0.3,0.3-0.2,0.6c0,0.1,0,0.1,0.1,0.2c0.1,0.4,0.3,0.5,0.6,0.3c0.1,0,0.2-0.1,0.3-0.2c0.1,0,0.1-0.1,0.2-0.1
			c0.4,0,0.9,0.1,1.3,0.1C195.2,9.7,195.3,9.8,195.3,9.9z"/>
		<path class="st2" d="M207.3,10.3c0.3-0.1,0.4-0.3,0.4-0.5c0-0.2-0.3-0.3-0.4-0.4c-0.3-0.2-0.6-0.2-0.9-0.4
			c-0.1-0.1-0.2-0.3-0.2-0.4c0.1-0.1,0.3-0.3,0.4-0.3c0.6,0.1,1.3,0.2,1.8,0.7c0.3,0.3,0.4,0.6,0.4,1c0,0.1,0,0.2-0.1,0.3
			c-0.3,0.2-0.2,0.4,0,0.6c0.1,0.2,0.2,0.4,0.3,0.7c0.2,0.8-0.3,1.7-1.1,1.9c-0.3,0.1-0.3,0.2-0.3,0.5c0,0.2,0,0.5-0.1,0.7
			c-0.1,0.3-0.3,0.4-0.6,0.4c-0.3,0-0.3-0.3-0.3-0.5c0-0.7,0-1.3,0-2c0-0.4-0.1-0.8-0.1-1.2c0-0.5,0-1,0.1-1.4
			c0-0.1,0.1-0.2,0.2-0.2C207.1,9.7,207.2,9.8,207.3,10.3z M208,12.3c0-0.4-0.1-0.6-0.4-0.8c0,0-0.2,0-0.2,0.1c0,0.4,0,0.7,0,1.1
			c0,0.2,0.2,0.2,0.3,0.1C207.8,12.6,207.9,12.4,208,12.3z"/>
		<path class="st2" d="M161.6,15.2c0-0.3,0-0.7-0.1-1c0-0.2-0.1-0.4-0.4-0.3c-0.3,0.1-0.5,0-0.5-0.3c0-0.3,0.2-0.4,0.3-0.4
			c0.2-0.1,0.5-0.1,0.5-0.2c0-0.3,0-0.6-0.1-0.9c0-0.1-0.1-0.1-0.2-0.1c-0.3-0.1-0.6-0.3-0.8-0.4c-0.1-0.1-0.2-0.2-0.1-0.3
			c0.1-0.1,0.2-0.2,0.3-0.3c0.1,0,0.3,0,0.5,0c0.3,0,0.4-0.1,0.4-0.4c0-0.2,0-0.5,0.1-0.7c0-0.1,0.1-0.3,0.3-0.3
			c0.2-0.1,0.4,0.1,0.4,0.3c0,0.2,0,0.5,0.1,0.7c0,0.4,0.2,0.5,0.5,0.4c0.2,0,0.4,0,0.5,0c0.4,0.1,0.4,0.5,0.1,0.7
			c-0.2,0.1-0.4,0.1-0.6,0.2c-0.3,0-0.4,0.2-0.4,0.5c0,0.5,0,0.5,0.4,0.6c0.1,0,0.2,0.1,0.4,0.2c-0.1,0.1-0.1,0.4-0.2,0.4
			c-0.3,0.2-0.4,0.4-0.4,0.8c0.1,0.7,0.1,1.3,0.1,2c0,0.4-0.4,0.7-0.8,0.6c-0.5-0.2-0.9-0.6-1.2-1c-0.1-0.1,0-0.3,0.1-0.2
			c0.2,0,0.3,0.1,0.4,0.2c0.3,0.2,0.4,0.1,0.5-0.2C161.6,15.4,161.6,15.3,161.6,15.2C161.6,15.2,161.6,15.2,161.6,15.2z"/>
		<path class="st2" d="M153,6.9c-0.1-0.3-0.1-0.6-0.2-0.9c0-0.2,0-0.3,0.1-0.5c0.1-0.2,0.3-0.3,0.5-0.1c0.3,0.3,0.4,0.5,0.3,0.9
			c-0.1,0.3-0.1,0.5-0.2,0.8c0,0.1,0.1,0.2,0.2,0.2c0.2,0,0.4,0,0.6,0.1c0.5,0.1,1.1,0.3,1.6,0.5c0.3,0.1,0.5,0.4,0.4,0.7
			c-0.1,0.3-0.1,0.7-0.2,1c0,0.1-0.2,0.2-0.4,0.2c-0.1,0-0.2-0.2-0.3-0.3c-0.1-0.1,0-0.3-0.1-0.4c-0.1-0.3-0.2-0.5-0.5-0.6
			c-1-0.3-2-0.2-3-0.3c-0.2,0-0.2,0.1-0.2,0.3c0,0.4-0.1,0.8-0.1,1.2c0,0.2-0.1,0.3-0.3,0.4c-0.2,0-0.4-0.1-0.4-0.3
			c0-0.3,0-0.6-0.1-0.9c0-0.4-0.1-0.7-0.2-1.1c0-0.2,0-0.4,0.1-0.5C150.7,7,151,7,151.1,7c0.5,0.1,0.9,0.4,1.5,0.3
			C152.9,7.3,152.9,7.3,153,6.9z"/>
		<path class="st2" d="M213.9,10.1c-0.5-0.1-1-0.2-1.4-0.4c-0.1,0-0.2-0.2-0.2-0.3c0-0.2,0.1-0.4,0.1-0.6c0-0.2,0-0.4,0-0.6
			c0,0,0-0.1,0-0.1c0.2-0.3,0.1-0.7,0.1-1c0-0.2,0.3-0.4,0.6-0.4c0.4,0,0.9,0.1,1.3,0.1c0.6,0,0.8,0.3,0.9,0.8c0,0.3,0,0.7,0,1
			c0,0.1,0,0.2,0,0.2c-0.2,0.2-0.2,0.4,0,0.7c0.1,0.2-0.1,0.3-0.3,0.3C214.5,10,214.2,10,213.9,10.1C213.9,10,213.9,10.1,213.9,10.1
			z M213.9,9.4c0.1,0,0.1-0.1,0.2-0.2C214,9.1,214,9,213.9,9c-0.1-0.1-0.3-0.1-0.4-0.1c-0.1,0-0.2,0-0.3,0.1c0,0.1,0.1,0.2,0.1,0.2
			C213.5,9.3,213.7,9.3,213.9,9.4z M213.8,7.6C213.7,7.6,213.7,7.6,213.8,7.6c-0.1,0.1-0.1,0.1-0.2,0.1c-0.1,0-0.2,0.1-0.2,0.1
			c0.1,0.1,0.1,0.2,0.2,0.2c0,0,0.1,0,0.1,0c0.2,0,0.4,0.1,0.5-0.1C214.1,7.8,213.9,7.7,213.8,7.6z"/>
		<path class="st2" d="M144.9,14.7c-0.2-0.1-0.3-0.1-0.4-0.3c-0.4-0.4-0.8-0.7-1.2-1.1c-0.2-0.2-0.3-0.2-0.5,0
			c-0.3,0.4-0.6,0.8-0.9,1.1c-0.2,0.2-0.4,0.4-0.7,0.2c-0.3-0.2-0.3-0.5-0.1-0.8c0.4-0.5,0.7-1.1,1.1-1.6c0.1-0.2,0.2-0.3,0-0.5
			c-0.3-0.4-0.5-0.7-0.7-1.1c-0.2-0.3-0.1-0.4,0.2-0.5c0.5-0.1,0.9,0.1,1.1,0.5c0.3,0.4,0.6,0.4,0.8-0.1c0.3-0.6,0.6-0.8,1.2-0.6
			c0.2,0,0.3,0.2,0.1,0.4c-0.4,0.5-0.7,1-1,1.6c-0.1,0.1,0,0.3,0,0.4c0.4,0.6,0.8,1.2,1.2,1.8c0.1,0.1,0.1,0.3,0.1,0.5
			C145.2,14.6,145,14.6,144.9,14.7z"/>
		<path class="st2" d="M175.6,11c0.4,0,0.6,0.3,0.8,0.5c0.3,0.4,0.6,0.4,0.8-0.1c0.3-0.7,0.6-0.6,1.2-0.6c0.3,0,0.2,0.2,0.1,0.4
			c-0.3,0.5-0.7,1-1,1.5c-0.1,0.1,0,0.3,0,0.4c0.4,0.6,0.8,1.2,1.2,1.8c0.1,0.1,0.1,0.3,0.1,0.5c-0.2,0-0.5,0.1-0.6,0
			c-0.4-0.3-0.8-0.7-1.2-1.1c-0.4-0.4-0.4-0.4-0.7,0.1c-0.2,0.3-0.5,0.7-0.8,0.9c-0.2,0.2-0.4,0.5-0.8,0.3c-0.3-0.2-0.3-0.5-0.1-0.9
			c0.3-0.5,0.7-1,1-1.5c0.1-0.2,0.2-0.3,0-0.6c-0.3-0.4-0.5-0.7-0.7-1.1c-0.2-0.3-0.1-0.4,0.2-0.5C175.3,11,175.5,11,175.6,11z"/>
		<g>
			<path class="st1" d="M92.5,6c0,0,19.5-5.8,38,0c18.5,5.8-2.5,18.5-15.6,15.9c-13.1-2.6-23.2-2.7-27.4-5.3
				C85.9,15.6,84.8,8.4,92.5,6z"/>
			<g>
				<path class="st2" d="M132.2,8.5c0.2,0,0.4,0,0.5,0c1,0,1.2,0,1.2,1.3c0,0.3,0,0.7,0,1c0,0.4-0.1,0.6-0.5,0.6c-0.3,0-0.6,0-0.9,0
					c-0.2,0-0.3,0.1-0.4,0.3c-0.1,0.2,0,0.4,0.2,0.4c0.2,0.1,0.5,0.1,0.7,0.1c0.4,0,0.7,0.2,0.7,0.4c0,0.3-0.2,0.4-0.6,0.4
					c-0.3,0-0.6-0.1-0.8-0.1c-0.1,0-0.2,0-0.2,0c0,0.2-0.1,0.4,0,0.5c0,0.1,0.2,0.2,0.3,0.2c0.5,0,1.1,0,1.6,0
					c0.7,0,1.2,0.5,1.2,1.2c0,0.9-0.1,1.7-0.2,2.6c0,0.4-0.3,0.7-0.6,0.8c-0.3,0.1-0.9-0.2-1.1-0.4c-0.1-0.2,0-0.3,0.1-0.4
					c0.1,0,0.2,0,0.4,0c0.2,0,0.3-0.1,0.3-0.3c0-0.2,0-0.5,0-0.7c-0.2,0-0.5,0-0.5-0.1c-0.2-0.3-0.4-0.7-0.5-1.1
					c-0.1-0.3,0.2-0.5,0.5-0.3c0.2,0.1,0.4,0.3,0.6,0.5c0,0.1,0,0,0,0c0-1.1,0-1.1-1.1-1.1c-0.6,0-1.1-0.1-1.5-0.5
					c-0.1-0.1-0.2-0.3-0.2-0.5c0-1,0.1-2,0.1-3c0-0.3,0-0.5,0.1-0.8c0-0.2,0-0.4-0.3-0.2c-0.1,0-0.2,0-0.3,0c-0.3,0-0.3-0.2-0.2-0.4
					c0.3-0.4,0.6-0.7,0.9-1.1c0.2-0.3,0.5-0.5,0.7-0.8c0.2-0.2,0.5-0.2,0.7-0.1c0.2,0.2,0.1,0.3,0,0.5
					C132.7,7.9,132.5,8.2,132.2,8.5z M132.5,10.2c-0.3,0-0.3,0-0.3,0.5c0,0.2,0.1,0.3,0.3,0.3c0.3,0,0.5-0.2,0.6-0.4
					C133.1,10.4,132.8,10.2,132.5,10.2z M132.1,9.2c0,0,0,0.1,0,0.1c0.2,0,0.5,0.1,0.8,0.1C132.7,9.1,132.4,9.1,132.1,9.2z"/>
				<path class="st2" d="M117.5,19c-0.3-0.1-0.9-0.2-1.5-0.4c-0.1,0-0.2-0.2-0.3-0.3c0.2-0.1,0.3-0.3,0.5-0.3c0.2,0,0.5,0,0.7,0.1
					c0.3,0.1,0.5,0,0.4-0.3c-0.2-0.6,0-1.3,0.1-1.9c0-0.1,0.2-0.2,0.4-0.3c0.1,0,0.3,0,0.4,0c0.8,0.2,1.7,0,2.5-0.1
					c0.5,0,0.8,0.1,1,0.6c0.1,0.4,0.2,0.8,0.3,1.2c0,0.3,0.2,0.3,0.4,0.3c0.3-0.1,0.6-0.1,0.8-0.1c0.1,0,0.4,0.1,0.4,0.2
					c0,0.1-0.1,0.3-0.2,0.4c-0.2,0.2-0.5,0.3-0.8,0.4c-0.9,0.2-1.8,0.3-2.7,0.4C119.3,18.9,118.5,19,117.5,19z M118.3,16.4
					c0,0.4,0,0.8,0.1,1.2c0,0.4,0.3,0.5,0.6,0.3c-0.1-0.4-0.2-0.8-0.2-1.2C118.6,16.6,118.5,16.4,118.3,16.4z M120.8,16.9
					c0,0-0.1,0-0.1,0c0,0.3-0.1,0.5-0.1,0.8c0,0.1,0.1,0.2,0.2,0.3c0.1-0.1,0.2-0.2,0.2-0.2C120.9,17.4,120.8,17.2,120.8,16.9z
					 M119.6,17.9c0.1-0.1,0.1-0.2,0.2-0.2c0-0.3,0.1-0.7,0.1-1c0,0-0.1-0.1-0.1-0.1c0,0.1-0.1,0.1-0.1,0.2c0,0.2,0.1,0.3,0.1,0.5
					C119.6,17.4,119.6,17.6,119.6,17.9z"/>
				<path class="st2" d="M116.7,14.8c-0.7,0.1-1.4,0.3-2,0.4c-0.3,0.1-0.6-0.1-0.6-0.4c0-0.2,0.1-0.4,0.1-0.6c0.2-1,0.2-2,0-3
					c-0.1-0.3,0.1-0.5,0.3-0.6c0.1-0.1,0.3,0,0.5,0.1c0.2,0.1,0.4,0.3,0.6,0.1c0.2-0.1,0-0.5-0.2-0.7c-0.1-0.1-0.3-0.1-0.4-0.2
					c-0.3-0.2-0.3-0.4,0.1-0.5c0.3-0.1,0.6-0.1,0.8-0.1c0.3,0,0.5,0.1,0.8,0.1c0.2,0,0.4,0,0.4,0.2c0,0.2-0.1,0.4-0.2,0.5
					c-0.5,0.3-0.5,0.6-0.1,0.9c0.5,0.5,0.7,1.3,0.3,1.9c-0.1,0.1-0.3,0.2-0.4,0.3c-0.2,0.1-0.4,0.1-0.4,0.3c0,0.1,0.2,0.2,0.3,0.3
					c0.2,0.2,0.4,0.3,0.6,0.5c0.1,0.1,0.1,0.3,0.1,0.4c0,0.1-0.2,0.1-0.4,0.2C117,14.9,116.8,14.9,116.7,14.8
					C116.7,14.8,116.7,14.8,116.7,14.8z M115.4,12.5c0.3-0.1,0.5-0.1,0.7-0.2c0.1,0,0.2-0.1,0.2-0.2c0-0.1-0.1-0.2-0.2-0.2
					c-0.2,0-0.5,0-0.6,0.1c-0.1,0.1-0.1,0.3-0.2,0.5C115.2,12.4,115.3,12.5,115.4,12.5z M115.2,13.4c0,0-0.1,0-0.1,0
					c0,0.1-0.1,0.2-0.1,0.3c0,0.1,0.1,0.2,0.2,0.2c0.1-0.1,0.2-0.1,0.1-0.2C115.4,13.6,115.3,13.5,115.2,13.4z"/>
				<path class="st2" d="M128.5,15.7c-0.1,0.3-0.1,0.6-0.2,1c-0.2,0.5-0.7,0.6-1.1,0.8c-0.2,0.1-0.4,0.1-0.5,0.1
					c-0.4,0-0.7-0.2-0.8-0.6c-0.1-0.5-0.1-1.1-0.1-1.6c0-0.5,0-1,0.1-1.5c0-0.2,0-0.4,0-0.6c0.1-0.6,0.2-0.6,0.7-0.5
					c0.2,0.1,0.5,0.1,0.7,0.1c0.6,0,1,0.4,1.1,1C128.5,14.6,128.5,15.1,128.5,15.7z M127.6,15.8c0,0,0-0.1,0-0.2
					c-0.1-0.1-0.2-0.2-0.3-0.3c-0.2,0.2-0.6-0.1-0.7,0.3c0,0.2,0,0.5,0,0.7c0,0.1,0.1,0.2,0.2,0.2C127.2,16.7,127.6,16.3,127.6,15.8
					z M127.1,14.6c0.2-0.1,0.5,0.1,0.5-0.3c0-0.4-0.3-0.7-0.7-0.6c-0.4,0-0.2,0.4-0.3,0.7C126.6,14.7,126.9,14.6,127.1,14.6z"/>
				<path class="st2" d="M127.9,11.8c-0.8-0.1-1.6-0.2-2.4-0.3c-0.2,0-0.3-0.1-0.5-0.2c-0.1-0.1-0.2-0.2-0.2-0.3
					c0-0.1,0.1-0.2,0.2-0.3c0.1,0,0.3,0,0.5,0c0.2,0,0.4,0,0.4-0.3c0-0.2,0.1-0.5-0.3-0.6c-0.2,0-0.3-0.2-0.4-0.3
					c-0.2-0.4-0.1-0.6,0.4-0.5c0.2,0,0.3,0,0.3-0.2c0-0.1,0.1-0.2,0.1-0.4c0-0.2,0.1-0.4,0.4-0.4c0.3,0,0.4,0.2,0.4,0.5
					c0,0.1,0,0.2,0,0.4c0,0.1,0.1,0.2,0.2,0.2c0,0,0.1-0.1,0.2-0.2c0.1-0.2,0.1-0.4,0.2-0.5c0.1-0.1,0.2-0.2,0.3-0.2
					c0.1,0,0.2,0.2,0.3,0.3c0,0,0,0.1,0,0.2c0,0.4,0.2,0.6,0.5,0.8c0.1,0.1,0.2,0.2,0.3,0.4c-0.1,0.1-0.3,0.2-0.4,0.2
					c-0.4,0-0.7,0.5-0.6,0.9c0,0.1,0.2,0.1,0.3,0.1c0.2,0.1,0.5,0.1,0.7,0.2c0.1,0,0.3,0.2,0.2,0.3c-0.1,0.1-0.2,0.3-0.3,0.3
					C128.5,11.8,128.2,11.8,127.9,11.8z M126.6,10.2c0.1,0.1,0.1,0.2,0.2,0.3c0.1-0.1,0.2-0.2,0.2-0.3c0,0-0.1-0.1-0.1-0.2
					C126.8,10,126.7,10.1,126.6,10.2z"/>
				<path class="st2" d="M115.6,6.5c0-0.3,0-0.6,0-0.9c0-0.1,0-0.3,0.1-0.4c0.1-0.1,0.3-0.2,0.3-0.2c0.2,0.1,0.4,0.3,0.5,0.5
					c0.1,0.4,0.2,0.8,0.3,1.3c0,0.3,0,0.6-0.1,0.9c0,0.1-0.3,0.3-0.4,0.3c-0.1,0-0.3-0.2-0.3-0.3c-0.1-0.2-0.2-0.3-0.4-0.4
					c-0.2-0.1-0.4-0.1-0.6-0.2c-0.1-0.1-0.3-0.4-0.3-0.5c0.1-0.2,0.4-0.3,0.6-0.2C115.3,6.4,115.4,6.4,115.6,6.5z"/>
				<path class="st2" d="M120.3,10.8c-0.1,0-0.3-0.1-0.4,0c-0.1,0-0.2,0.2-0.4,0.3c0,0,0,0.1,0,0.1c-0.1,0.2-0.2,0.5-0.5,0.4
					c-0.2,0-0.3-0.3-0.3-0.6c0-0.3,0-0.7,0-1c0-0.2-0.1-0.4,0.2-0.6c0.2-0.1,0.5-0.1,0.7,0.1c0.3,0.6,0.7,0.6,1.3,0.4
					c0.1,0,0.2,0,0.3,0c0.2,0.1,0.3,0.3,0.5,0.4c-0.1,0.1-0.2,0.4-0.4,0.4C120.9,10.8,120.6,10.8,120.3,10.8
					C120.3,10.8,120.3,10.8,120.3,10.8z"/>
				<path class="st2" d="M119.2,5.3c0.1,0.1,0.3,0.2,0.4,0.3c0.1,0.3,0.3,0.3,0.6,0.3c0.2,0,0.5-0.1,0.7,0c0.1,0,0.3,0.2,0.3,0.3
					c0,0.1-0.1,0.3-0.2,0.4c-0.3,0.1-0.5,0.1-0.8,0.1c-0.3,0-0.5,0.1-0.6,0.4c0,0.1-0.1,0.3-0.2,0.4c-0.2,0.1-0.4,0.1-0.5,0.1
					c-0.2-0.1-0.2-0.3-0.2-0.5c0.1-0.4,0.2-0.7,0-1.1C118.5,5.6,118.8,5.4,119.2,5.3z"/>
				<path class="st2" d="M130.9,15.1c0.1-0.1,0.1-0.3,0.2-0.4c0.2-0.3,0.5-0.3,0.6,0c0.1,0.3,0.1,0.7,0.2,1c0,0.1,0,0.2,0,0.3
					c0,0.3-0.1,0.4-0.3,0.4c-0.2,0-0.4-0.1-0.4-0.4c0-0.2-0.1-0.5-0.1-0.7c0,0,0-0.1-0.1-0.2c-0.1,0.1-0.1,0.2-0.2,0.4
					c0,0.2,0,0.4-0.1,0.6c0,0.1-0.2,0.3-0.3,0.3c-0.1,0-0.3-0.2-0.3-0.3c-0.1-0.3-0.1-0.7-0.1-1c0-0.2,0.5-0.4,0.7-0.3
					C130.8,15,130.8,15,130.9,15.1z"/>
				<path class="st2" d="M120.9,11.2c0.3,0,0.5,0,0.8,0c0.2,0,0.4,0.2,0.4,0.3c0.1,0.2-0.1,0.3-0.3,0.3c-0.4,0.1-0.9,0.1-1.3,0.2
					c-0.2,0-0.4-0.1-0.6-0.2c-0.1-0.1-0.2-0.2-0.2-0.3c0.1-0.1,0.2-0.3,0.3-0.3c0.2-0.1,0.4,0,0.6,0
					C120.6,11.2,120.8,11.2,120.9,11.2C120.9,11.2,120.9,11.2,120.9,11.2z"/>
				<path class="st2" d="M132.9,15.6c-0.1,0.3,0.1,0.6-0.3,0.6c-0.4,0-0.4-0.3-0.4-0.5c0-0.2-0.1-0.5,0-0.7c0-0.1,0.2-0.3,0.3-0.3
					c0.1,0,0.3,0.1,0.4,0.3C132.8,15.2,132.8,15.4,132.9,15.6z"/>
			</g>
			<path class="st2" d="M108.3,10.8c0,0,0-0.1,0-0.1c0-0.1,0.1-0.3,0.1-0.3c0.2-0.1,0.4-0.1,0.5,0.2c0.1,0.2,0.1,0.4,0.1,0.6
				c0,0.2,0,0.3,0.2,0.3c0.2,0,0.4,0,0.5,0c0.6,0,0.9,0.3,0.9,0.9c0,0.3,0.1,0.5,0.4,0.5c0.1,0,0.2,0,0.2,0.1
				c0.1,0.1,0.3,0.2,0.2,0.2c-0.1,0.1-0.2,0.3-0.3,0.3c-0.1,0.1-0.3,0-0.4,0c-0.2,0-0.3,0-0.2,0.3c0,0.3,0,0.7-0.1,1
				c0,0.1-0.2,0.2-0.3,0.2c-0.3,0-0.5,0-0.8,0c-0.2,0-0.3,0.1-0.3,0.3c0,0.5,0,0.5,0.5,0.5c0.2,0,0.4,0,0.7,0c0.1,0,0.3,0.2,0.3,0.3
				c0,0-0.1,0.2-0.2,0.3c-0.2,0.1-0.4,0.1-0.5,0.1c-0.2,0.1-0.4,0.1-0.6,0.2c-0.1,0.1-0.1,0.3-0.2,0.4c0.1,0,0.2,0.1,0.3,0.1
				c0.3,0,0.7-0.1,1-0.1c0.1,0,0.3,0.1,0.4,0.2c-0.1,0.1-0.1,0.3-0.2,0.3c-0.3,0.1-0.7,0.3-1,0.3c-0.3,0.1-0.5,0.1-0.5,0.5
				c0,0.4,0,0.8,0,1.1c0,0.1,0,0.3,0,0.4c-0.1,0.3-0.2,0.4-0.4,0.4c-0.2-0.1-0.3-0.4-0.3-0.6c0.1-0.4,0.1-0.7,0.1-1.1c0,0,0,0,0-0.1
				c0-0.4-0.1-0.7-0.5-0.8c-0.1,0-0.3-0.3-0.2-0.4c0-0.2,0.3-0.2,0.4-0.2c0.2,0,0.3,0.1,0.4-0.2c0.1-0.2,0-0.3-0.2-0.4
				c-0.2-0.1-0.3-0.1-0.5-0.2c-0.2-0.1-0.2-0.4,0-0.5c0.2-0.1,0.3-0.1,0.5-0.1c0.2,0,0.2,0,0.2-0.2c0-0.1,0-0.2,0-0.3
				c0-0.3,0-0.4-0.4-0.5c-0.1,0-0.3-0.2-0.3-0.3c0-0.2,0.1-0.2,0.3-0.3c0.1,0,0.3,0,0.3-0.2c0-0.2,0-0.5-0.3-0.5
				c-0.3,0-0.6-0.2-0.9-0.3c-0.1-0.1-0.3-0.2-0.2-0.4c0.1-0.2,0.2-0.3,0.4-0.2c0.2,0,0.4,0.1,0.5,0.1c0.1,0,0.3,0.1,0.3-0.1
				c0-0.2,0.1-0.4-0.2-0.6c-0.2-0.1-0.3-0.2-0.5-0.3c-0.1-0.1-0.2-0.2-0.1-0.3c0.1-0.1,0.2-0.2,0.3-0.2c0.1,0,0.3,0,0.4,0
				C108.3,11.2,108.3,11,108.3,10.8C108.4,10.8,108.4,10.8,108.3,10.8z M109.1,13.8c0,0.3,0,0.3,0.6,0.3c0.1,0,0.2-0.1,0.2-0.2
				c0-0.3-0.1-0.6-0.4-0.6C109.2,13.4,109.1,13.5,109.1,13.8z M109.5,12.8c0.1,0,0.3,0.1,0.4-0.2c0-0.3-0.1-0.4-0.3-0.5
				c-0.3,0-0.5,0.1-0.5,0.4C109,12.8,109.2,12.8,109.5,12.8z"/>
			<path class="st2" d="M91.6,15.3c0.1,0,0.3-0.1,0.4-0.1c0.2,0,0.4,0.1,0.4,0.2c0.1,0.1,0,0.3,0,0.4c0,0.1-0.2,0.2-0.2,0.3
				c-0.3,0.5-0.3,0.5,0.1,0.8c0.1,0.1,0.2,0.3,0.1,0.4c0,0.1-0.2,0.3-0.3,0.3c-0.7,0-1.3,0-2-0.1c-0.1,0-0.3-0.2-0.4-0.4
				c0-0.1,0.1-0.4,0.2-0.4c0.2-0.2,0.2-0.3,0-0.5c-0.4-0.4-0.4-0.5,0-1c-0.1-0.1-0.2-0.1-0.3-0.2c-0.1-0.1-0.2-0.3-0.2-0.4
				c0-0.1,0.2-0.2,0.3-0.2c0.1,0,0.2,0,0.3-0.1c0.1-0.1,0.3-0.2,0.3-0.3c0-0.1-0.1-0.3-0.2-0.4c-0.5-0.2-1-0.4-1.4-0.6
				c-0.3-0.1-0.3-0.3-0.1-0.6c0.3-0.4,0.6-0.8,0.9-1.2c0.1-0.2,0.2-0.4,0.3-0.6c0.1-0.2,0.2-0.4,0.3-0.6c0.2-0.3,0.4-0.3,0.6,0
				c0.4,0.5,0.8,0.8,1.4,1.1c0.2,0.1,0.3,0.3,0.5,0.4c0.2,0.2,0.2,0.4,0,0.6c-0.2,0.2-0.4,0.2-0.6,0c-0.3-0.2-0.6-0.4-0.9-0.6
				c-0.2-0.1-0.4-0.2-0.6,0.2c-0.1,0.2-0.2,0.3-0.3,0.5c-0.1,0.1-0.1,0.3-0.1,0.4c0.2,0.1,0.4,0.2,0.5,0.2c0.2,0,0.4-0.1,0.7-0.2
				c0.2,0,0.4,0,0.6,0c0.1,0,0.3,0.2,0.3,0.3c0,0.1-0.2,0.2-0.3,0.3c-0.1,0.1-0.3,0.2-0.4,0.3c-0.1,0.2,0,0.4,0.3,0.3
				c0.1,0,0.1-0.1,0.2-0.1c0.2,0.1,0.3,0.1,0.5,0.2c-0.1,0.1-0.1,0.3-0.2,0.4c-0.1,0.1-0.3,0.1-0.4,0.2c-0.1,0.1-0.2,0.2-0.3,0.3
				C91.5,15.2,91.5,15.2,91.6,15.3z"/>
			<path class="st2" d="M96.2,16.4c-0.1,0.3-0.2,0.5-0.3,0.7c-0.2,0.3-0.5,0.4-0.8,0.3c-0.2-0.1-0.3-0.3-0.1-0.5
				c0.3-0.6,0.6-1.2,0.4-1.8c-0.1-0.3,0-0.5,0.2-0.7c0.1-0.1,0.1-0.2,0.1-0.3c0-0.1,0-0.2,0-0.2c0.1-0.3,0.4-0.5,0.5-0.5
				c0.2,0.1,0.3,0.4,0.2,0.7c-0.2,0.4,0,0.8,0.1,1.2c0,0.1,0.1,0.1,0.2,0.2c0,0,0.1,0,0.1,0c0-0.1,0-0.3,0-0.4
				c-0.1-0.6-0.2-1.3,0.1-1.9c0,0-0.1-0.2-0.2-0.2c-0.3-0.1-0.6-0.2-0.9-0.3c-0.3-0.1-0.2-0.4-0.2-0.7c0-0.3,0.2-0.4,0.5-0.3
				c0.7,0.2,1.5,0.2,2.3,0.3c0.3,0,0.6,0.1,0.7,0.5c0.1,0.3-0.1,0.6-0.4,0.6c-0.2,0-0.4,0-0.5,0c-0.3,0-0.4,0.1-0.3,0.4
				c0,0.2,0,0.4,0,0.6c0,0.2,0.1,0.3,0.3,0.2c0.1,0,0.1-0.1,0.2-0.1c0.2,0.1,0.4,0.1,0.5,0.2c0.1,0,0,0.3-0.1,0.4
				c-0.2,0.2-0.4,0.3-0.6,0.3c-0.2,0.1-0.3,0.1-0.4,0.4c0,0.2-0.1,0.5-0.1,0.7c0,0.1,0,0.3,0.1,0.3c0.3,0.4,0.7,0.7,1.2,0.8
				c0.2,0.1,0.4,0.2,0.3,0.4c0,0.3-0.3,0.3-0.5,0.2c-0.7-0.1-1.4-0.4-2-0.9C96.7,16.9,96.5,16.7,96.2,16.4z"/>
			<path class="st2" d="M106,8.7c0.5,0.1,0.9-0.1,0.8-0.6c0-0.2-0.1-0.5-0.1-0.7c0-0.1-0.1-0.3,0-0.4c0.1-0.2,0.2-0.5,0.4-0.5
				c0.3-0.1,0.4,0.2,0.5,0.4c0.1,0.4,0.1,0.8,0.2,1.2c0,0.1,0.1,0.3,0.1,0.3c0.2,0,0.4-0.1,0.6-0.2c0,0,0-0.2,0-0.3
				c-0.2-0.4-0.2-0.6,0.1-0.7c0.3-0.1,0.5,0,0.6,0.2c0.3,0.5,0.5,1,0.7,1.6c0.1,0.1-0.1,0.4-0.2,0.5c-0.1,0.1-0.4,0-0.6-0.1
				c-0.3-0.2-0.6-0.2-0.9-0.1c-0.9,0.4-1.8,0.4-2.7,0.6c-0.4,0.1-0.6-0.1-0.5-0.5c0-0.5,0-1,0-1.5c0-0.4,0.1-0.5,0.5-0.5
				c0.5,0,0.7,0.3,0.6,0.6C106.2,8.2,106.1,8.5,106,8.7z"/>
			<path class="st2" d="M95.2,9.5c0-0.5,0-0.9,0-1.4c0-0.3,0.1-0.5,0.4-0.5c0.1,0,0.3,0.1,0.5,0.1c0.1,0,0.2,0.1,0.3,0.1
				c0-0.1,0-0.2,0-0.3c0-0.1-0.1-0.3-0.1-0.4c0-0.2,0-0.4,0.1-0.4c0.1-0.1,0.4-0.2,0.5-0.1c0.4,0.1,0.6,0.5,0.5,0.9
				c-0.1,0.4,0,0.5,0.4,0.5c0.5,0,0.8,0.2,1.1,0.5c0.1,0.1,0.2,0.3,0.2,0.4c-0.1,0.4-0.2,0.7-0.4,1.1c0,0.1-0.3,0.2-0.4,0.2
				c-0.1,0-0.3-0.2-0.3-0.3c0-0.7-0.4-0.8-0.9-0.9c-0.1,0-0.1,0-0.2,0c-0.7-0.2-0.8-0.1-1,0.6c0,0.1,0,0.1,0,0.2
				c-0.1,0.4-0.3,0.5-0.6,0.4C95.1,10,95.1,9.7,95.2,9.5z"/>
			<path class="st2" d="M103.9,14.7c-0.3,0.2-0.5,0.5-0.8,0.6c-0.2,0.1-0.4,0.1-0.6,0.2c-0.1,0-0.2-0.1-0.2-0.1c0-0.1,0-0.2,0.1-0.2
				c0.6-0.5,1.2-1.1,1.7-1.8c0.2-0.2,0.3-0.5,0.5-0.8c0.1-0.1,0.2-0.2,0.3-0.2c0.1,0,0.2,0.2,0.3,0.3c0,0.4-0.1,0.7-0.3,0.9
				c-0.1,0.2-0.1,0.3-0.1,0.5c0,0.9,0,1.7,0,2.6c0,0.2-0.1,0.4-0.3,0.4c-0.2,0-0.4-0.2-0.4-0.4c0-0.3,0-0.7,0-1
				C103.9,15.4,103.9,15.1,103.9,14.7z"/>
			<path class="st2" d="M102.2,13.5c-0.1-0.1-0.2-0.1-0.2-0.2c0-0.1,0-0.3,0.1-0.4c0.2-0.2,0.5-0.4,0.7-0.7c0.2-0.2,0.3-0.5,0.5-0.7
				c0.1-0.1,0.1-0.2,0.2-0.2c0.2,0,0.4,0.1,0.6,0.2c0,0,0.1,0.2,0,0.2c-0.5,0.7-1,1.3-1.8,1.7C102.4,13.5,102.3,13.5,102.2,13.5z"/>
		</g>
	</g>
	<g>
		<path class="st2" d="M112,98.7c-0.1,0.7-0.2,1.4-0.7,2c-0.1,0.1-0.1,0.3,0,0.4c0.6,0.7,0.7,1.8,0.1,2.5c-0.5,0.7-1.5,0.8-2.1,0.2
			c-0.6-0.6-0.9-1.3-0.4-2.3c0.1-0.2,0-0.3-0.2-0.4c-0.6-0.4-1-1-0.9-1.8c0.1-0.9,0.5-1.6,1.1-2.2c0.6-0.6,1.6-0.7,2.2-0.3
			C111.7,97.3,112.1,97.8,112,98.7z M111.1,98.7c0-0.4-0.3-0.9-0.6-1.1c-0.3-0.1-0.8,0-0.9,0.3c-0.4,0.6-0.7,1.2-0.5,2
			c0.1,0.5,0.8,0.8,1.2,0.5C110.7,99.9,111,99.4,111.1,98.7z M111,102.3c-0.1-0.4-0.3-0.7-0.6-0.7c-0.2,0-0.4,0.1-0.5,0.2
			c-0.4,0.4-0.3,1.1,0.1,1.5c0.2,0.1,0.4,0.2,0.5,0C110.7,103,110.9,102.6,111,102.3z"/>
		<path class="st2" d="M162.6,100.5c-0.1,0.5-0.1,1-0.1,1.4c0,0,0,0.1,0,0.1c0.2,1-0.4,1.6-1.1,2.2c-0.6,0.5-2,0.3-2.6-0.3
			c-0.6-0.6-0.8-1.3-0.8-2.1c0-1.4,0.1-2.9,0.7-4.2c0.2-0.5,0.6-0.7,1-0.9c0.1,0,0.1-0.1,0.2,0c0.5,0.2,1,0.3,1.5,0.5
			c0.5,0.3,0.8,0.7,0.8,1.3c0,0.2,0.2,0.5,0.3,0.7C162.5,99.6,162.5,100.1,162.6,100.5z M161.6,100.8c0.1-0.9-0.1-1.7-0.5-2.6
			c-0.2-0.3-0.4-0.6-0.7-0.6c-0.6-0.1-0.8-0.2-1,0.5c-0.1,0.3-0.2,0.7-0.2,1c-0.3,1.1-0.3,2.3,0.1,3.4c0.2,0.6,0.7,1,1.1,0.9
			c0.4,0,0.6-0.2,0.8-0.5C161.6,102.3,161.7,101.6,161.6,100.8z"/>
		<path class="st2" d="M97.4,100.4c0,0.7,0.1,1.4,0,2c-0.1,0.5-0.4,1-0.8,1.4c-0.8,1-2.7,0.9-3.3-0.3c-0.3-0.6-0.5-1.1-0.5-1.8
			c0-1.1,0-2.2,0.4-3.3c0.2-0.6,0.3-1.2,0.9-1.6c0.3-0.2,0.6-0.3,1-0.1c0.6,0.2,1.3,0.4,1.7,1c0.1,0.1,0.1,0.1,0.2,0.2
			C97,98.8,97.7,99.6,97.4,100.4z M96.5,100.9c0-0.9-0.1-1.7-0.5-2.5c-0.2-0.3-0.4-0.6-0.7-0.7c-0.6-0.3-0.9-0.1-1.1,0.5
			c-0.1,0.2-0.1,0.5-0.1,0.7c-0.3,0.8-0.3,1.7-0.3,2.6c0,0.6,0.1,1.2,0.5,1.7c0.5,0.6,1.2,0.6,1.6,0
			C96.5,102.4,96.6,101.6,96.5,100.9z"/>
		<path class="st2" d="M251.4,96.8c0.4,0,0.8,0,1.1,0c0.2,0,0.5,0.2,0.7,0.4c0.3,0.3,0,0.7-0.4,0.7c-0.1,0-0.2,0-0.3,0
			c-0.5-0.4-1.1-0.2-1.7-0.2c-0.1,0-0.2,0.1-0.3,0.2c-0.1,0.3-0.1,0.7-0.1,1c0,0.1,0.1,0.2,0.2,0.2c0.2,0,0.3,0,0.5,0
			c1.9-0.1,2.6,2.1,2,3.3c-0.3,0.6-0.7,1.2-1.3,1.4c-1,0.3-1.6,0.4-2.2-0.5c-0.2-0.2-0.3-0.4,0-0.7c0.2-0.2,0.4-0.1,0.6,0.1
			c0,0,0.1,0,0.1,0.1c0.4,0.5,0.8,0.5,1.3,0.1c0.8-0.6,1-1.5,0.4-2.3c-0.3-0.4-0.8-0.6-1.2-0.4c-0.3,0.1-0.5,0.2-0.8,0.3
			c-0.3,0.1-0.6-0.1-0.6-0.5c0.1-0.9,0.3-1.8,0.4-2.8c0-0.3,0.2-0.4,0.4-0.4C250.7,96.8,251,96.7,251.4,96.8
			C251.4,96.7,251.4,96.7,251.4,96.8z"/>
		<path class="st2" d="M88.4,103.5c-0.6,0-1.2-0.1-1.8-0.5c-0.3-0.2-0.4-0.4-0.2-0.7c0.4-0.6,0.8-1.1,1.1-1.7
			c0.3-0.4,0.5-0.7,0.8-1.1c0.2-0.3,0.4-0.6,0.2-0.9c-0.1-0.2-0.5-0.3-0.7-0.4c-0.5-0.1-0.7,0.3-0.7,0.8c0,0.2,0,0.4,0,0.5
			c-0.1,0.1-0.3,0.3-0.5,0.3c-0.2,0-0.4-0.2-0.5-0.4c-0.2-1,0-1.8,1-2.2c1.1-0.4,2.4,0.2,2.5,1.6c0,0.3-0.2,0.7-0.4,1
			c-0.5,0.7-1.1,1.4-1.6,2.2c-0.2,0.2-0.2,0.3,0.1,0.4c0.5,0.1,0.9,0.1,1.4,0.2c0.2,0,0.5,0,0.5,0.4c0,0.2-0.3,0.5-0.5,0.6
			C88.9,103.5,88.7,103.5,88.4,103.5z"/>
		<path class="st2" d="M226.6,103.6c-0.5-0.1-1-0.2-1.5-0.4c-0.7-0.2-0.8-0.6-0.4-1.3c0.4-0.5,0.7-1,1.1-1.5
			c0.3-0.4,0.6-0.9,0.8-1.4c0.1-0.2,0.1-0.4-0.1-0.6c-0.3-0.3-0.6-0.4-1-0.2c-0.2,0.1-0.3,0.3-0.3,0.6c0,0.1,0,0.3,0,0.5
			c0,0.3-0.2,0.5-0.5,0.6c-0.3,0-0.6-0.2-0.6-0.5c0-0.3,0-0.7,0-1c0.2-1,1.4-1.4,2.3-1.1c0.5,0.2,0.9,0.5,1.1,1
			c0.2,0.4,0.2,0.8,0,1.2c-0.6,0.9-1.2,1.7-1.8,2.5c-0.1,0.1-0.1,0.2-0.2,0.3c0.1,0.1,0.2,0.1,0.3,0.2c0.4,0.1,0.9,0.1,1.3,0.2
			c0.2,0,0.5,0,0.5,0.3c0,0.2-0.2,0.5-0.5,0.6C227.1,103.5,226.9,103.5,226.6,103.6C226.6,103.5,226.6,103.6,226.6,103.6z"/>
		<path class="st2" d="M142,105.4c-0.5,0-0.7-0.4-0.5-0.7c0.5-1.1,0.9-2.2,1.4-3.2c0.2-0.5,0.6-0.9,0.8-1.4c0.3-0.6,0.5-1.3,0.8-2
			c0.3-0.7,0.7-1.4,1-2c0.1-0.3,0.7-0.3,0.9-0.1c0.2,0.2,0.2,0.4,0,0.6c-0.3,0.2-0.4,0.4-0.5,0.7c-0.4,1.1-0.9,2.2-1.4,3.2
			c-0.6,1.3-1.2,2.6-1.8,3.9c-0.1,0.1-0.1,0.3-0.1,0.5C142.5,105.2,142.2,105.4,142,105.4z"/>
		<path class="st2" d="M121,95.8c0.2,0.2,0.5,0.3,0.5,0.4c0,0.2-0.1,0.4-0.3,0.5c-0.1,0.2-0.2,0.3-0.3,0.5c-0.2,0.6-0.5,1.2-0.7,1.7
			c-0.3,0.6-0.6,1.3-0.9,1.9c-0.1,0.1-0.1,0.3-0.2,0.4c-0.7,0.9-0.9,2.1-1.4,3.1c-0.1,0.1-0.1,0.3-0.1,0.5c-0.1,0.2-0.2,0.4-0.3,0.5
			c-0.2,0.2-0.4,0.1-0.6,0c-0.2-0.2-0.2-0.4-0.1-0.6c0.4-1,0.8-2.1,1.3-3.1c0.3-0.7,0.8-1.4,1.1-2.1c0.3-0.6,0.5-1.3,0.8-1.9
			c0.2-0.5,0.5-1.1,0.8-1.6C120.6,96,120.8,95.9,121,95.8z"/>
		<path class="st2" d="M127.4,98.6c-0.2,0-0.4,0.1-0.6,0.1c-0.1,0-0.3-0.1-0.4-0.2c0-0.1,0-0.3,0.1-0.4c0.2-0.3,0.5-0.5,0.7-0.8
			c0.2-0.2,0.5-0.3,0.7-0.1c0.2,0.1,0.4,0.4,0.4,0.6c0,0.3,0,0.7-0.1,1.1c-0.1,0.9-0.1,1.8-0.2,2.7c0,0.5,0,0.7,0.6,0.8
			c0.1,0,0.3,0,0.4,0c0.1,0,0.4,0.1,0.4,0.2c0,0.1-0.1,0.3-0.2,0.4c-0.5,0.4-1.1,0.3-1.6,0.2c-0.4-0.1-0.9-0.3-1.3-0.5
			c-0.1-0.1-0.2-0.3-0.3-0.4c0.2-0.1,0.4-0.3,0.6-0.3c0.6,0,0.6,0,0.6-0.6c0-0.8,0.1-1.7,0.1-2.5C127.4,98.8,127.4,98.7,127.4,98.6z
			"/>
		<path class="st2" d="M218.7,98.6c-0.3,0-0.5,0.1-0.6,0.1c-0.3,0-0.4-0.3-0.2-0.5c0.2-0.3,0.5-0.5,0.8-0.8c0.2-0.2,0.5-0.3,0.7-0.2
			c0.3,0.1,0.4,0.3,0.4,0.6c0,0.6-0.1,1.3-0.1,1.9c0,0.7-0.1,1.5-0.1,2.2c0,0.1,0.1,0.3,0.3,0.3c0.2,0.1,0.5,0.1,0.7,0.1
			c0.1,0,0.3,0.1,0.3,0.2c0,0.1-0.1,0.3-0.2,0.4c-0.5,0.4-1.1,0.4-1.7,0.2c-0.5-0.1-0.9-0.4-1.3-0.6c-0.1-0.1-0.2-0.3-0.2-0.4
			c0.1-0.1,0.3-0.2,0.4-0.3c0,0,0.1,0,0.1,0c0.6,0,0.6,0,0.6-0.6c0-0.8,0.1-1.6,0.1-2.4C218.7,98.8,218.7,98.7,218.7,98.6z"/>
		<path class="st2" d="M152.4,98.6c-0.2,0-0.4,0.1-0.6,0.1c-0.3,0-0.4-0.3-0.2-0.5c0.2-0.3,0.5-0.5,0.7-0.8c0.2-0.2,0.5-0.3,0.8-0.2
			c0.3,0.1,0.4,0.3,0.4,0.7c-0.1,0.6-0.1,1.3-0.2,1.9c0,0.7-0.1,1.5-0.1,2.2c0,0.1,0.1,0.3,0.3,0.3c0.2,0.1,0.5,0.1,0.7,0.1
			c0.1,0,0.4,0.1,0.4,0.2c0,0.1-0.1,0.3-0.2,0.4c-0.5,0.4-1,0.3-1.6,0.2c-0.5-0.1-0.9-0.3-1.3-0.6c-0.1-0.1-0.2-0.3-0.3-0.5
			c0.2-0.1,0.4-0.2,0.6-0.3c0.1,0,0.1,0,0.2,0c0.3,0.1,0.4-0.1,0.4-0.3c0-0.5,0.1-1,0.1-1.5c0-0.4,0-0.8,0-1.2
			C152.5,98.8,152.4,98.7,152.4,98.6z"/>
		<path class="st2" d="M243.8,98.6c-0.2,0-0.4,0.1-0.6,0.1c-0.3,0-0.4-0.3-0.2-0.5c0.3-0.3,0.5-0.6,0.8-0.8c0.2-0.1,0.5-0.2,0.7-0.1
			c0.2,0.1,0.4,0.4,0.4,0.6c0,0.7-0.1,1.3-0.1,2c0,0.7-0.1,1.5-0.1,2.2c0,0.1,0.1,0.3,0.3,0.3c0.2,0.1,0.5,0.1,0.7,0.1
			c0.1,0,0.3,0.1,0.3,0.2c0,0.1-0.1,0.3-0.2,0.4c-0.5,0.4-1.1,0.3-1.7,0.2c-0.4-0.1-0.8-0.3-1.2-0.6c-0.1-0.1-0.2-0.3-0.3-0.4
			c0.2-0.1,0.3-0.3,0.5-0.3c0.6-0.1,0.6,0,0.7-0.7c0-0.8,0.1-1.6,0.1-2.4C243.8,98.8,243.8,98.7,243.8,98.6z"/>
		<path class="st2" d="M102,98.6c-0.3,0-0.5,0.1-0.7,0.1c-0.3,0-0.4-0.3-0.2-0.5c0.3-0.3,0.5-0.6,0.9-0.9c0.2-0.1,0.5-0.2,0.6-0.1
			c0.2,0.1,0.3,0.4,0.4,0.6c0,0.3-0.1,0.6-0.1,0.9c-0.1,1.1-0.1,2.1-0.2,3.2c0,0.3,0.1,0.5,0.4,0.5c0.2,0.1,0.5,0.1,0.7,0.1
			c0.1,0,0.3,0.1,0.3,0.2c0,0.1,0,0.3-0.1,0.3c-0.2,0.1-0.4,0.3-0.6,0.3c-0.9,0.1-1.8,0-2.5-0.6c-0.1-0.1-0.2-0.3-0.2-0.4
			c0.1-0.1,0.2-0.2,0.4-0.3c0.1,0,0.3,0,0.5,0c0.1,0,0.3-0.1,0.3-0.2C101.9,100.7,101.9,99.7,102,98.6z"/>
		<path class="st2" d="M134.5,98.6c-0.2,0-0.4,0.1-0.6,0.1c-0.1,0-0.3-0.1-0.3-0.2c0-0.1,0-0.3,0.1-0.3c0.3-0.3,0.5-0.6,0.8-0.8
			c0.2-0.1,0.5-0.2,0.7-0.1c0.2,0.1,0.3,0.3,0.4,0.6c0,0.3-0.1,0.6-0.1,0.9c-0.1,1-0.1,2.1-0.2,3.1c0,0.3,0.1,0.5,0.4,0.6
			c0.2,0,0.4,0,0.6,0.1c0.1,0,0.3,0.1,0.3,0.2c0,0.1,0,0.3-0.1,0.3c-0.2,0.1-0.4,0.3-0.6,0.3c-0.9,0.1-1.7,0-2.4-0.5
			c-0.2-0.1-0.2-0.3-0.3-0.5c0.2-0.1,0.4-0.3,0.6-0.3c0.6,0,0.5,0,0.6-0.6c0-0.9,0.1-1.7,0.1-2.6C134.6,98.8,134.5,98.7,134.5,98.6z
			"/>
		<path class="st2" d="M203.3,98.7c-0.1,0.7-0.2,1.4-0.7,2c-0.1,0.1-0.1,0.3,0,0.4c0.6,0.7,0.7,1.8,0.1,2.5
			c-0.5,0.7-1.5,0.8-2.1,0.2c-0.6-0.6-0.9-1.3-0.4-2.3c0.1-0.2,0-0.3-0.2-0.4c-0.6-0.4-1-1-0.9-1.8c0.1-0.9,0.5-1.6,1.1-2.2
			c0.6-0.6,1.6-0.7,2.2-0.3C203,97.3,203.4,97.8,203.3,98.7z M202.3,98.7c0-0.4-0.3-0.9-0.6-1.1c-0.3-0.1-0.8,0-0.9,0.3
			c-0.4,0.6-0.7,1.2-0.5,2c0.1,0.5,0.8,0.8,1.2,0.5C202,99.9,202.3,99.4,202.3,98.7z M202.3,102.3c-0.1-0.4-0.3-0.7-0.6-0.7
			c-0.2,0-0.4,0.1-0.5,0.2c-0.4,0.4-0.3,1.1,0.1,1.5c0.2,0.1,0.4,0.2,0.5,0C202,103,202.2,102.6,202.3,102.3z"/>
		<path class="st2" d="M188.7,100.4c0,0.7,0.1,1.4,0,2c-0.1,0.5-0.4,1-0.8,1.4c-0.8,1-2.7,0.9-3.3-0.3c-0.3-0.6-0.5-1.1-0.5-1.8
			c0-1.1,0-2.2,0.4-3.3c0.2-0.6,0.3-1.2,0.9-1.6c0.3-0.2,0.6-0.3,1-0.1c0.6,0.2,1.3,0.4,1.7,1c0.1,0.1,0.1,0.1,0.2,0.2
			C188.3,98.8,189,99.6,188.7,100.4z M187.8,100.9c0-0.9-0.1-1.7-0.5-2.5c-0.2-0.3-0.4-0.6-0.7-0.7c-0.6-0.3-0.9-0.1-1.1,0.5
			c-0.1,0.2-0.1,0.5-0.1,0.7c-0.3,0.8-0.3,1.7-0.3,2.6c0,0.6,0.1,1.2,0.5,1.7c0.5,0.6,1.2,0.6,1.6,0
			C187.8,102.4,187.9,101.6,187.8,100.9z"/>
		<path class="st2" d="M179.7,103.5c-0.6,0-1.2-0.1-1.8-0.5c-0.3-0.2-0.4-0.4-0.2-0.7c0.4-0.6,0.8-1.1,1.1-1.7
			c0.3-0.4,0.5-0.7,0.8-1.1c0.2-0.3,0.4-0.6,0.2-0.9c-0.1-0.2-0.5-0.3-0.7-0.4c-0.5-0.1-0.7,0.3-0.7,0.8c0,0.2,0,0.4,0,0.5
			c-0.1,0.1-0.3,0.3-0.5,0.3c-0.2,0-0.4-0.2-0.5-0.4c-0.2-1,0-1.8,1-2.2c1.1-0.4,2.4,0.2,2.5,1.6c0,0.3-0.2,0.7-0.4,1
			c-0.5,0.7-1.1,1.4-1.6,2.2c-0.2,0.2-0.2,0.3,0.1,0.4c0.5,0.1,0.9,0.1,1.4,0.2c0.2,0,0.5,0,0.5,0.4c0,0.2-0.3,0.5-0.5,0.6
			C180.2,103.5,179.9,103.5,179.7,103.5z"/>
		<path class="st2" d="M233.3,105.4c-0.5,0-0.7-0.4-0.5-0.7c0.5-1.1,0.9-2.2,1.4-3.2c0.2-0.5,0.6-0.9,0.8-1.4c0.3-0.6,0.5-1.3,0.8-2
			c0.3-0.7,0.7-1.4,1-2c0.1-0.3,0.7-0.3,0.9-0.1c0.2,0.2,0.2,0.4,0,0.6c-0.3,0.2-0.4,0.4-0.5,0.7c-0.4,1.1-0.9,2.2-1.4,3.2
			c-0.6,1.3-1.2,2.6-1.8,3.9c-0.1,0.1-0.1,0.3-0.1,0.5C233.7,105.2,233.5,105.4,233.3,105.4z"/>
		<path class="st2" d="M212.3,95.8c0.2,0.2,0.5,0.3,0.5,0.4c0,0.2-0.1,0.4-0.3,0.5c-0.1,0.2-0.2,0.3-0.3,0.5
			c-0.2,0.6-0.5,1.2-0.7,1.7c-0.3,0.6-0.6,1.3-0.9,1.9c-0.1,0.1-0.1,0.3-0.2,0.4c-0.7,0.9-0.9,2.1-1.4,3.1c-0.1,0.1-0.1,0.3-0.1,0.5
			c-0.1,0.2-0.2,0.4-0.3,0.5c-0.2,0.2-0.4,0.1-0.6,0c-0.2-0.2-0.2-0.4-0.1-0.6c0.4-1,0.8-2.1,1.3-3.1c0.3-0.7,0.8-1.4,1.1-2.1
			c0.3-0.6,0.5-1.3,0.8-1.9c0.2-0.5,0.5-1.1,0.8-1.6C211.9,96,212.1,95.9,212.3,95.8z"/>
		<path class="st2" d="M193.3,98.6c-0.3,0-0.5,0.1-0.7,0.1c-0.3,0-0.4-0.3-0.2-0.5c0.3-0.3,0.5-0.6,0.9-0.9c0.2-0.1,0.5-0.2,0.6-0.1
			c0.2,0.1,0.3,0.4,0.4,0.6c0,0.3-0.1,0.6-0.1,0.9c-0.1,1.1-0.1,2.1-0.2,3.2c0,0.3,0.1,0.5,0.4,0.5c0.2,0.1,0.5,0.1,0.7,0.1
			c0.1,0,0.3,0.1,0.3,0.2c0,0.1,0,0.3-0.1,0.3c-0.2,0.1-0.4,0.3-0.6,0.3c-0.9,0.1-1.8,0-2.5-0.6c-0.1-0.1-0.2-0.3-0.2-0.4
			c0.1-0.1,0.2-0.2,0.4-0.3c0.1,0,0.3,0,0.5,0c0.1,0,0.3-0.1,0.3-0.2C193.2,100.7,193.2,99.7,193.3,98.6z"/>
		<path class="st2" d="M168.2,99.1c0.7-0.1,1.1,0.3,1.6,0.7c0.4,0.3,0.8,0.5,1.2,0.7c0.4,0.2,0.7,0,0.7-0.5c0-0.2-0.1-0.4,0.2-0.5
			c0.3-0.1,0.5,0,0.7,0.3c0.2,0.2,0.3,0.5,0.1,0.8c-0.3,0.7-0.9,1-1.8,0.9c-0.7-0.1-1.2-0.5-1.8-0.9c-0.3-0.2-0.6-0.4-0.9-0.6
			c-0.2-0.1-0.4-0.1-0.5,0.1c-0.1,0.2-0.3,0.4-0.2,0.7c0.1,0.1,0.2,0.2,0.2,0.3c0,0.1,0,0.3-0.1,0.4c-0.1,0.1-0.3,0.1-0.4,0.1
			c-0.3-0.1-0.5-0.3-0.5-0.6c0-0.2,0-0.4-0.1-0.6c-0.1-0.8,0.5-1.3,1.3-1.4C168.1,99.1,168.1,99.1,168.2,99.1z"/>
	</g>
	<g>
		<g>
			<path class="st2" d="M46.2,50.9c-0.1,0.2-0.2,0.5-0.2,0.7c-0.2,1.8-0.7,3.5-1.8,5.1c-0.6,0.8-1,1.6-1.5,2.4
				c-0.2,0.3-0.7,0.7-1,0.7c-0.4,0.1-0.8-0.2-1.1-0.4c-0.1-0.1,0-0.7,0.2-0.9c1.8-2.1,2.2-4.8,3-7.3c0.1-0.2-0.2-0.7-0.4-0.8
				c-1.3-0.9-1.7-2-1.6-3.5c0.2-2.2,0.2-4.5,0.2-6.8c0-0.5,0-1.1,0-1.6c0-0.9,0-1.9-0.2-2.8c-0.1-0.7,0-1.1,0.7-1
				c0.6,0.1,1.2,0.2,1.9,0.4c0.5,0.1,1,0.2,1.5,0.3c1.4,0.2,2.8,0.3,4.2,0.4c0.6,0.1,1.1,1,1.1,1.8c0,2.8,0,5.6,0,8.5
				c0,0.9,0.3,1.8,1,2.5c0.6,0.6,0.1,1.6-0.9,1.9c-0.4,0.1-0.8,0.1-1.2,0.2c-0.6,0.1-0.9,0.5-0.9,1.1c0.1,1.7,0.1,3.4,0.3,5.1
				c0.1,1,1,1.9,1.8,2c1.1,0.1,2.8-0.7,3-1.6c0.1-0.5-0.1-1-0.2-1.5c-0.1-0.5-0.7-1.1,0-1.6c0.7-0.4,1.2,0.1,1.6,0.6
				c1,0.8,1.3,2,1.2,3.2c0,0.3-0.2,0.6-0.4,0.9c-1.1,1.2-2.3,2.3-4.2,2c-0.9-0.1-1.9-0.1-2.8-0.4c-1.7-0.5-2.2-1.9-2.4-3.5
				c-0.2-1.5-0.1-3-0.2-4.5c0-0.5-0.2-0.9-0.2-1.4C46.4,50.9,46.3,50.9,46.2,50.9z M46.5,48.5C46.5,48.5,46.5,48.5,46.5,48.5
				c0.5,0,1.1,0,1.6,0c0.2,0,0.7-0.2,0.7-0.3c0-0.5,0-1.1-0.2-1.5c-0.1-0.1-0.7-0.1-1.1,0c-0.8,0-1.6,0.2-2.3,0.1
				c-0.6-0.1-0.9,0.1-1,0.6c-0.1,0.6-0.1,1.1,0.7,1.1C45.4,48.5,46,48.5,46.5,48.5z M46.5,44.4C46.5,44.4,46.5,44.4,46.5,44.4
				c0.2,0,0.4,0,0.5,0c0.2,0,0.4,0,0.6,0c0.7,0,0.9-0.4,0.7-1.1c-0.2-0.6-0.5-0.9-1.2-0.9c-0.7,0-1.3-0.3-2-0.3
				c-0.2,0-0.6,0.2-0.6,0.4c-0.4,1.5,0,1.9,1.5,1.9C46.2,44.4,46.4,44.4,46.5,44.4z M47.5,40.2c0.6,0.1,0.8-0.2,0.8-0.8
				c-0.1-1.1-0.6-1.6-1.7-1.5c-0.4,0-0.8,0-1.1,0c-0.4,0-0.9-0.2-1,0.4c-0.1,0.5-0.1,1.1,0.6,1.3C45.8,39.9,46.6,40.1,47.5,40.2z"/>
		</g>
		<g>
			<linearGradient id="SVGID_1_" gradientUnits="userSpaceOnUse" x1="294.3517" y1="48.9862" x2="307.5582" y2="48.9862">
				<stop  offset="0" style="stop-color:#FFC369"/>
				<stop  offset="0.1139" style="stop-color:#FFCC78"/>
				<stop  offset="0.3823" style="stop-color:#FFDD96"/>
				<stop  offset="0.5341" style="stop-color:#FFE4A1"/>
				<stop  offset="0.7264" style="stop-color:#F6D189"/>
				<stop  offset="1" style="stop-color:#E8B160"/>
			</linearGradient>
			<path class="st3" d="M302.4,56.1c0.7,0.8,1.2,1.6,1.9,2.2c0.8,0.8,1.7,1.5,2.5,2.3c0.4,0.4,1.2,0.6,0.7,1.5
				c-0.5,0.7-1.6,1.1-2.3,0.6c-1-0.7-2-1.4-2.9-2.1c-0.3-0.2-0.5-0.4-0.9-0.8c-0.3,1.2-0.6,2.3-0.8,3.3c-0.2,0.7-0.3,1.5-0.6,2.2
				c-0.2,0.5-0.6,1-1,1.2c-0.4,0.2-1.1,0.2-1.5,0c-0.3-0.1-0.5-0.8-0.4-1.2c0.4-2.4,0.8-4.8,1.3-7.2c0.2-1-0.7-2.5-1.7-2.9
				c-1.4-0.6-1.4-0.9-1.3-2.3c0.1-2.7,0.1-5.3,0.1-8c0-1.8-0.1-3.6-0.1-5.3c0-1,0.4-1.9,1.4-2.3c1-0.4,0.7-1.4,0.8-2.1
				c0-0.2-0.9-0.6-1.4-0.6c-0.8-0.1-1.5-0.2-1.6-1.1c-0.1-0.9,0.6-1.3,1.2-1.4c1.1-0.2,2.2-0.3,3.2-0.4c1.5-0.2,3-0.4,4.5-0.5
				c0.7,0,1.4,0.3,2.1,0.6c1,0.6,0.9,1.7-0.1,2.1c-1,0.4-2,0.6-3.1,0.7c-1.3,0.1-1.6,0.4-1.7,1.7c-0.1,2.4-0.7,2.5,2.2,2.5
				c1.4,0,2.4,0.8,2.5,2.2c0.2,4.2,0.4,8.4,0.5,12.6c0,1.3-1.1,2.2-2.4,2.4C303,55.9,302.8,56,302.4,56.1z M300.6,53.1
				c0.5,0,0.8,0,0.9-0.1c0.3-0.5,0.6-1.1,0.9-1.6c-0.4-0.1-0.8-0.3-1.2-0.3c-0.6-0.1-1.2-0.1-1.7,0c-0.3,0-0.7,0.2-1,0.2
				c0.1,0.4,0.1,0.9,0.4,1C299.5,52.7,300.2,52.9,300.6,53.1z M300.9,41.4c-1.7,0-2.2,0.4-2.4,1.7c-0.1,0.7,0.1,1,0.8,0.7
				c0.4-0.2,0.9-0.3,1.3-0.5c0.6-0.1,1.2-0.3,1-1C301.6,41.9,301.1,41.6,300.9,41.4z M300.1,48c0,0,0,0.1,0,0.1
				c0.5-0.1,1.1-0.2,1.5-0.4c0.3-0.2,0.3-0.8,0.5-1.2c-0.4-0.1-0.8-0.2-1.1-0.2c-0.6,0.1-1.1,0.3-1.6,0.5c-0.3,0.1-0.6,0.3-0.8,0.5
				c0.3,0.2,0.6,0.4,0.9,0.6C299.6,48.1,299.9,48,300.1,48z"/>
			<linearGradient id="SVGID_2_" gradientUnits="userSpaceOnUse" x1="277.7286" y1="47.1972" x2="291.98" y2="47.1972">
				<stop  offset="0" style="stop-color:#FFC369"/>
				<stop  offset="0.1139" style="stop-color:#FFCC78"/>
				<stop  offset="0.3823" style="stop-color:#FFDD96"/>
				<stop  offset="0.5341" style="stop-color:#FFE4A1"/>
				<stop  offset="0.7264" style="stop-color:#F6D189"/>
				<stop  offset="1" style="stop-color:#E8B160"/>
			</linearGradient>
			<path class="st4" d="M286.1,53.4c0.3,1.1,0.6,2.2,0.8,3.3c0.2,1,0.3,2.1,0.4,3.1c0,1-0.5,1.5-1.6,1.5c-1.2,0-2.3-0.2-3-1.3
				c-0.5-0.7-0.6-1.3,0.4-1.8c0.3-0.1,0.6-0.5,0.6-0.6c-0.1-1-0.4-2-0.6-3c-0.1,0-0.2,0-0.3,0c-0.4,0.6-0.8,1.3-1.3,1.9
				c-1,1.2-2,1.8-2.6,1.2c-0.9-0.9-0.1-1.7,0.3-2.6c0.5-1.3,1-2.5,1.5-3.8c0.2-0.6,0-0.9-0.6-1.1c-1.3-0.4-1.4-0.9-1.2-2.2
				c0.3-2.2,0.3-4.4,0.4-6.7c0-0.5,0-1.1,0.1-1.6c0.1-0.7-0.1-1.2-0.9-1.3c-0.8-0.1-0.9-0.6-0.6-1.2c0.7-1.3,1.3-2.6,2.1-3.8
				c0.5-0.7,3.1-0.8,3.6-0.1c0.5,0.6,0.3,1.1-0.2,1.5c-0.3,0.3-0.8,0.4-1.1,0.8c-0.3,0.4-0.6,0.9-0.4,1.3c0.1,0.4,0.7,0.7,1.1,0.8
				c0.6,0.1,1.2,0,1.9,0.1c1.7,0,2.7,0.8,2.9,2.5c0.2,1.5,0.1,3,0.2,4.5c0,0.4,0.2,0.9,0.5,1.2c1.2,0.9,1.2,1.9,0.1,2.7
				c-1.3,0.9-1.3,1-0.3,2c0.9,0.9,2,1.5,2.9,2.2c0.3,0.3,0.8,0.8,0.7,1c-0.2,0.4-0.7,0.9-1.1,1c-1.4,0.3-2.6-0.4-3.7-1.1
				c-0.3-0.2-0.5-0.5-0.8-0.7C286.3,53.3,286.2,53.4,286.1,53.4z M282.3,47.1c0.7-0.2,1.4-0.3,2-0.7c0.3-0.1,0.5-0.7,0.4-1
				c-0.1-0.3-0.5-0.7-0.8-0.7C282.4,44.6,281.7,45.4,282.3,47.1z M283.3,40.3c-0.5,0.4-0.8,0.7-1.1,1c0.4,0.2,0.7,0.7,1.1,0.7
				c0.4,0,0.7-0.4,1.1-0.6C284.1,41.1,283.8,40.8,283.3,40.3z"/>
			<linearGradient id="SVGID_3_" gradientUnits="userSpaceOnUse" x1="269.5492" y1="36.7972" x2="288.6326" y2="36.7972">
				<stop  offset="0" style="stop-color:#FFC369"/>
				<stop  offset="0.1139" style="stop-color:#FFCC78"/>
				<stop  offset="0.3823" style="stop-color:#FFDD96"/>
				<stop  offset="0.5341" style="stop-color:#FFE4A1"/>
				<stop  offset="0.7264" style="stop-color:#F6D189"/>
				<stop  offset="1" style="stop-color:#E8B160"/>
			</linearGradient>
			<path class="st5" d="M286.2,31.8c-2.5,0-5,0-7.6,0c-0.7,0-0.7,0.4-0.8,1c-0.8,4.5-2.1,8.8-5.3,12.2c-0.4,0.4-0.8,0.9-1.3,0.9
				c-0.5,0.1-1.1-0.2-1.5-0.5c-0.2-0.1,0-0.9,0.3-1.2c1.6-1.8,2.6-4.1,3.4-6.4c0.7-2.1,1-4.4,1.4-6.6c0.1-0.7-0.2-1.4-0.2-2
				c0-1.3,0.4-1.7,1.6-1.5c1.8,0.3,3.5,0.8,5.3,1.1c1,0.2,2.1,0,3.2,0c0.9-0.1,1.8-0.4,2.6-0.2c0.6,0.1,1.3,0.7,1.5,1.3
				c0.3,0.6-0.8,1.7-1.5,1.9c-0.3,0-0.6,0-0.9,0C286.2,31.7,286.2,31.8,286.2,31.8z"/>
		</g>
		<g>
			<linearGradient id="SVGID_4_" gradientUnits="userSpaceOnUse" x1="148.9635" y1="38.6326" x2="164.7658" y2="38.6326">
				<stop  offset="0" style="stop-color:#FFC369"/>
				<stop  offset="0.1139" style="stop-color:#FFCC78"/>
				<stop  offset="0.3823" style="stop-color:#FFDD96"/>
				<stop  offset="0.5341" style="stop-color:#FFE4A1"/>
				<stop  offset="0.7264" style="stop-color:#F6D189"/>
				<stop  offset="1" style="stop-color:#E8B160"/>
			</linearGradient>
			<path class="st6" d="M153.7,34.9c0.1-0.8,0.1-1.6,0.3-2.4c0.2-0.9-0.2-1.3-1-1.5c-1.1-0.3-2.1-0.5-3.1-0.9
				c-0.4-0.2-0.7-0.8-0.8-1.2c0-0.1,0.6-0.5,1-0.7c1.6-0.9,3.2-0.4,4.8,0c2.6,0.6,5.3,0.8,7.9,0.7c0.5,0,1.1,0.3,1.6,0.6
				c0.3,0.2,0.6,0.8,0.5,1.2c-0.1,0.3-0.6,0.7-1,0.8c-2.2,0.6-2.3,0.7-2.3,3c0,2.5,0.1,5,0.2,7.5c0,0.7,0.4,1.4,0.7,2
				c0.3,0.5,0.4,0.8-0.1,1.3c-0.5,0.6-0.9,1.4-1.2,2.1c-0.1,0.2-0.1,0.5-0.1,0.8c-0.2,0.8-0.5,1.4-1.5,1.3c-0.7-0.1-1.3-1.2-1.1-1.9
				c0.3-1.4,0.3-1.6-1.2-1.4c-2,0.2-3.6-0.4-5.1-1.6c-0.4-0.3-0.8-0.9-0.7-1.3c0.1-0.5,0.6-1.1,1.1-1.3c0.6-0.2,0.9-0.5,0.9-1.2
				C153.5,38.9,153.7,36.9,153.7,34.9C153.7,34.9,153.7,34.9,153.7,34.9z M158.8,33.2c-0.3-0.5-0.5-1-0.8-1.5
				c-0.3,0.5-0.6,1-0.8,1.5c-0.1,0.4,0,0.9,0.2,1.3c0.1,0.2,0.8,0.3,0.8,0.2C158.5,34.3,158.6,33.9,158.8,33.2z M158.1,43.7
				c0.4-0.5,0.9-0.8,0.9-1c-0.2-1.2-1.3-0.5-2-0.8c-0.1-0.1-0.4,0.2-0.6,0.4C156.9,42.6,157.4,43.1,158.1,43.7z M157.6,37.4
				c-0.4,0.3-0.5,0.5-0.7,0.7c0.5,0.4,0.9,0.8,1.4,1c0.1,0.1,0.5-0.3,0.8-0.5C158.5,38.3,158.1,37.9,157.6,37.4z"/>
			<linearGradient id="SVGID_5_" gradientUnits="userSpaceOnUse" x1="158.1887" y1="58.4159" x2="174.9429" y2="58.4159">
				<stop  offset="0" style="stop-color:#FFC369"/>
				<stop  offset="0.1139" style="stop-color:#FFCC78"/>
				<stop  offset="0.3823" style="stop-color:#FFDD96"/>
				<stop  offset="0.5341" style="stop-color:#FFE4A1"/>
				<stop  offset="0.7264" style="stop-color:#F6D189"/>
				<stop  offset="1" style="stop-color:#E8B160"/>
			</linearGradient>
			<path class="st7" d="M168.1,64.7c-2.9,0.1-5.8-0.1-8.4-1.5c-0.1,0-0.1-0.1-0.2-0.1c-0.5-0.4-1.4-0.6-1.2-1.5
				c0.1-0.6,1.7-1.3,2.4-1.1c1.2,0.3,2.4,0.7,3.6,1c0.4,0.1,0.9-0.1,1.3-0.1c-0.2-0.4-0.4-0.8-0.8-1c-0.5-0.3-1.1-0.4-1.6-0.8
				c-0.4-0.4-0.9-1-0.8-1.5c0-0.4,0.8-0.7,1.2-1c0.2-0.1,0.5,0,0.6-0.1c0.3-0.2,0.6-0.5,0.7-0.8c0-0.2-0.4-0.5-0.6-0.7
				c-0.7-0.5-1.5-0.8-2-1.4c-0.8-0.9-0.4-1.8,0.8-2c0.4-0.1,0.9,0,1.4,0c1.9,0.3,3.9,0.7,5.8,1c0.4,0.1,0.9,0.2,1.1,0.4
				c0.3,0.4,0.6,1,0.6,1.4c0,0.3-0.5,0.7-0.9,0.9c-0.5,0.2-1.2,0.2-1.7,0.4c-0.3,0.1-0.6,0.5-0.8,0.8c0.3,0.2,0.6,0.6,1,0.7
				c0.8,0.2,1.6,0.2,2.4,0.4c0.6,0.1,1.1,0.4,1,1.2c-0.1,0.7-0.5,1.2-1.3,1.2c-0.6,0-1.3-0.1-1.9,0c-0.3,0-0.5,0.4-0.8,0.6
				c0.2,0.2,0.4,0.5,0.7,0.5c0.4,0.1,0.9,0.1,1.3,0.1c0.9,0,1.9-0.1,2.7,0.1c0.5,0.1,1,0.6,1.4,1c-0.3,0.4-0.6,0.9-1,1.1
				c-0.5,0.3-1.1,0.4-1.7,0.5C170.8,64.7,169.5,64.7,168.1,64.7z"/>
			<linearGradient id="SVGID_6_" gradientUnits="userSpaceOnUse" x1="170.0924" y1="36.3147" x2="178.4592" y2="36.3147">
				<stop  offset="0" style="stop-color:#FFC369"/>
				<stop  offset="0.1139" style="stop-color:#FFCC78"/>
				<stop  offset="0.3823" style="stop-color:#FFDD96"/>
				<stop  offset="0.5341" style="stop-color:#FFE4A1"/>
				<stop  offset="0.7264" style="stop-color:#F6D189"/>
				<stop  offset="1" style="stop-color:#E8B160"/>
			</linearGradient>
			<path class="st8" d="M175.4,40c-1.1,0-2.2-0.1-3,0.9c-0.2,0.2-1.1,0.1-1.4-0.1c-0.5-0.5-0.9-1.2-0.9-1.8
				c-0.1-1.2,0.2-2.4,0.2-3.6c0-0.5,0-1.1-0.1-1.6c-0.3-1.1,0.2-2.1,1.3-2.1c1.6,0.1,3.2,0.4,4.7,0.8c0.6,0.2,1.1,0.9,1.5,1.5
				c0.8,0.9,1,4.4,0.3,5.4c-0.2,0.3-0.6,0.5-1,0.6C176.5,40,176,40,175.4,40z M175.2,36.9c-0.2-0.7-0.3-1.2-0.5-1.7
				c-0.1-0.2-0.4-0.3-0.5-0.4c-0.2,0.2-0.4,0.4-0.5,0.6C173.6,36.3,174.2,36.6,175.2,36.9z"/>
		</g>
		<g>
			<linearGradient id="SVGID_7_" gradientUnits="userSpaceOnUse" x1="243.7202" y1="50.8265" x2="259.3047" y2="50.8265">
				<stop  offset="0" style="stop-color:#FFC369"/>
				<stop  offset="0.1139" style="stop-color:#FFCC78"/>
				<stop  offset="0.3823" style="stop-color:#FFDD96"/>
				<stop  offset="0.5341" style="stop-color:#FFE4A1"/>
				<stop  offset="0.7264" style="stop-color:#F6D189"/>
				<stop  offset="1" style="stop-color:#E8B160"/>
			</linearGradient>
			<path class="st9" d="M253.2,59.6c-3.1-0.1-5.8-0.5-7.2-3.1c-0.9-1.8-1.2-3.9-1.6-5.9c-0.4-2.2-0.4-4.5-0.7-6.8
				c-0.1-0.8-0.4-1.6,0.8-1.8c1.2-0.2,2.1,0.4,2.2,1.5c0.1,1.2,0.2,2.4,0.3,3.6c0.2,2,0.3,4.1,0.5,6.1c0.2,1.9,1.7,3.4,3.7,3.4
				c0.9,0,1.8,0,2.6-0.2c0.9-0.2,1-0.7,0.6-1.5c-0.2-0.4-0.1-0.9-0.2-1.4c0.4,0,0.9-0.2,1.3-0.1c0.8,0.2,1.7,0.5,2.5,0.8
				c1.4,0.7,1.6,2.3,0.4,3.2C256.8,58.7,255,59.7,253.2,59.6z"/>
			<linearGradient id="SVGID_8_" gradientUnits="userSpaceOnUse" x1="235.5766" y1="49.8617" x2="238.9897" y2="49.8617">
				<stop  offset="0" style="stop-color:#FFC369"/>
				<stop  offset="0.1139" style="stop-color:#FFCC78"/>
				<stop  offset="0.3823" style="stop-color:#FFDD96"/>
				<stop  offset="0.5341" style="stop-color:#FFE4A1"/>
				<stop  offset="0.7264" style="stop-color:#F6D189"/>
				<stop  offset="1" style="stop-color:#E8B160"/>
			</linearGradient>
			<path class="st10" d="M238.9,49.9c0,1.2,0,2.5,0,3.7c0,1.1-0.7,1.9-1.6,1.9c-0.8,0-1.3-0.7-1.5-1.8c-0.4-2.8-0.2-5.6,0.4-8.4
				c0.1-0.5,0.5-1.1,0.8-1.2c0.5,0,1.1,0.3,1.4,0.7c0.3,0.4,0.5,1.1,0.6,1.7c0.1,1.1,0,2.3,0,3.4C238.9,49.9,238.9,49.9,238.9,49.9z
				"/>
			<linearGradient id="SVGID_9_" gradientUnits="userSpaceOnUse" x1="250.3733" y1="38.8432" x2="255.08" y2="38.8432">
				<stop  offset="0" style="stop-color:#FFC369"/>
				<stop  offset="0.1139" style="stop-color:#FFCC78"/>
				<stop  offset="0.3823" style="stop-color:#FFDD96"/>
				<stop  offset="0.5341" style="stop-color:#FFE4A1"/>
				<stop  offset="0.7264" style="stop-color:#F6D189"/>
				<stop  offset="1" style="stop-color:#E8B160"/>
			</linearGradient>
			<path class="st11" d="M250.4,41.8c0.3-1.5,0.7-3,1-4.5c0.1-0.6,0.2-1.3,0.3-1.9c0.3-1.5,1.8-2.2,3-1.1c0.3,0.3,0.6,1,0.4,1.4
				c-1.1,2-1.5,4.3-2,6.5c0,0,0,0.1,0,0.1c-0.2,0.8-0.4,1.7-1.5,1.8C250.9,44,250.5,43,250.4,41.8z"/>
			<linearGradient id="SVGID_10_" gradientUnits="userSpaceOnUse" x1="257.8185" y1="40.5682" x2="263.0628" y2="40.5682">
				<stop  offset="0" style="stop-color:#FFC369"/>
				<stop  offset="0.1139" style="stop-color:#FFCC78"/>
				<stop  offset="0.3823" style="stop-color:#FFDD96"/>
				<stop  offset="0.5341" style="stop-color:#FFE4A1"/>
				<stop  offset="0.7264" style="stop-color:#F6D189"/>
				<stop  offset="1" style="stop-color:#E8B160"/>
			</linearGradient>
			<path class="st12" d="M263.1,43.9c-0.2,0.3-0.5,0.9-0.9,1c-0.4,0.1-1.2-0.1-1.5-0.5c-1.3-1.9-2.4-3.9-2.8-6.2
				c0-0.2-0.1-0.5,0-0.8c0.2-0.5,0.6-0.9,0.9-1.4c0.4,0.4,0.9,0.7,1.2,1.1c0.3,0.4,0.6,0.8,0.9,1.2
				C262.1,39.9,262.7,41.7,263.1,43.9z"/>
		</g>
		<g>
			<linearGradient id="SVGID_11_" gradientUnits="userSpaceOnUse" x1="213.3466" y1="43.1286" x2="228.3933" y2="43.1286">
				<stop  offset="0" style="stop-color:#FFC369"/>
				<stop  offset="0.1139" style="stop-color:#FFCC78"/>
				<stop  offset="0.3823" style="stop-color:#FFDD96"/>
				<stop  offset="0.5341" style="stop-color:#FFE4A1"/>
				<stop  offset="0.7264" style="stop-color:#F6D189"/>
				<stop  offset="1" style="stop-color:#E8B160"/>
			</linearGradient>
			<path class="st13" d="M219.3,53.3c-1.2,0-2.5,0-3.7,0c-0.9,0-1.6-0.4-1.6-1.4c0-0.9,0.5-1.3,1.6-1.4c1.8-0.1,1.7-0.1,1.4-1.8
				c-0.3-1.6-0.5-3.3-0.7-5c0-0.6,0.2-1.3,0.5-1.8c0.2-0.3,0.8-0.4,1.2-0.4c0.2,0,0.5,0.6,0.5,0.9c0.1,0.6,0.2,1.2,0.3,1.8
				c0.2,1.5,0.3,3,0.6,4.4c0.1,0.4,0.4,0.7,0.5,1.1c0.2-0.4,0.5-0.7,0.4-1.1c-0.2-3.6-0.5-7.2-0.8-10.8c-0.1-0.8-0.6-1-1.3-1.1
				c-1.4-0.2-2.8-0.5-4.2-0.9c-0.3-0.1-0.6-0.8-0.7-1.3c0-0.1,0.6-0.6,1-0.5c2.9,0.2,5.8-0.2,8.6-0.7c0.4-0.1,0.9-0.2,1.2-0.4
				c0.8-0.4,1.6,0,1.9,0.6c0.2,0.4-0.1,1.4-0.5,1.7c-0.7,0.6-1.6,1-2.5,1.2c-1.1,0.3-1.3,0.8-1,1.8c0.2,0.6,0.3,1.2,0.4,1.8
				c0.2,1.2,0.5,1.4,1.6,0.7c0.4-0.3,1.1-0.5,1.6-0.3c0.4,0.1,0.7,0.7,0.8,1.2c0.1,0.7-1,1.9-1.8,2.1c-1.5,0.2-1.5,0.2-1.4,1.7
				c0.1,1.1,0.1,2.3,0.1,3.4c0,0.8,0.3,1.2,1.1,1.1c0.5-0.1,1-0.3,1.5-0.4c0.9-0.3,2.1,0.1,2.4,0.8c0.3,1-0.2,1.6-1,1.9
				c-1.6,0.5-3.2,0.9-4.8,1.2C221.4,53.5,220.4,53.4,219.3,53.3C219.3,53.3,219.3,53.3,219.3,53.3z"/>
			<linearGradient id="SVGID_12_" gradientUnits="userSpaceOnUse" x1="201.7719" y1="53.0367" x2="217.9862" y2="53.0367">
				<stop  offset="0" style="stop-color:#FFC369"/>
				<stop  offset="0.1139" style="stop-color:#FFCC78"/>
				<stop  offset="0.3823" style="stop-color:#FFDD96"/>
				<stop  offset="0.5341" style="stop-color:#FFE4A1"/>
				<stop  offset="0.7264" style="stop-color:#F6D189"/>
				<stop  offset="1" style="stop-color:#E8B160"/>
			</linearGradient>
			<path class="st14" d="M207.1,55.6c-0.2-0.9-0.8-1.6-1.5-2.2c-2.8-2-2.8-2.2-0.6-4.8c2.1-2.4,2.1-2.6-0.2-4.8
				c-0.1-0.1-0.1-0.1-0.2-0.2c-0.5-0.5-1.3-1.2-0.7-1.8c0.4-0.4,1.5-0.3,2.2-0.2c0.6,0.1,1.2,0.6,1.7,1c1.7,1.3,2.2,3.1,1.1,5.4
				c-0.8,1.7-1.3,2.9,0.3,4.5c1.2,1.2,1.4,3.1,1.1,5c-0.1,0.3,0.3,0.9,0.6,1c1.8,1,3.7,1.8,5.8,1.5c0.4,0,0.8,0.5,1.3,0.8
				c-0.3,0.4-0.6,0.9-1,1c-1.9,0.8-3.9,0.4-5.8-0.2c-1.7-0.6-1.7-0.7-2.9,0.7c-1.2,1.3-2.6,2.1-4.5,1.8c-0.5-0.1-1.3-0.5-1.4-0.9
				c-0.2-0.8,0.6-1,1.2-1.3c0.8-0.3,1.6-0.7,2.3-1.3c1-0.9,0.8-1.3-0.2-2.2c-1.3-1.1-2.4-2.3-3.6-3.5c-0.5-0.6-0.6-1.3,0.1-1.8
				c0.7-0.5,1.4-0.4,2.1,0.2c0.8,0.8,1.6,1.5,2.5,2.3C206.9,55.8,207,55.7,207.1,55.6z"/>
			<linearGradient id="SVGID_13_" gradientUnits="userSpaceOnUse" x1="190.3158" y1="53.5292" x2="198.1087" y2="53.5292">
				<stop  offset="0" style="stop-color:#FFC369"/>
				<stop  offset="0.1139" style="stop-color:#FFCC78"/>
				<stop  offset="0.3823" style="stop-color:#FFDD96"/>
				<stop  offset="0.5341" style="stop-color:#FFE4A1"/>
				<stop  offset="0.7264" style="stop-color:#F6D189"/>
				<stop  offset="1" style="stop-color:#E8B160"/>
			</linearGradient>
			<path class="st15" d="M190.4,51.8c0.1-0.8,0.1-1.5,0.2-2.3c0.2-1.2,1-1.4,2-0.8c0.8,0.5,1.7,0.8,2.6,0.9c2,0.2,3,1.9,2.9,3.6
				c0,0.8,0,1.6,0,2.4c0,1.7-1.1,3-2.9,3c-0.8,0-1.6,0-2.4,0c-1.3-0.1-1.9-0.7-2-2c-0.1-1.6-0.3-3.2-0.5-4.8
				C190.4,51.8,190.4,51.8,190.4,51.8z M193.5,53c0.1,0.8,0.2,1.5,0.4,2.1c0.1,0.2,0.4,0.5,0.7,0.6c0.2,0,0.6-0.3,0.6-0.5
				c-0.1-0.8-0.2-1.7-0.4-2.5c0-0.2-0.6-0.3-0.9-0.2C193.7,52.5,193.6,52.9,193.5,53z"/>
			<linearGradient id="SVGID_14_" gradientUnits="userSpaceOnUse" x1="185.7379" y1="37.5598" x2="197.7975" y2="37.5598">
				<stop  offset="0" style="stop-color:#FFC369"/>
				<stop  offset="0.1139" style="stop-color:#FFCC78"/>
				<stop  offset="0.3823" style="stop-color:#FFDD96"/>
				<stop  offset="0.5341" style="stop-color:#FFE4A1"/>
				<stop  offset="0.7264" style="stop-color:#F6D189"/>
				<stop  offset="1" style="stop-color:#E8B160"/>
			</linearGradient>
			<path class="st16" d="M192.1,40c0.5,0,1,0.1,1.5,0.1c0.4,0,0.9-0.1,1.3,0c0.4,0.1,1,0.5,1,0.7c0,0.4-0.3,1.2-0.6,1.2
				c-1.7,0.2-3.4,0.6-5-0.3c-1.2-0.7-1.2-0.8-0.8-2c-1-0.3-2-0.4-2.8-0.8c-0.4-0.2-0.8-0.8-0.9-1.3c-0.2-0.9,0.4-1.3,1.3-1.2
				c0.8,0,1.5,0,2.3-0.1c0.9-0.1,1.3-0.5,0.6-1.4c-0.2-0.3-0.3-0.7-0.3-1c0-0.7,0.9-1.2,1.3-0.9c0.9,0.7,1.7,1.5,2.4,2.4
				c0.4,0.5,0.7,0.8,1.2,0.5c1.1-0.6,1.9,0,2.6,0.6c0.7,0.6,0.7,1.4-0.1,1.8c-1.1,0.5-2.4,0.8-3.6,1.2c-0.5,0.1-1,0.2-1.5,0.2
				C192.1,39.7,192.1,39.9,192.1,40z"/>
			<linearGradient id="SVGID_15_" gradientUnits="userSpaceOnUse" x1="188.8154" y1="44.915" x2="197.2394" y2="44.915">
				<stop  offset="0" style="stop-color:#FFC369"/>
				<stop  offset="0.1139" style="stop-color:#FFCC78"/>
				<stop  offset="0.3823" style="stop-color:#FFDD96"/>
				<stop  offset="0.5341" style="stop-color:#FFE4A1"/>
				<stop  offset="0.7264" style="stop-color:#F6D189"/>
				<stop  offset="1" style="stop-color:#E8B160"/>
			</linearGradient>
			<path class="st17" d="M193.1,43.5c1,0,2-0.1,3,0c0.4,0.1,1,0.5,1.1,0.9c0.2,0.6-0.2,1-0.8,1.3c-1.6,0.7-3.3,0.8-4.9,0.7
				c-0.7-0.1-1.4-0.4-2-0.7c-0.3-0.2-0.7-0.9-0.6-1.1c0.2-0.4,0.7-0.8,1.2-0.9c1-0.1,2,0,3.1,0C193.1,43.5,193.1,43.5,193.1,43.5z"
				/>
		</g>
		<g>
			<path class="st2" d="M24.8,39.1c-0.3-0.8-0.4-1.5-0.8-2.1c-0.2-0.3-0.6-0.5-1-0.6c-0.9-0.1-1.8-0.1-2.7-0.2
				c-0.7-0.1-1.3-0.4-1.3-1.2c0-0.9,0.6-1,1.3-1.1c0.3,0,0.7,0.1,1,0.1c1.6,0.3,2.3-0.1,2.8-1.7c0.3-1,0.6-1.3,1.6-1.3
				c0.7,0,0.9,0.3,0.7,1c-0.5,1.4-0.2,1.6,1.2,1.4c0.6-0.1,1.3,0,2,0.1c0.3,0.1,0.8,0.6,0.8,0.8c-0.1,0.4-0.5,0.8-0.9,0.9
				c-0.7,0.2-1.4,0.3-2.1,0.4c-1.2,0.2-1.3,0.3-1.3,1.4c0,0.3,0,0.5-0.1,0.8c0,0.2-0.1,0.4-0.2,0.8c0.4,0,0.7,0,1-0.1
				c1.1-0.2,2.2-0.5,3.4-0.6c0.8-0.1,1.7,0,2.5,0.1c0.8,0.2,1.2,0.8,1.2,1.7c0,1.2,0.1,2.5,0.1,3.7c0.1,1.3-0.3,1.7-1.6,1.8
				c-0.9,0.1-1.6,0.3-2,1.3c-0.3,0.7-0.9,0.5-1.4,0.2c-0.4-0.2-0.9-0.4-1.3-0.3c-1.1,0.3-2.2,0.7-3.3,1.3c-0.7,0.3-1.1,0.2-1.4-0.3
				c-0.2-0.2-0.3-0.5-0.3-0.8c-0.4-2-0.8-3.9-1.2-5.9c-0.1-0.4,0-0.9,0.1-1.3c0.3-0.7,0.7-1,1.5-0.7C23.8,39,24.2,39,24.8,39.1z
				 M25.7,42.2c-0.1-0.4-0.2-0.9-0.4-1.3c-0.1-0.2-0.4-0.2-0.6-0.3c-0.1,0.2-0.3,0.4-0.2,0.5c0.2,0.9,0.4,1.9,0.6,2.8
				c0,0.2,0.4,0.3,0.5,0.5c0.1-0.2,0.3-0.4,0.3-0.6C25.9,43.2,25.7,42.8,25.7,42.2z M30.1,40.2c0.2,0.9,0.4,1.8,0.6,2.7
				c0,0.2,0.3,0.3,0.5,0.4c0.2-0.2,0.4-0.4,0.4-0.6c0-0.6-0.1-1.1-0.1-1.7C31.4,40.3,31,40.1,30.1,40.2z"/>
			<path class="st2" d="M9.6,48.4c-1.1,0-2.2,0.1-3.3-0.2c-0.6-0.2-1.2-0.8-1.5-1.4c-0.3-0.6,0.2-1.2,1.1-1.2c0.9,0,0.9-0.3,0.9-1.1
				c-0.1-2.3-0.1-4.7-0.2-7c0-1.2-0.2-1.4-1.4-1.4c-0.7,0-1.4-0.2-2.1-0.4c-0.7-0.2-0.8-0.8-0.2-1.2c0.5-0.3,1.2-0.6,1.8-0.6
				c2.7-0.2,5.5-0.3,8.3-0.5c0.8-0.1,1.4,0.3,1.8,1c0.1,0.2,0.1,0.6-0.1,0.8c-0.2,0.3-0.6,0.7-1,0.7c-1.1,0.2-1.3,0.9-1.1,1.8
				c0.1,0.8,0.3,1.7,0.4,2.5c0.4,4.1,0.9,8.1,0.7,12.2c-0.1,1.4,0.1,2.8,0,4.1c0,0.4-0.2,0.8-0.5,1c-0.2,0.2-0.7,0.2-0.9,0.1
				c-0.3-0.3-0.6-0.7-0.6-1.1c-0.1-2.1-0.1-4.3-0.1-6.4c0-0.1,0-0.3,0-0.4C11.6,47.8,11.5,47.8,9.6,48.4z M10.4,45.8
				c0.1,0,0.1,0.1,0.2,0.1c0.2-0.3,0.5-0.6,0.7-0.9c-0.3-0.1-0.6-0.3-0.9-0.4c-0.2-0.1-0.4-0.1-0.6,0c-0.3,0.1-0.6,0.3-0.9,0.4
				c0.2,0.3,0.5,0.6,0.8,0.8C9.8,45.9,10.1,45.8,10.4,45.8z M10.5,42.9c0.1-0.3,0.4-0.6,0.4-0.9c0-0.5-0.8-0.9-1.4-0.6
				c-0.3,0.1-0.5,0.7-0.4,1C9.2,43.1,9.8,42.9,10.5,42.9z M10.4,37.2c-0.4-0.5-0.8-1.1-1-1.1c-0.9,0.3-0.5,1.1-0.4,1.6
				c0.1,0.3,0.5,0.4,0.8,0.7C10,38.1,10.2,37.7,10.4,37.2z"/>
			<path class="st2" d="M8.5,52.3c0.4-0.1,0.8-0.2,1.1-0.2c0.3,0,0.8,0.2,0.8,0.5c0.1,0.3,0,0.8-0.3,1c-0.6,0.4-1.3,0.7-1.9,1
				c-0.5,0.2-0.9,0.5-0.9,1.1c0,0.7,0.2,1,0.9,0.8c0,0,0.1,0,0.1,0c0.7-0.2,1.4-0.2,1.7,0.6c0.2,0.5-0.5,1.3-1.2,1.5
				c-0.8,0.3-1.5,0.7-2.3,0.8c-0.7,0.1-1.5,0.1-2.2-0.1c-0.2,0-0.5-0.7-0.5-1c0.1-0.4,0.5-0.8,0.8-1.2c0.7-0.7,0.5-1.7-0.5-2
				c-0.1,0-0.3,0-0.4-0.1c-0.3-0.2-0.7-0.5-0.7-0.8c0-0.3,0.4-0.6,0.6-0.9c0.3-0.3,0.6-0.5,1-0.7c-0.3-0.3-0.6-0.6-0.9-1
				c-0.3-0.3-0.8-0.8-0.7-1c0.2-0.5,0.6-1.1,1-1.1c1.1-0.2,2.3-0.1,3.5-0.1c0.6,0,1.2,0,1.2,0.8c0,0.7-0.4,1-1,1.1
				c-0.2,0-0.4,0.1-0.6,0.2c-0.1,0.2-0.2,0.4-0.3,0.7c0.2,0.1,0.4,0.2,0.6,0.2C8,52.5,8.2,52.4,8.5,52.3C8.5,52.4,8.5,52.3,8.5,52.3
				z"/>
			<path class="st2" d="M23.7,60.6c-0.3-0.6-0.1-1.4,0.4-2.1c0.5-0.6,0.9-0.6,1.2,0.1c0.6,1.3,1.2,2.5,1.8,3.8
				c0.6,1.2,1.8,1.8,3.2,1.8c0.3,0,0.9,0.4,1,0.7c0.3,0.5,0.1,1.2-0.5,1.4c-0.8,0.4-1.7,0.6-2.6,0c-0.9-0.7-1.8-1.3-2.7-2.1
				C24.4,63.3,24.1,62.1,23.7,60.6z"/>
			<path class="st2" d="M23.1,60c0,1.3,0,2.6,0,3.8c0,0.2,0,0.4-0.2,0.6c-0.3,0.3-0.6,0.8-0.9,0.8c-0.3,0-0.8-0.5-0.9-0.8
				c-0.2-0.9-0.3-1.8-0.5-2.7c-0.1-1-0.2-1.9-0.3-2.9c-0.1-0.6,0-1.2,0.8-1.3c0.7-0.2,1.1,0.1,1.3,0.8c0.2,0.6,0.3,1.1,0.4,1.7
				C23,60,23.1,60,23.1,60z"/>
			<path class="st2" d="M26.6,53.9c-0.9,0-1.8,0-2.7-0.2c-1-0.2-1.5-0.7-1.4-1.4c0.1-0.6,0.9-1.3,1.8-1c1.5,0.5,2.8-0.2,4.2-0.3
				c0.2,0,0.4-0.1,0.5-0.1c0.3,0.1,0.8,0.1,0.9,0.4c0.1,0.2,0,0.8-0.3,1c-0.8,0.5-1.6,0.9-2.4,1.3c-0.2,0.1-0.5,0.1-0.7,0.2
				C26.6,53.7,26.6,53.8,26.6,53.9z"/>
			<path class="st2" d="M34.8,61c-0.2-0.1-0.6-0.2-0.9-0.4c-1.3-1-1.6-2.6-2.3-4c-0.4-0.8,0.2-1.9,0.8-1.9c0.3,0,0.7,0.2,0.8,0.4
				c0.5,0.9,1,1.9,1.5,2.8c0.3,0.6,0.7,1.2,1,1.9C36,60.4,35.8,60.8,34.8,61z"/>
			<path class="st2" d="M27.8,59.5c0-0.8-0.1-1.8,0-2.8c0-0.6,0.4-0.9,1-0.9c0.6,0,1.2,0.1,1.3,0.8c0.1,0.7,0.1,1.5,0.2,2.3
				c0,0.4,0,0.8,0.1,1.1c0.1,0.6,0.2,1.2-0.5,1.4c-0.7,0.3-1.1-0.2-1.4-0.7C28.1,60.5,28,60.1,27.8,59.5z"/>
		</g>
		<g>
			<path class="st2" d="M103.4,48.2c-0.8,0-1.7,0.1-2.5,0c-0.4,0-0.8-0.3-1.2-0.5c-0.2-0.2-0.3-0.6-0.3-0.8c0.1-0.2,0.5-0.3,0.8-0.3
				c1.4-0.2,2.9-0.4,4.3-0.6c0.5-0.1,0.7-0.4,0.3-0.8c-0.7-0.8-0.5-1.5,0-2.3c0.6-1,1.2-2.1,1.7-3.1c0.7-1.3,0.3-1.9-1.2-2
				c-0.6-0.1-1.2-0.1-1.8-0.3c-0.4-0.1-0.8-0.4-1.1-0.7c-0.2-0.2-0.3-0.7-0.2-0.9c0.2-0.3,0.6-0.5,0.9-0.5c1.3,0,2.5,0.1,3.8,0.1
				c2.3,0.1,3.5,2.1,2.5,4.1c-0.5,1.1-1.1,2.2-1.6,3.3c-0.4,0.8-0.2,1.5,0.3,2.1c0.5,0.6,1,1,2,0.9c1.7-0.2,3.4-0.3,5.1-0.3
				c0.5,0,1,0.1,1.4,0.4c0.4,0.2,0.7,0.7,0.8,1c0,0.3-0.5,0.7-0.8,0.9c-0.2,0.1-0.5,0.1-0.7,0.2c-1.7,0.1-3.5,0.2-5.2,0.3
				c-0.7,0-1,0.3-0.8,1c0.5,2.1,0.6,4.3-0.2,6.4c-0.4,1-1.2,1.9-1.9,2.7c-0.2,0.2-0.6,0.2-0.9,0.2c-0.6,0-1.2,0-1.8,0
				c-1.3,0-2.1-1-1.8-2.3c0.2-0.8,0.9-1.1,1.5-0.5c0.7,0.8,1.3,0.4,1.7-0.2c0.4-0.6,0.9-1.3,0.9-2c0.1-1.4-0.1-2.7-0.2-4.1
				c-0.1-0.8-0.6-1.3-1.6-1.2C104.9,48.3,104.1,48.2,103.4,48.2C103.4,48.2,103.4,48.2,103.4,48.2z"/>
			<path class="st2" d="M69.8,51.1c0.3,0,0.4,0,0.5,0c0.6,0,1.3-0.3,1.6,0.5c0.2,0.8-0.4,1.2-1,1.5c-0.5,0.2-1.1,0.3-1.7,0.4
				c-0.5,0.1-0.7,0.3-0.6,0.8c0.1,0.4-0.1,0.8-0.1,1.3c-0.1,1-0.2,1.9-0.2,2.9c0,1.3-1.5,3.2-2.7,3.2c-0.5,0-1.1-0.5-1.6-0.9
				c-0.1-0.1,0.1-0.9,0.3-1.1c1.2-0.9,1.4-2.1,1.3-3.4c0-0.1,0-0.3,0-0.4c0-2.1,0-2.1-2-2.4c-0.1,0-0.3,0-0.4-0.1
				c-0.6-0.3-1.4-0.5-1.3-1.3c0.1-1,0.9-1.1,1.7-1c0.1,0,0.3,0,0.4,0c0.9,0,1-0.2,0.7-1c-0.2-0.5-0.5-1.1-0.5-1.6
				c0-0.6,0.3-1.1,0.4-1.7c0-0.1,0.1-0.1,0.1-0.2c1.6-2.4,1.3-2.9-0.7-4.3c-0.5-0.4-1.1-0.8-1.6-1.3c-0.8-0.8-0.6-1.5,0.5-1.8
				c0.3-0.1,0.6-0.1,0.9,0c2.6,0.5,4.9,3.4,4.8,6c0,0.5-0.2,1.2-0.6,1.5c-1.3,1.2-0.4,2.3-0.1,3.4C68.2,51.2,69.2,51.2,69.8,51.1z"
				/>
			<path class="st2" d="M80.7,47.1c1.1,0.3,2,0.5,2.9,0.6c0.3,0,0.7-0.4,1-0.6c0.8-0.7,2.1-0.6,2.6,0.4c0.1,0.3,0.1,0.8,0,1.1
				c-1.8,2.9-4,5.6-6.6,7.9c-0.5,0.5-1,0.7-1.6,0.2c-0.5-0.5-0.5-1.1-0.1-1.7c1-1.4,2.1-2.7,3.2-4.1c0.2-0.2,0.2-0.5,0.3-0.8
				c-0.3-0.1-0.5-0.2-0.8-0.2c-1.5,0.1-2.7-0.5-3.9-1.2c-0.9-0.5-1-1.2-0.4-2c0.8-1,1.8-2,2.7-2.9c0.3-0.4,0.6-0.8,0.9-1.1
				c0.4-0.3,0.9-0.7,1.3-0.6c0.6,0.1,1.1,0.6,1.5,1c0.1,0.1-0.1,0.8-0.4,1.1c-0.7,0.8-1.5,1.6-2.2,2.4C81.1,46.6,81,46.7,80.7,47.1z
				"/>
			<path class="st2" d="M76.7,35.4c1.2,0.2,2.7,0.5,4.2,0.8c1,0.2,1.1,0.1,1.1-0.9c0-0.8-0.1-1.5,0.9-1.7c1.1-0.2,1.6,0.1,1.9,1.2
				c0.6,1.9,0.6,1.9,2.5,1.9c0.7,0,1.4-0.1,2,0c0.6,0.1,1.2,0.3,1.6,0.7c0.7,0.6,0.3,1.3-0.5,1.7c-1.4,0.7-2.8,0.3-4.1,0.1
				c-0.9-0.1-1.6,0-2.2,0.5c-0.2,0.2-0.8,0.3-1,0.1c-1.4-1.3-3.3-0.9-4.9-1.5c-0.9-0.3-1.8-0.6-2.7-1c-0.5-0.2-1-0.7-0.8-1.4
				c0.2-0.7,0.8-0.6,1.3-0.6C76.2,35.4,76.3,35.4,76.7,35.4z"/>
			<path class="st2" d="M91.7,62.3c-0.8-0.3-1.5-0.5-2-0.9c-1-0.8-1.8-1.8-2.7-2.8c-0.4-0.5-0.6-0.5-1-0.1c-1.2,1.1-2.5,2.1-3.7,3.1
				c-0.3,0.2-0.7,0.5-1.1,0.5c-0.3,0-0.7-0.2-1-0.5c-0.1-0.1,0.1-0.6,0.3-0.8c1.8-2.1,3.6-4.3,5.5-6.3c0.9-1,2-1.8,3.1-2.7
				c0.3-0.2,1-0.1,1.2,0.2c0.2,0.3,0.1,0.9,0,1.3C90,54,89.4,54.5,89,55.1c-0.2,0.3-0.2,0.7-0.1,1c0.9,1.6,1.7,3.3,3.3,4.3
				c0.3,0.2,0.7,0.8,0.6,1C92.7,61.7,92.2,62,91.7,62.3z"/>
		</g>
		<g>
			<path class="st2" d="M125.3,50.2c0.1-1.5,0.2-3,0.3-4.5c0-0.2,0-0.4,0-0.6c-0.1-0.3-0.2-0.6-0.4-0.8c-0.1-0.1-0.5,0.2-0.7,0.3
				c-0.6,0.3-1.2,0.7-1.9,0.9c-0.3,0.1-0.8-0.3-1.2-0.4c0.2-0.4,0.2-0.8,0.5-1.1c1.7-1.9,3.5-3.7,5.2-5.6c0.4-0.4,2.1-0.7,2.5-0.2
				c0.4,0.5,0.2,0.9-0.2,1.4c-0.6,0.7-1.1,1.4-1.6,2.2c-0.3,0.5,0.1,0.7,0.5,0.8c0.6,0.1,1.2,0,1.8,0c1.3,0.1,2.3,0.9,2.3,2.2
				c0.1,2.5,0.1,5,0.1,7.4c0,0.9-0.4,1.2-1.3,1.5c-1.4,0.4-3,0.2-4.4,1.1c-0.7,0.5-1.5-0.2-1.6-1.2
				C125.3,52.6,125.3,51.4,125.3,50.2C125.3,50.2,125.3,50.2,125.3,50.2z M128.9,49.4c-0.8,0-0.9,0.2-1,1.7c0,0.6,0.3,0.7,0.8,0.8
				c0.7,0,1.7-0.7,1.7-1.2C130.3,49.9,129.8,49.4,128.9,49.4z M129.1,47.4c0.6,0,0.9-0.3,0.8-1c0-0.7-0.6-1.3-1.2-1.2
				c-0.9,0.1-0.5,1-0.6,1.5C127.9,47.2,128.4,47.4,129.1,47.4z"/>
			<path class="st2" d="M146,44.5c0.1,1.4,0.4,2.7,0.3,4.1c-0.1,2.4-0.4,4.8-0.6,7.2c0,0.3-0.1,0.7-0.2,1c-0.1,0.6-0.2,1.2-0.3,1.7
				c-0.6,1.6-1.5,1.9-3,1.3c-1.2-0.5-2.1-1.5-2.7-2.7c-0.2-0.3,0-0.8,0-1.2c0.4,0,0.9-0.1,1.2,0.1c0.5,0.3,0.8,0.7,1.2,1.1
				c0.6,0.5,1,0.4,1.1-0.4c0.6-3.4,0.8-6.8,0.4-10.3c-0.1-1-0.1-2-0.2-2.9c-0.1-0.9-0.6-1.3-1.6-1.3c-0.9,0-1.8-0.1-2.7-0.2
				c-0.5-0.1-0.9,0.1-1.1,0.6c-0.1,0.4-0.3,0.8-0.5,1.2c-0.3,0.7-0.7,1.4-1.2,2c-0.2,0.2-0.8,0.3-1.1,0.2c-0.2-0.1-0.5-0.6-0.5-0.9
				c0.4-1.8,0.3-3.6,1.2-5.3c0.3-0.6,0.4-1.3,0.6-2c0.2-0.9,0.9-1.5,1.6-1.3c1.1,0.3,1.5,0.9,1.2,2c-0.4,1.3-0.3,1.3,1,1.3
				c1.2-0.1,2.5-0.1,3.7-0.1c1.2,0,2,0.9,2,2.1c0,0.5,0.1,0.9,0.1,1.4C146.1,43.6,146.1,44.1,146,44.5C146.1,44.5,146,44.5,146,44.5
				z"/>
			<path class="st2" d="M140.9,50.7c-0.1-0.1-0.5-0.1-0.7-0.3c-0.7-0.9-1.4-1.7-1.9-2.7c-0.2-0.3,0-1,0.3-1.2
				c0.3-0.2,1.1-0.3,1.3-0.1c0.8,1,1.6,2.1,2.2,3.3C142.5,50.3,142,50.7,140.9,50.7z"/>
		</g>
	</g>
	<g>
		<path class="st2" d="M170.2,84.5c-1.1,0-2.1,0-3.2,0c-0.7,0-1-0.3-0.8-1.1c0.4-1.3,0.3-2.6,0-3.9c-0.1-0.4,0-0.8,0-1.2
			c0-0.3,0-0.6-0.1-0.8c-0.1-0.3-0.1-0.6,0.2-0.7c0.2-0.1,0.5-0.1,0.8-0.1c0.9,0,1.9,0.1,2.8,0.1c0.1,0,0.3-0.3,0.3-0.5
			c-0.1-0.8,0-1.6-0.4-2.3c-0.2-0.4,0.1-0.5,0.5-0.6c0.6-0.1,1.2,0.2,1.2,0.9c0.1,0.5,0.1,1.1,0.1,1.6c0,0.8,0.1,0.9,0.9,1
			c0.5,0.1,0.9,0.2,1.3,0.4c0.6,0.2,0.8,0.8,0.9,1.4c0.1,0.6,0.1,1.3,0.1,1.9c0,0.9,0,1.7,0.1,2.6c0.1,1-0.4,1.3-1.4,1.4
			C172.3,84.6,171.3,84.5,170.2,84.5C170.2,84.5,170.2,84.5,170.2,84.5z M169.6,83.1c0.3,0,0.8,0.3,0.8-0.4c0-0.6-0.1-1.2-0.1-1.8
			c0-0.4-0.2-0.5-0.6-0.5c-0.4,0-0.9,0-1.3-0.1c-0.5-0.1-0.6,0.1-0.5,0.5c0,0.6,0,1.2-0.1,1.7c-0.1,0.5,0.1,0.6,0.5,0.6
			C168.8,83.2,169.2,83.2,169.6,83.1z M171.7,81.9C171.7,81.9,171.7,81.9,171.7,81.9c0,0.3,0,0.5,0,0.8c0,0.1,0.1,0.4,0.2,0.4
			c0.4,0,0.8,0,1.2,0c0.1,0,0.2-0.2,0.2-0.4c0-0.5,0-1-0.1-1.5c0-0.1-0.2-0.3-0.3-0.4c-0.9-0.3-1.2-0.1-1.2,0.8
			C171.7,81.7,171.7,81.8,171.7,81.9z M169.2,79.1C169.2,79.1,169.2,79.1,169.2,79.1c0.1,0,0.3,0,0.4,0c0.3,0,0.6,0.1,0.7-0.3
			c0-0.4-0.2-0.6-0.6-0.6c-0.5,0-0.9-0.1-1.4,0c-0.2,0-0.4,0.1-0.6,0.2c0.2,0.2,0.3,0.5,0.5,0.6C168.5,79.2,168.8,79.1,169.2,79.1z
			 M171.6,78.7c0.1,0.7,0.3,0.9,1,0.8c0.1,0,0.3-0.3,0.3-0.4c0-0.5-0.3-0.7-0.7-0.9C171.7,78.1,171.5,78.1,171.6,78.7z"/>
		<path class="st2" d="M71.3,84c0,0.6,0,1.1,0,1.6c-0.1,1,0,2.1-0.3,3.1c-0.1,0.6-0.6,1.2-1,1.7c-0.3,0.4-0.8,0.4-1.2,0.1
			c-0.5-0.3-0.7-0.7-0.6-1.2c0-0.3,0.2-0.3,0.5-0.2c0.5,0.3,0.6,0.3,0.9-0.3c0.3-0.7,0.5-1.5,0.3-2.3c-0.1,0-0.1-0.1-0.2-0.1
			c-0.1,0.2-0.2,0.4-0.3,0.6c-0.2,0.3-0.4,0.6-0.6,0.8c-0.2,0.1-0.5,0-0.7,0.1c0-0.2-0.1-0.5,0-0.7c0.4-1.3,0.8-2.7,1.2-4
			c0.1-0.2,0-0.4,0-0.6c-0.1,0-0.1,0-0.2-0.1c-0.1,0.2-0.2,0.4-0.2,0.5c-0.2,0.8-0.5,1.7-0.7,2.5c-0.1,0.2-0.4,0.4-0.5,0.3
			c-0.2,0-0.4-0.4-0.4-0.5c0.1-1,0.3-2,0.5-2.9c0-0.2,0.3-0.4,0.6-0.5c0.2-0.1,0.7-0.3,0.7-0.3c0-0.3-0.2-0.6-0.4-1.1
			c-0.5,0.6-0.8,1.1-1.2,1.5c-0.3,0.4-0.7,0.7-1.1,0.9c-0.2,0.1-0.6-0.1-0.9-0.2c0.1-0.3,0.1-0.5,0.3-0.8c0.6-1,1.1-1.9,1.7-2.9
			c0.2-0.3,0.3-0.6,0.5-0.8c0.2-0.3,0.2-0.5-0.1-0.6c-0.2-0.1-0.4-0.1-0.5-0.2c-0.2-0.2-0.5-0.4-0.5-0.7c0-0.4,0.3-0.7,0.7-0.7
			c1.1,0,2.2,0,3.4,0c0.6,0,0.9,0.4,0.8,0.9c0,0.4-0.5,0.7-1,0.6c-0.7-0.2-1,0.1-1.3,0.7c-0.5,1-0.5,1,0.3,1.8
			c0.4,0.4,0.7,0.8,0.9,1.3c0.2,0.4,0.5,0.4,0.7,0.1c0.3-0.3,0.5-0.6,0.8-0.9c0.4-0.5,1.1-0.4,1.4,0.2c0.1,0.1,0,0.4-0.1,0.5
			c-0.2,0.3-0.4,0.6-0.6,0.9c-0.2,0.3-0.2,0.5,0.2,0.6c0.7,0.1,1.5,0.3,2.3,0.4c0.4,0.1,0.8,0,0.9,0.5c0,0.3-0.5,0.7-1,0.7
			c-0.8,0-1.6,0-2.4-0.1C72.1,84.4,71.8,84.2,71.3,84z"/>
		<path class="st2" d="M228.1,78.9c0.5,0.1,1,0.2,1.5,0.4c0.3,0.1,0.3,0.4,0,0.6c-0.3,0.2-0.7,0.4-1.1,0.5c-0.8,0.2-1.5,0.3-2.3,0.4
			c-0.5,0.1-1,0-1.4,0c-0.3,0-0.5,0.1-0.3,0.5c0.9,1.7,2.1,3.1,4,3.9c0.3,0.1,0.7,0.5,0.7,0.7c0,0.4-0.5,0.3-0.8,0.3
			c-1.2,0-2.1-0.7-2.9-1.3c-0.8-0.6-1.5-1.3-1.9-2.3c-0.1-0.1-0.2-0.2-0.3-0.3c-0.1,0.1-0.2,0.3-0.2,0.4c-0.3,1.1-0.6,2.3-1.7,2.9
			c-0.2,0.1-0.5,0.1-0.7,0c-0.5-0.2-0.5-0.5,0-0.8c0.6-0.4,0.8-1,0.9-1.6c0.2-0.5,0.3-1.1,0.4-1.6c0.1-0.4-0.1-0.4-0.4-0.4
			c-0.6,0-1.3,0-1.9-0.1c-0.2,0-0.4-0.3-0.4-0.5c0-0.1,0.1-0.4,0.3-0.5c0.5-0.4,1.2-0.3,1.8-0.3c0.7,0,0.8-0.1,1-0.8
			c0.1-0.4-0.1-0.5-0.4-0.6c-0.4-0.1-0.8-0.2-1.2-0.4c-0.2-0.1-0.4-0.4-0.4-0.5c0-0.2,0.3-0.4,0.5-0.5c0.3-0.1,0.6-0.1,0.9-0.1
			c0.4,0,0.6-0.2,0.6-0.6c0-0.3,0-0.5,0-0.8c0-0.2,0.2-0.6,0.3-0.6c0.4-0.1,0.8-0.2,1,0.3c0.1,0.3,0.2,0.7,0.2,1.1
			c0,0.4,0.2,0.5,0.6,0.5c0.5-0.1,0.9-0.1,1.4-0.1c0.8,0,1.2,0.4,1.1,1.2C226.5,79,226.5,79.1,228.1,78.9z M224.8,78.4
			c-0.1-0.1-0.2-0.3-0.4-0.3c-0.4-0.1-0.6,0.2-0.7,0.9c0,0.3,0.1,0.4,0.4,0.5C224.6,79.5,224.7,79.2,224.8,78.4z"/>
		<path class="st2" d="M243.1,83.3c0-1.1,0-2.1,0-3.1c0-0.3,0-0.6,0-0.9c0-0.3-0.1-0.5-0.4-0.5c-0.3,0-0.6,0.1-0.9,0.1
			c-0.8,0-1.7-0.1-2.5-0.1c-0.4,0-0.4-0.4-0.3-0.6c0.1-0.4,0.3-0.7,0.7-0.6c0.5,0.2,0.9,0,1.3,0c1.8-0.1,3.6-0.1,5.3-0.1
			c0.4,0,0.8,0.4,0.8,0.8c0,0.4-0.2,0.5-0.5,0.5c-0.5,0-1,0-1.5,0c-0.4,0-0.5,0.1-0.5,0.5c0.1,0.4,0.1,0.9,0.1,1.3
			c0,0.3,0.1,0.4,0.4,0.3c0.4-0.1,0.8-0.2,1.3-0.2c0.5,0,0.6,0.3,0.4,0.7c-0.2,0.5-0.5,0.7-1,0.7c-1.1,0.1-1.1,0.1-1.2,1.1
			c0,0.4-0.1,0.7-0.1,1.1c0.1,0.4,0.3,0.7,0.5,1c0.3,0.4,0.7,0.8,1.2,1.1c0.7,0.5,1.5,0.9,2.3,1.3c0.3,0.2,0.6,0.3,0.9,0.4
			c0.1,0.1,0.3,0.3,0.3,0.4c0,0.1-0.2,0.3-0.4,0.3c-0.5,0-1,0-1.4-0.1c-1.3-0.3-2.4-1.1-3.4-1.9c-0.9-0.7-1.7-1.6-2.5-2.3
			c-0.3-0.3-0.5-0.3-0.7,0.1c-0.6,1.2-1.5,2-2.8,2.4c-0.5,0.2-1,0-1.4-0.3c-0.1-0.1-0.1-0.2-0.1-0.4c0-0.1,0.2-0.2,0.3-0.2
			c1.8-0.2,2.6-1.4,3.2-2.9c0.1-0.2,0-0.4-0.1-0.6c-0.1-0.2-0.2-0.4-0.3-0.6c-0.1-0.4,0.1-0.7,0.5-0.6c0.5,0.1,0.7-0.1,0.8-0.5
			c0.1-0.3,0.1-0.7,0.2-1c0.1-0.3,0.3-0.6,0.5-0.7c0.4-0.1,0.7,0.3,0.7,0.7c0,0.8-0.1,1.6-0.3,2.3C242.3,82.8,242.4,83,243.1,83.3z"
			/>
		<path class="st2" d="M141.9,76.4c0.4,0,0.8,0,1.2-0.1c0.2-0.1,0.4-0.3,0.5-0.5c0.1-0.3,0.1-0.6,0.3-0.8c0.1-0.2,0.4-0.4,0.6-0.3
			c0.2,0,0.4,0.3,0.5,0.5c0.1,0.2,0,0.5,0,0.8c0,0.2,0.2,0.3,0.3,0.5c0.1-0.1,0.3-0.2,0.3-0.4c0.1-0.2,0.2-0.5,0.4-0.6
			c0.3-0.3,0.7-0.3,0.7,0.1c0.1,0.8,0.6,0.9,1.2,1c0.4,0.1,0.8,0,0.8,0.6c0,0.5-0.4,0.8-0.9,0.8c-0.9,0-0.9,0-0.9,0.9
			c0,0,0,0.1,0,0.1c-0.1,1.7-0.4,1.8-2,1.4c-0.7-0.2-0.9-0.5-1-1.2c0-0.2-0.1-0.4-0.2-0.7c-0.1-0.6-0.4-0.9-1-0.9
			c-0.4-0.1-0.7-0.4-1.1-0.5c-0.8,0.8-1.5,1.7-2.4,2.5c-0.5,0.5-1.1,0.9-1.9,0.7c-0.2,0-0.4-0.2-0.6-0.4c0.2-0.1,0.3-0.4,0.5-0.4
			c0.7-0.1,1.1-0.6,1.6-1.1c0.9-1,1.5-2.1,1.8-3.5c0.1-0.4,0.1-0.8,0.1-1.2c0-0.8,0.2-1,1-1.1c0.2,0,0.5,0,0.7,0
			c0.6,0,0.7-0.2,0.4-0.7c-0.1-0.1-0.1-0.2-0.1-0.3c0-0.2-0.1-0.6,0.1-0.7c0.2-0.2,0.5-0.2,0.8-0.2c0.5,0.1,0.8,0.5,0.8,1.1
			c0,0.5,0.3,0.7,0.8,0.7c0.6,0,1.2,0,1.8,0c0.2,0,0.5,0,0.7,0.1c0.3,0.1,0.8,0.2,0.7,0.7c-0.1,0.6-0.5,1-1.1,0.9
			c-0.8-0.1-1.5-0.3-2.3-0.3c-0.8,0-1.6,0.1-2.4,0.1c-0.1,0-0.2,0.1-0.3,0.2c-0.2,0.6-0.5,1.3-0.7,2
			C141.9,76.2,141.9,76.3,141.9,76.4z M145.4,77.8c-0.4,0.4-0.3,0.7-0.2,1.1c0,0,0.1,0.1,0.2,0.1c0.1,0,0.2-0.1,0.2-0.2
			C145.5,78.5,145.5,78.2,145.4,77.8z"/>
		<path class="st2" d="M119.1,77.7c-0.1-0.5-0.2-1-0.2-1.5c-0.1-1.1-0.2-2.2-0.2-3.2c0-0.5,0.6-1,1.2-1c0.9,0,1.7,0,2.6,0.1
			c0.7,0.1,1.4,0.2,2.1,0.4c0.8,0.2,1.2,1.1,1,1.9c-0.2,0.9-0.3,1.7-0.4,2.6c-0.1,0.6-0.2,1.1,0.1,1.7c0.1,0.1-0.1,0.5-0.2,0.7
			c-0.3,0.3-0.7,0.5-1.3,0.3c-0.4-0.1-0.8-0.2-1.2-0.3c-0.6,0-1.3,0-1.9,0c-1.2,0-1.5-0.4-1.5-1.5C119,77.9,119,77.8,119.1,77.7
			C119,77.7,119,77.7,119.1,77.7z M120.7,78.1c0.9,0,1.8,0,2.6-0.3c0.1,0,0.1-0.4,0.2-0.5c-0.6-0.1-1.1-0.3-1.7-0.4
			c0,0-0.1,0.1-0.2,0.1C121.3,77.3,121.1,77.7,120.7,78.1z M123.7,74.8C123.7,74.8,123.7,74.8,123.7,74.8c0-0.2,0-0.5,0-0.7
			c0-0.1-0.2-0.3-0.4-0.3c-0.1,0-0.3,0.1-0.4,0.2c-0.2,0.3-0.3,0.7-0.4,1c0,0.1,0,0.3,0,0.4c0.3,0.2,0.6,0.3,0.9,0.4
			c0.1-0.2,0.2-0.4,0.3-0.7C123.7,75.1,123.7,74.9,123.7,74.8z M120.3,75.8c0.5-0.6,0.8-1.3,0.8-2c0-0.1-0.3-0.3-0.5-0.4
			c-0.1,0-0.4,0.1-0.4,0.2C120.2,74.4,120.3,75.1,120.3,75.8z"/>
		<path class="st2" d="M123.6,86.5c-1.1,0-2.2,0-3.3,0c-0.2,0-0.4,0.1-0.5,0.2c-0.5,0.5-0.9,0.6-1.3,0c-0.2-0.3-0.5-0.5-0.9-0.6
			c-0.2-0.1-0.4-0.4-0.5-0.6c0.2-0.1,0.4-0.4,0.6-0.4c0.5,0,0.8-0.2,0.8-0.7c0-0.7,0-1.5,0-2.2c0-0.2,0.1-0.6,0.2-0.7
			c0.3-0.1,0.6-0.1,0.9,0c0.4,0.1,0.7,0.2,1,0.3c1.4,0,2.8,0,4.2,0c0.6,0,0.8,0.2,0.9,0.9c0.1,0.5,0.1,1,0.1,1.4c0,0.9,0.2,1,1.1,1
			c0.2,0,0.5,0,0.7,0c0.2,0.1,0.4,0.3,0.5,0.5c0,0.1-0.1,0.5-0.3,0.5c-0.4,0.2-0.8,0.3-1.1,0.3C125.7,86.6,124.7,86.5,123.6,86.5
			C123.6,86.5,123.6,86.5,123.6,86.5z M120,82.9c0,0.7,0,1.3,0.1,1.8c0,0.1,0.3,0.2,0.5,0.3c0.1-0.2,0.2-0.3,0.2-0.5
			c0-0.4-0.1-0.8-0.1-1.2C120.7,83.2,120.6,83,120,82.9z M123.8,84.1C123.8,84.1,123.8,84.1,123.8,84.1c0,0.2,0,0.5,0,0.7
			c0,0.1,0.2,0.2,0.3,0.3c0.1,0,0.3-0.2,0.3-0.3c0-0.4-0.1-0.9-0.1-1.3c0-0.1-0.2-0.2-0.2-0.2c-0.1,0.1-0.2,0.2-0.2,0.3
			C123.8,83.8,123.8,84,123.8,84.1z M122.3,84.5c0,0,0.1,0,0.1,0c0-0.4,0-0.7,0-1.1c-0.1,0-0.1,0-0.2,0
			C122.3,83.7,122.3,84.1,122.3,84.5z"/>
		<path class="st2" d="M84.9,79.2c0-0.8,0-1.6,0-2.4c0-0.2-0.1-0.4-0.2-0.6c-0.2,0.1-0.3,0.2-0.5,0.2c-0.4,0.2-0.8,0.4-1.2,0.5
			c-0.1,0-0.4-0.1-0.5-0.3c-0.1-0.1,0.1-0.4,0.2-0.5c1.1-1.1,2.1-2.3,3.2-3.4c0.2-0.2,1.2-0.3,1.3,0c0.1,0.2,0.1,0.5,0,0.7
			c-0.3,0.4-0.6,0.8-0.9,1.3c-0.2,0.3-0.1,0.5,0.2,0.6c0.3,0,0.6,0,0.9,0c1,0,1.6,0.5,1.6,1.6c0,1.3,0,2.7,0,4
			c0,0.5-0.2,0.8-0.7,0.8c-0.6,0.1-1.2,0.2-1.8,0.3c-0.2,0-0.4,0.2-0.6,0.3c-0.3,0.1-0.6,0.2-0.8,0.1c-0.2-0.1-0.3-0.5-0.3-0.7
			C84.8,80.8,84.9,80,84.9,79.2C84.9,79.2,84.9,79.2,84.9,79.2z M86.6,80.6c0.6,0,1.1-0.4,1.1-0.7c0-0.5-0.3-0.7-0.8-0.7
			c-0.5,0-0.6,0.3-0.6,1.1C86.3,80.4,86.5,80.5,86.6,80.6z M86.3,77.5c0.2,0.2,0.3,0.5,0.5,0.5c0.4,0.1,0.7-0.1,0.7-0.6
			c0-0.4-0.2-0.7-0.7-0.7C86.3,76.7,86.5,77.1,86.3,77.5z"/>
		<path class="st2" d="M98.5,81.7c0,1.6-0.1,3.5-0.6,5.3c-0.3,1-0.9,1.3-1.8,0.8c-0.7-0.3-1.1-0.8-1.5-1.4c-0.1-0.2,0-0.5,0-0.8
			c0.3,0.1,0.5,0,0.8,0.2c0.2,0.1,0.4,0.4,0.6,0.6c0.3,0.3,0.5,0.2,0.6-0.2c0.4-2,0.4-4,0.3-6c0-0.6-0.1-1.2-0.2-1.8
			c-0.1-0.4-0.4-0.6-0.8-0.6c-0.5,0-1,0-1.5-0.1c-0.4-0.1-0.7,0.1-0.8,0.5c-0.1,0.3-0.2,0.6-0.4,0.9c-0.1,0.2-0.2,0.5-0.4,0.7
			c-0.2,0.1-0.5,0.2-0.7,0.2c-0.1,0-0.2-0.4-0.2-0.6c0.1-1.1,0.2-2.2,0.7-3.2c0.2-0.3,0.2-0.7,0.3-1.1c0.1-0.4,0.4-0.7,0.8-0.6
			c0.6,0.1,0.8,0.4,0.8,0.9c0,0.1,0,0.1,0,0.2c-0.1,0.9-0.1,0.8,0.8,0.8c0.6,0,1.2,0,1.8,0c0.8,0,1.3,0.5,1.3,1.3
			C98.4,78.9,98.4,80.1,98.5,81.7z"/>
		<path class="st2" d="M158.1,81.7c-0.1,0.2-0.3,0.3-0.4,0.5c-0.3,0.2-0.5,0.4-0.8,0.6c-0.1,0.1-0.3,0.1-0.4,0.2
			c-0.1,0-0.2,0-0.2-0.1c0,0,0-0.1,0.1-0.2c0.2-0.2,0.4-0.4,0.6-0.6c0.1-0.1,0.1-0.2,0-0.2c-0.7-0.2-0.7-1.1-0.3-1.5
			c0.1-0.1,0.1-0.1,0.2-0.2c0.3-0.2,0.8-0.2,1,0.1C158.3,80.8,158.3,81.2,158.1,81.7C158.1,81.7,158.1,81.7,158.1,81.7z"/>
		<path class="st2" d="M238.2,73.3c0-0.3-0.1-0.8-0.1-1.3c0-1,0.5-1.4,1.5-1.1c0.6,0.2,1.2,0.2,1.8,0.2c0.3,0,0.4-0.2,0.3-0.5
			c-0.1-0.2-0.2-0.4-0.3-0.6c-0.1-0.3-0.4-0.6-0.1-0.9c0.2-0.2,1-0.2,1.2,0.1c0.3,0.4,0.5,0.8,0.6,1.3c0.1,0.4,0.2,0.6,0.6,0.6
			c0.7,0.1,1.5,0.2,2.2,0.3c0.9,0.1,1.4,0.6,1.3,1.5c-0.1,0.6-0.2,1.2-0.4,1.8c-0.1,0.2-0.4,0.5-0.6,0.5c-0.3-0.1-0.5-0.4-0.6-0.6
			c-0.1-0.3-0.1-0.6-0.1-0.9c0-0.4-0.1-0.6-0.6-0.6c-1.5-0.1-3-0.2-4.5-0.3c-0.4,0-0.6,0.1-0.6,0.5c0,0.6-0.1,1.3-0.3,1.9
			c-0.1,0.4-0.4,0.7-0.8,0.7c-0.5-0.1-0.7-0.4-0.7-0.9C238.2,74.5,238.2,74,238.2,73.3z"/>
		<path class="st2" d="M69.5,71.1c0.9,0.3,1.9,0.5,2.8,0.9c0.6,0.2,0.8,0.7,0.7,1.3c-0.1,0.5-0.2,1-0.4,1.4
			c-0.1,0.2-0.4,0.4-0.6,0.3c-0.2,0-0.4-0.3-0.5-0.5c-0.2-1.2-0.3-1.4-1.5-1.6c-1.2-0.2-2.4-0.2-3.6-0.2c-1.2,0-1.2,0-1.3,1.1
			c0,0.4,0,0.9-0.1,1.3c0,0.2-0.2,0.5-0.4,0.5c-0.3,0.1-0.6,0.1-0.7-0.3c-0.1-0.5-0.2-1.1-0.3-1.6c-0.1-0.5-0.2-1-0.3-1.6
			c0-0.3-0.1-0.8,0.1-1c0.1-0.2,0.7-0.2,1-0.1c0.8,0.2,1.5,0.4,2.3,0.3c0.3,0,0.6,0,0.5-0.5c-0.1-0.5-0.2-1-0.2-1.5
			c0-0.2,0-0.5,0-0.7c0.2-0.5,0.6-0.6,1-0.3c0.4,0.4,0.7,0.7,0.5,1.3c-0.1,0.4-0.2,0.8-0.3,1.1c-0.1,0.3,0,0.5,0.3,0.5
			c0.2,0,0.4,0,0.6,0C69.5,71.2,69.5,71.2,69.5,71.1z"/>
		<path class="st2" d="M147.7,83.3c-0.3,0.9-0.6,1.8-1,2.6c-0.2,0.4-0.2,0.7,0.1,1c0.5,0.4,1,0.8,1.5,1.3c0.2,0.2,0.6,0.7,0.5,0.8
			c-0.2,0.4-0.7,0.2-1,0c-0.6-0.3-1.2-0.7-1.9-1c-0.1-0.1-0.4,0-0.4,0.1c-0.3,0.6-0.9,0.9-1.5,1.2c-0.3,0.2-0.6,0.1-0.8-0.2
			c-0.1-0.1,0.1-0.4,0.2-0.6c0.2-0.3,0.5-0.5,0.7-0.8c0.6-0.9,0.6-1.1-0.1-2c-0.5-0.7-0.8-1.4-1.2-2.1c-0.2-0.3-0.1-0.6,0.2-0.8
			c0.3-0.2,0.5-0.3,0.8-0.1c0.6,0.3,1.2,0.1,1.8,0c0.3-0.1,0.6-0.2,0.9-0.3C147.2,82.2,147.6,82.5,147.7,83.3z M145.5,84
			c-0.2,0.2-0.4,0.3-0.5,0.4c0.1,0.2,0.3,0.4,0.4,0.5c0.1-0.2,0.3-0.4,0.4-0.6C145.8,84.3,145.6,84.2,145.5,84z"/>
		<path class="st2" d="M112.9,81.1c-1.1-0.2-2.3-0.3-3.3-1c-0.3-0.2-0.5-0.5-0.3-0.9c0.2-0.2,0.5-0.3,0.8-0.4c0.1,0,0.2,0.1,0.2,0.1
			c0.7,0.2,1.5,0.3,2.2,0.5c0.3,0.1,0.5,0.1,0.7,0.3c0.4,0.2,0.6,0.5,0.5,0.9C113.6,81.1,113.2,81.1,112.9,81.1z"/>
		<path class="st2" d="M216.3,81.2c-0.2-0.1-0.4-0.3-0.6-0.4c-0.4-0.2-0.8-0.6-1.2-0.7c-0.9-0.3-1.1-1-1.5-1.7
			c0-0.1,0.1-0.3,0.2-0.4c0.1-0.1,0.4-0.2,0.5-0.1c0.9,0.5,1.9,1.1,2.8,1.7c0.2,0.1,0.3,0.3,0.4,0.5c0.1,0.2,0.2,0.5,0.1,0.6
			C216.8,81,216.5,81.1,216.3,81.2z"/>
		<path class="st2" d="M112.4,78.2c-1.2-0.2-2.4-0.7-3.2-1.9c-0.2-0.3-0.1-0.4,0.2-0.5c0.8-0.2,1.4,0.2,2,0.5
			c0.4,0.2,0.9,0.4,1.3,0.6c0.4,0.2,0.9,0.2,0.8,0.8C113.5,78.3,112.9,78.2,112.4,78.2z"/>
		<path class="st2" d="M214,88.3c-0.2-0.2-0.4-0.4-0.5-0.6c0-0.2,0-0.6,0.2-0.8c0.3-0.3,0.7-0.4,1.1-0.6c0.5-0.3,1-0.7,1.5-0.9
			c0.2-0.1,0.6-0.1,0.8,0c0.3,0.1,0.3,0.5,0.1,0.7c-0.6,0.8-1.2,1.7-2.4,1.8C214.6,87.9,214.3,88.1,214,88.3z"/>
		<path class="st2" d="M215.5,84.3c-0.7-0.2-1.4-0.3-2.2-0.5c-0.2-0.1-0.5-0.2-0.6-0.4c-0.1-0.2-0.2-0.5-0.1-0.7
			c0.1-0.2,0.4-0.5,0.8-0.3c0.7,0.2,1.4,0.3,2.1,0.6c0.4,0.1,0.7,0.4,1,0.7c0.3,0.3,0.1,0.6-0.3,0.6C216,84.2,215.8,84.2,215.5,84.3
			C215.5,84.2,215.5,84.2,215.5,84.3z"/>
		<path class="st2" d="M111.8,83.5c-0.6-0.1-1.2,0-1.3-0.6c-0.1-0.6,0.5-0.7,1-0.8c0.7-0.2,1.3-0.5,1.9-0.7c0.1-0.1,0.3-0.1,0.5,0
			c0.5,0.1,0.7,0.4,0.3,0.8C113.5,82.9,112.7,83.4,111.8,83.5z"/>
		<path class="st2" d="M96.2,82.1c-0.1,0.2-0.2,0.4-0.3,0.4c-0.3,0-0.7,0.1-0.8-0.1c-0.4-0.5-0.8-1-1.1-1.5c-0.1-0.2,0-0.7,0.2-0.8
			c0.1-0.1,0.6-0.1,0.8,0C95.5,80.7,95.9,81.4,96.2,82.1z"/>
		<g>
			<path class="st2" d="M189.6,83c0.1-0.7,0.1-1.4,0.2-2.1c0-0.4-0.2-0.5-0.5-0.6c-0.1,0-0.3,0-0.4,0c-0.4,0-0.8-0.1-0.8-0.5
				c0-0.5,0.4-0.6,0.8-0.6c0.5,0,0.8-0.2,0.7-0.8c0-0.1,0-0.2,0-0.3c0-0.7-0.1-0.8-0.7-0.7c-0.5,0-0.9,0.1-1.4,0
				c-0.3,0-0.6-0.1-0.9-0.3c-0.2-0.1-0.3-0.5-0.2-0.7c0.1-0.2,0.4-0.4,0.6-0.5c0.7-0.1,1.5-0.2,2.2-0.3c0.1,0,0.3-0.3,0.3-0.4
				c0-0.1-0.2-0.3-0.4-0.3c-0.7-0.1-1.4-0.3-1.9-0.8c-0.2-0.2-0.4-0.4-0.2-0.8c0.2-0.3,0.5-0.2,0.8-0.2c0.7,0.1,1.4,0.1,2.1,0
				c0.5,0,1-0.2,1.5-0.2c0.2,0,0.5,0.2,0.6,0.3c0.1,0.2,0,0.5-0.1,0.7c-0.1,0.2-0.4,0.3-0.5,0.5c-0.1,0.1-0.1,0.2-0.1,0.3
				c0,0.1,0.2,0.2,0.3,0.1c0.7-0.1,1.3-0.3,1.9-0.5c0.1,0,0.2-0.3,0.2-0.4c0-0.3-0.1-0.6-0.1-1c0-0.2,0.1-0.6,0.2-0.6
				c0.2,0,0.6,0,0.7,0.2c0.5,0.5,1,1,1.4,1.6c0.1,0.1,0.1,0.4,0.1,0.6c-0.1,0.5-0.3,0.9-0.2,1.4c0,0.7,0.2,1.5,0.3,2.2
				c0.1,0,0.1,0,0.2,0c0.1-0.3,0.3-0.5,0.4-0.8c0.2-0.4,0.4-0.8,1-0.8c0.6,0,0.8,0.4,0.6,0.9c-0.2,0.4-0.3,0.9-0.5,1.3
				c-0.2,0.5-0.5,1-0.8,1.4c-0.4,0.5-0.4,1.1-0.3,1.7c0.2,1,0.4,1.9,0.7,2.9c0,0.2,0.1,0.4,0.2,0.5c0.1,0.1,0.2,0.2,0.3,0.2
				c0.1,0,0.2-0.1,0.2-0.2c0.1-0.1,0-0.3,0.1-0.4c0.2-0.1,0.4-0.2,0.5-0.2c0.1,0,0.2,0.3,0.2,0.5c0,0.3-0.1,0.7-0.1,1
				c-0.1,0.7-0.4,1.1-1,1.2c-0.6,0.1-0.9-0.3-1-0.8c-0.4-1-0.7-2-1-3.1c-0.2-0.7-0.3-0.7-0.8-0.3c-0.1,0.1-0.3,0.2-0.5,0.3
				c-0.4,0.2-0.7,0.2-1-0.1c-0.3-0.4,0.1-0.5,0.3-0.8c0.4-0.5,0.8-1.1,1.2-1.6c0.1-0.2,0.2-0.5,0.1-0.8c-0.2-1.5-0.5-2.9-0.8-4.4
				c0-0.1-0.3-0.3-0.4-0.3c-0.7,0.2-1.4,0.4-2.2,0.7c0,0-0.1,0-0.1,0.1c-0.2,0.2-0.4,2.1-0.1,2.2c0.1,0.1,0.3,0.1,0.5,0.1
				c0.1,0,0.2-0.1,0.3-0.2c0.4-0.2,0.7-0.1,0.9,0.2c0.3,0.3,0,0.6-0.2,0.8c-0.1,0.1-0.3,0.2-0.5,0.2c-1.1,0.2-1.2,0.3-1.1,1.4
				c0,0.8,0.1,1.5,0.1,2.3c0,0.5-0.7,1.1-1.3,0.9c-0.5-0.2-1-0.6-1.5-0.9c-0.1-0.1-0.2-0.5-0.1-0.6c0.1-0.1,0.3-0.2,0.5-0.2
				C189.2,82.9,189.3,83,189.6,83z"/>
			<path class="st2" d="M201,74.4c-0.1,0.1-0.2,0.4-0.5,0.5c-0.1,0.1-0.4,0-0.6-0.1c-0.4-0.3-0.8-0.6-1.2-0.9
				c-0.2-0.2-0.3-0.4-0.5-0.7c0.3-0.2,0.5-0.4,0.8-0.5c0.4-0.1,1.7,0.9,1.9,1.3C201,74.1,201,74.2,201,74.4z"/>
		</g>
	</g>
	<g>
		<path class="st2" d="M72.9,101.3c0-0.4,0-0.7,0-1.1c0-0.5-0.2-0.6-0.7-0.7c-0.4,0-0.5,0.1-0.5,0.5c0,0.6,0,1.3,0,1.9
			c0,0.1,0,0.2,0,0.2c0,0.2-0.2,0.4-0.4,0.4c-0.2,0-0.4-0.2-0.4-0.4c0-1.5,0-2.9,0.2-4.4c0-0.1,0-0.3-0.1-0.4
			c-0.1-0.3,0-0.5,0.3-0.5c0.2-0.1,0.4-0.1,0.6-0.2c0.6-0.2,1.1,0.2,1.2,0.8c0,0.6,0,1.3-0.1,1.9c0,0.2,0,0.2,0.2,0.2
			c0.2,0,0.5,0,0.7,0c0.4,0,0.6,0.2,0.7,0.4c0.1,0.2,0.1,0.5,0.2,0.7c0,0.4,0,0.7,0,1.1c0,0.1,0,0.3,0.1,0.4
			c0.1,0.2,0.1,0.3-0.1,0.4c-0.6,0.3-1.1,0.4-1.7,0.1c-0.1,0-0.1-0.2-0.1-0.3C72.9,102,72.9,101.7,72.9,101.3
			C72.9,101.3,72.9,101.3,72.9,101.3z M73.6,101.8c0,0.2,0,0.3,0.2,0.3c0.2,0,0.3-0.2,0.2-0.3c0-0.2,0-0.5-0.2-0.5
			C73.6,101.3,73.6,101.6,73.6,101.8z M71.7,98.8c0,0,0.1,0.1,0.2,0.2c0.2,0,0.4-0.2,0.4-0.4c0-0.1-0.1-0.2-0.2-0.2
			C71.9,98.3,71.7,98.5,71.7,98.8z M71.7,97.5c0.1,0.1,0.2,0.2,0.3,0.2c0.2,0,0.4,0,0.3-0.2c0-0.1-0.1-0.2-0.2-0.3
			C71.9,97.3,71.8,97.4,71.7,97.5z M73.6,100.1c0.1,0.2,0.1,0.4,0.2,0.5c0.1,0,0.2-0.1,0.2-0.1C74,100.3,73.9,100.2,73.6,100.1z"/>
		<path class="st2" d="M55.8,100c-0.3,0-0.6,0-0.9,0c-0.2,0-0.5-0.1-0.5-0.3c0-0.1,0.3-0.2,0.4-0.3c0.1-0.1,0.3,0,0.4,0
			c0.2,0,0.2-0.1,0.2-0.2c-0.1-0.4-0.1-0.4-0.5-0.6c-0.2,0-0.3-0.1-0.5-0.2c-0.1,0-0.1-0.2-0.1-0.3c0-0.1,0.1-0.1,0.2-0.1
			c0.2,0,0.3,0,0.5,0c0.1,0,0.1-0.1,0.2-0.2c-0.1,0-0.2-0.1-0.2-0.1c-0.3,0-0.5,0-0.8-0.2c-0.2-0.1-0.2-0.3-0.1-0.5
			c0-0.1,0.2-0.1,0.3-0.2c0.1,0,0.2,0,0.2,0c0.1,0,0.4,0,0.4-0.1c0.1-0.1,0.1-0.4,0-0.5c0-0.1-0.3-0.2-0.4-0.2
			c-0.3,0-0.6-0.1-0.8-0.3c-0.1,0-0.1-0.1-0.1-0.2c0-0.1,0.1-0.2,0.2-0.2c0.2,0,0.4,0,0.6,0c0.3,0,0.3,0,0.3-0.3
			c0-0.2,0-0.4,0.1-0.7c0-0.1,0.2-0.3,0.3-0.3c0.1,0,0.3,0.2,0.3,0.3c0.1,0.2,0.1,0.5,0.1,0.7c0,0.2,0.1,0.2,0.3,0.3
			c0.3,0,0.6,0.1,1,0.2c0.1,0,0.2,0.2,0.2,0.2c-0.1,0.1-0.2,0.2-0.3,0.2c-0.2,0-0.4,0-0.6,0c-0.2,0-0.3,0-0.3,0.2
			c0,0.3,0.1,0.5,0.3,0.5c0.1,0,0.3,0,0.4,0c0.1,0,0.2,0.1,0.2,0.2c0,0.1,0,0.2-0.1,0.3c-0.1,0.1-0.3,0.1-0.5,0.2
			c-0.1,0-0.1,0.1-0.2,0.2c0.1,0,0.1,0.1,0.2,0.1c0.2,0,0.4-0.1,0.5-0.1c0.1,0,0.3,0.1,0.3,0.1c0,0.1,0,0.3-0.1,0.4
			c-0.1,0.1-0.3,0.1-0.4,0.2c-0.4,0.2-0.5,0.2-0.5,0.7c0,0.2,0.1,0.3,0.2,0.3c0.2,0,0.3,0.1,0.5,0.2c0.1,0.1,0.2,0.2,0.1,0.3
			c0,0.1-0.2,0.2-0.3,0.2C56.4,100,56.1,100,55.8,100z"/>
		<path class="st2" d="M75.2,97.7c0-0.3,0-0.7,0-1c0-0.4,0.2-0.5,0.5-0.5c0.2,0,0.4,0,0.7,0c0.5-0.1,0.8,0.1,1,0.4
			c0.1,0.1,0.2,0.2,0.2,0.4c0.1,0.7,0.1,1.4,0.2,2.1c0,0.8,0.1,1.6,0.1,2.4c0,0.9-0.1,1.7-0.1,2.6c0,0.1-0.2,0.4-0.3,0.4
			c-0.2,0-0.5-0.1-0.7-0.2c-0.1-0.1-0.2-0.3-0.3-0.4c0-0.1,0-0.2,0-0.2c0.1,0,0.2,0,0.3,0c0.3,0.1,0.3,0.1,0.3-0.2c0-1,0-2,0-2.9
			c0-0.4,0-0.8,0-1.3c0-0.3-0.1-0.3-0.3-0.2c-0.3,0.1-0.5,0.2-0.8,0.3c-0.3,0.1-0.6-0.1-0.7-0.5C75.2,98.3,75.2,98,75.2,97.7
			C75.2,97.7,75.2,97.7,75.2,97.7z M76.2,98.3c0.2-0.1,0.4-0.1,0.5-0.2c0.1,0,0.1-0.1,0.2-0.2c-0.1,0-0.2-0.1-0.3-0.1
			c-0.2,0-0.3,0.1-0.5,0.1c-0.1,0-0.1,0.2-0.2,0.2C76,98.2,76.1,98.3,76.2,98.3z M76.7,97.1c-0.1-0.3-0.3-0.3-0.6-0.3
			c-0.2,0-0.2,0.2-0.2,0.4c0,0,0.1,0.1,0.2,0.1C76.3,97.3,76.5,97.2,76.7,97.1z"/>
		<path class="st2" d="M54.8,102.3c0.2,0.4,0.4,0.8,0.8,1.1c0.1,0.1,0.4,0.2,0.2,0.4c-0.1,0.2-0.4,0.1-0.6,0.1
			c-0.1,0-0.1-0.1-0.3-0.1c0,0.1,0,0.2,0,0.3c0,0.3,0,0.6,0,0.9c0,0.3-0.3,0.7-0.6,0.7c-0.3,0-0.4-0.2-0.3-0.5
			c0.3-0.6,0-1.2,0.1-1.7c0,0-0.1,0-0.1,0c-0.1,0.1-0.1,0.3-0.2,0.4c-0.2,0.2-0.3,0.5-0.5,0.7c-0.1,0.1-0.3,0.1-0.4,0
			c-0.1-0.1-0.1-0.3,0-0.4c0.1-0.1,0.2-0.3,0.3-0.5c0.1-0.3,0.2-0.7,0.4-1c0.1-0.2,0-0.3-0.2-0.3c-0.1,0-0.3,0-0.4,0
			c-0.1,0-0.2,0-0.3-0.1c-0.1-0.1-0.2-0.2-0.2-0.3c0-0.1,0.2-0.2,0.3-0.3c0.2,0,0.4,0,0.6,0c0.3,0,0.4,0,0.3-0.4c0-0.1,0-0.2,0-0.2
			c0.1-0.1,0.1-0.3,0.2-0.3c0.1,0,0.3,0,0.3,0.1c0.1,0.1,0.1,0.2,0.2,0.4c0.1,0.3,0.2,0.4,0.5,0.4c0.1,0,0.2-0.1,0.4-0.1
			c0.2,0,0.4,0,0.5,0.2c0.1,0.2-0.1,0.4-0.3,0.5c-0.1,0-0.2,0.1-0.3,0.1C55.1,102.2,55,102.3,54.8,102.3z"/>
		<path class="st2" d="M45.4,100c0.2,0.2,0.4,0.4,0.6,0.6c0.5,0.4,1.1,0.8,1.6,1.2c0.1,0.1,0.1,0.2,0.2,0.3c-0.1,0-0.3,0.2-0.4,0.1
			c-0.4-0.1-0.7-0.3-1-0.5c-0.5-0.4-0.9-0.8-1.4-1.2c-0.1,0-0.1-0.1-0.2-0.1c-0.2,0.4-0.5,0.8-0.7,1.2c-0.2,0.3-0.4,0.5-0.6,0.7
			c-0.1,0.1-0.3,0.1-0.4,0c-0.1-0.1,0-0.3,0-0.4c0.3-0.5,0.6-1,0.9-1.6c0.1-0.2,0-0.3-0.2-0.2c-0.2,0-0.4,0-0.5-0.1
			c-0.1,0-0.2-0.2-0.2-0.3c0-0.2,0.1-0.2,0.2-0.3c0.2,0,0.4-0.1,0.5-0.1c0.5,0,0.7-0.4,0.7-0.8c0-0.2,0-0.3,0.2-0.3
			c0.1,0,0.4,0,0.4,0.1c0.1,0.1,0.1,0.3,0.1,0.5c0,0.3,0,0.4,0.3,0.3c0.3-0.1,0.6-0.1,0.9-0.1c0.2,0,0.3,0,0.4,0.2
			c0,0.2-0.1,0.4-0.3,0.4c-0.3,0.1-0.6,0.1-0.9,0.2C45.6,100,45.5,100,45.4,100z"/>
		<path class="st2" d="M65.8,101.4c-0.1,0.7-0.1,1.4-0.2,2.1c0,0.3-0.1,0.6-0.2,0.8c-0.1,0.3-0.5,0.4-0.8,0.2
			c-0.3-0.2-0.6-0.5-0.7-0.8c0-0.1,0-0.3,0-0.3c0.1,0,0.3,0,0.4,0c0.1,0.1,0.2,0.2,0.4,0.3c0-0.1,0.1-0.3,0.1-0.4
			c0.2-0.9,0.3-1.8,0.2-2.7c-0.1-0.9,0-0.6-0.9-0.9c-0.2-0.1-0.4-0.1-0.5-0.2c-0.1-0.1-0.1-0.2-0.2-0.3c0.1-0.1,0.2-0.1,0.3-0.1
			c0.3,0,0.6,0,0.9,0c0.2,0,0.3,0,0.4-0.3c0-0.3,0.2-0.4,0.5-0.3c0.2,0,0.3,0.2,0.3,0.4c0,0.2,0.1,0.3,0.3,0.3
			c0.2,0,0.4,0.1,0.6,0.1c0.1,0,0.2,0.2,0.2,0.3c0,0.1-0.1,0.2-0.2,0.3c-0.2,0.1-0.4,0-0.5,0c-0.2,0-0.3,0.1-0.2,0.3
			c0,0.2,0,0.4,0,0.6C65.8,101,65.8,101.2,65.8,101.4C65.8,101.4,65.8,101.4,65.8,101.4z"/>
		<path class="st2" d="M44.3,103.7c0.4,0,0.4,0,0.6-0.4c0.1-0.3,0.4-0.4,0.7-0.3c0.2,0.1,0.2,0.3,0.1,0.5c-0.2,0.2-0.1,0.3,0.2,0.3
			c0.2,0,0.4,0.1,0.6,0.2c0.2,0.1,0.3,0.3,0.2,0.6c-0.1,0.5-0.3,1-0.6,1.5c-0.2,0.3-0.4,0.3-0.6,0.2c-0.4-0.2-0.5-0.6-0.4-0.9
			c0-0.1,0.2-0.1,0.2-0.1c0.2,0,0.5-0.3,0.5-0.5c0-0.1-0.1-0.2-0.2-0.3c-0.1,0-0.3,0-0.3,0.1c-0.2,0.2-0.3,0.5-0.4,0.7
			c-0.3,0.4-0.6,0.7-0.9,1.1c-0.1,0.1-0.2,0.2-0.3,0.2c-0.1,0-0.2,0-0.4-0.1c0-0.1,0-0.3,0.1-0.3c0.2-0.3,0.5-0.6,0.7-0.9
			c0.1-0.2,0.2-0.4,0.3-0.6c0.1-0.1,0-0.2-0.1-0.3c-0.1,0-0.3-0.1-0.4-0.2c-0.1-0.1-0.2-0.2-0.2-0.3c0-0.1,0.1-0.2,0.2-0.2
			C44,103.7,44.1,103.7,44.3,103.7z"/>
		<path class="st2" d="M61.9,99.5c0,0.3,0,0.7,0,1c0,0.1-0.1,0.4-0.2,0.4c-0.5,0.2-1,0.4-1.6,0.5c-0.3,0.1-0.5-0.2-0.5-0.5
			c0-0.6-0.1-1.2-0.1-1.8c0-0.2,0-0.3,0-0.5c0-0.2,0-0.4,0-0.5c-0.1-0.3,0.1-0.5,0.4-0.4c0.5,0.2,1,0.4,1.5,0.6
			c0.3,0.1,0.4,0.5,0.4,0.8C61.9,99.2,61.9,99.3,61.9,99.5C61.9,99.5,61.9,99.5,61.9,99.5z M60.4,100.4c0.1,0,0.2,0.2,0.3,0.1
			c0.2,0,0.4-0.1,0.4-0.3c0-0.2-0.1-0.3-0.3-0.3C60.5,99.9,60.4,100.1,60.4,100.4z M60.8,99.2c0,0,0.1-0.1,0.2-0.2
			c-0.1-0.1-0.3-0.3-0.4-0.4c0,0.1-0.1,0.1-0.1,0.2C60.5,99,60.5,99.2,60.8,99.2z"/>
		<path class="st2" d="M51.7,97.4c-0.4,0.2-0.7,0.4-1.1,0.6c-0.1,0-0.2,0.1-0.2,0.1c-0.1,0-0.2-0.1-0.3-0.2c0.1-0.1,0.1-0.2,0.2-0.3
			c0.2-0.2,0.4-0.3,0.6-0.5c0.2-0.1,0.3-0.3,0.5-0.4c0,0,0.1-0.1,0.1-0.1c0.1-0.4,0.4-0.6,0.7-0.9c0.1-0.1,0.2-0.3,0.2-0.5
			c0.1-0.2,0.2-0.3,0.5-0.2c0.3,0.1,0.4,0.3,0.3,0.5c-0.2,0.4-0.4,0.7-0.6,1c-0.1,0.3-0.2,0.5-0.1,0.8c0.1,0.5,0.2,1.1,0.3,1.7
			c0,0.2,0.1,0.5,0.1,0.7c0,0.2,0.1,0.4-0.2,0.4c-0.2,0.1-0.4,0-0.5-0.2c-0.1-0.2-0.1-0.4-0.2-0.7c-0.1-0.6-0.2-1.1-0.2-1.7
			C51.7,97.5,51.7,97.5,51.7,97.4z"/>
		<path class="st2" d="M44.8,95.3c0.3,0.1,0.5,0.1,0.8,0.2c0.3,0.1,0.4,0.3,0.4,0.6c0,0.4-0.1,0.9-0.1,1.3c0,0.1,0,0.1,0,0.2
			c-0.1,0.4-0.3,0.6-0.7,0.6c-0.2,0-0.5,0-0.7,0c-0.3,0-0.5-0.2-0.5-0.5c-0.1-0.6-0.1-1.2-0.2-1.8c0-0.3,0.2-0.5,0.6-0.6
			C44.5,95.3,44.7,95.3,44.8,95.3C44.8,95.3,44.8,95.3,44.8,95.3z M44.6,97.1c0,0,0,0.1,0,0.1c0.1,0.1,0.2,0.2,0.3,0.2
			c0.1,0,0.3,0,0.3-0.2c0-0.2,0-0.3-0.2-0.3C44.8,97,44.7,97.1,44.6,97.1z M44.9,96.4c0.1-0.1,0.3-0.2,0.3-0.2
			c0-0.2-0.3-0.2-0.4-0.2c-0.1,0-0.1,0.1-0.2,0.1C44.7,96.2,44.8,96.3,44.9,96.4z"/>
		<path class="st2" d="M65.1,98.2c-0.4-0.1-0.7-0.1-1-0.2c-0.2,0-0.3-0.2-0.2-0.4c0-0.1,0.2-0.2,0.3-0.2c0.2,0,0.4-0.1,0.4-0.3
			c0-0.3-0.2-0.3-0.4-0.4c-0.2,0-0.4-0.1-0.5-0.1c-0.1-0.1-0.2-0.2-0.2-0.4c0-0.1,0.2-0.2,0.3-0.3c0.1,0,0.2,0,0.2,0
			c0.4,0,0.5,0,0.5-0.4c0-0.2,0.1-0.3,0.3-0.4c0.3,0,0.4,0.1,0.4,0.3c0,0.1,0,0.2,0,0.3c0,0.2,0.1,0.3,0.2,0.3c0.2,0,0.4,0,0.6,0
			c0.1,0,0.3,0.1,0.3,0.2c0,0.1-0.1,0.3-0.2,0.3c-0.2,0.1-0.4,0.1-0.6,0.2c-0.2,0-0.3,0-0.3,0.2c0,0.2,0.2,0.3,0.3,0.3
			c0.1,0,0.2,0,0.3,0c0.1,0.1,0.3,0.2,0.3,0.3c0,0.1-0.1,0.3-0.2,0.4C65.7,98,65.4,98.1,65.1,98.2z"/>
		<path class="st2" d="M46.5,94.3c-0.1,0-0.2,0-0.2,0c-0.2,0-0.3,0-0.3,0.2c0,0.2-0.1,0.3-0.3,0.3c-0.2,0-0.3-0.2-0.3-0.3
			c0-0.4,0-0.9-0.1-1.3c0-0.2,0-0.4,0.3-0.5c0.2,0,0.5,0.2,0.5,0.4c0,0.1,0,0.1,0,0.2c0,0.3,0.1,0.4,0.4,0.4c0.1,0,0.2,0,0.3,0
			c0.2-0.1,0.4,0.1,0.5,0.2c0,0.1,0,0.2-0.1,0.3C47.1,94.3,46.8,94.3,46.5,94.3C46.5,94.4,46.5,94.4,46.5,94.3z"/>
		<path class="st2" d="M42.7,93.5c0.1,0.1,0.2,0.1,0.3,0.1c0.1,0,0.2,0,0.3,0.1c0-0.1,0-0.2,0-0.2c0-0.3-0.1-0.5,0.1-0.8
			c0.2-0.2,0.3-0.2,0.4,0c0.1,0.1,0.1,0.2,0.1,0.3c0,0.4,0.1,0.7,0.4,0.9c0,0,0,0,0,0c0.1,0.2-0.1,0.5-0.4,0.7
			c-0.2,0.1-0.3,0.1-0.5-0.1c-0.1-0.1-0.2-0.1-0.3-0.2c-0.2-0.1-0.4-0.2-0.6-0.4c-0.1,0-0.1-0.2-0.1-0.3
			C42.5,93.6,42.6,93.5,42.7,93.5z"/>
		<path class="st2" d="M64.2,102.4C64.2,102.4,64.1,102.4,64.2,102.4c-0.7-0.3-1.1-0.7-1.5-1.2c0,0,0-0.2,0.1-0.2
			c0.1-0.1,0.3-0.2,0.4-0.1c0.2,0.1,0.4,0.3,0.7,0.5c0.1,0.1,0.3,0.3,0.4,0.4c0.1,0.1,0.2,0.2,0.3,0.3
			C64.6,102.2,64.5,102.4,64.2,102.4z"/>
	</g>
	<path class="st2" d="M81.3,98.5c-0.4,0.2-0.8,0.1-1-0.3c-0.1-0.3,0.1-0.7,0.5-0.9c0.4-0.2,0.8-0.1,1,0.3
		C81.9,97.9,81.7,98.3,81.3,98.5z"/>
	<path class="st2" d="M81.1,101.9c-0.4-0.2-0.5-0.7-0.3-1c0.2-0.3,0.6-0.3,1-0.1c0.4,0.2,0.5,0.7,0.3,1
		C82,102.1,81.5,102.2,81.1,101.9z"/>
</g>
</svg>
