<svg id="圖層_1" data-name="圖層 1" xmlns="http://www.w3.org/2000/svg" viewBox="0 0 300 90"><defs><style>.cls-1{fill:#fff;}</style></defs><title>工作區域 1</title><path class="cls-1" d="M128.9,57.39c-1.79,0-3.58.1-5.36,0-2.34-.16-3.1-1.27-3.21-3.59-.19-3.82-.67-7.61-.89-11.42C119.2,38,119,33.65,119,29.3c0-2.66.43-2.86,3.11-2.95,1.2,0,1.7-.5,1.56-1.7a4.58,4.58,0,0,1,.07-1.38c.47-2.35,0-2.9-2.53-3.12a30.36,30.36,0,0,1-5.2-.87c-1.38-.37-2.48-1.38-2-2.94a3.21,3.21,0,0,1,3.44-2.44,12.48,12.48,0,0,1,2.31.54,19,19,0,0,0,10.18,0,13.73,13.73,0,0,1,5.28-.45,4.48,4.48,0,0,1,2.82,2.26c.26.51-.71,2.09-1.5,2.59a9.85,9.85,0,0,1-4,1.33c-3.64.38-5.26,2.17-4.51,5.65.13.59,1.41,1.1,2.25,1.34a49.94,49.94,0,0,0,5.14,1.09c1.65.28,2.08,1.39,2.19,2.84.36,4.28.72,8.56,1.14,12.83.29,2.88.74,5.75,1,8.63a3,3,0,0,1-.55,2,7,7,0,0,1-5.76,3c-1.52-.06-3.05,0-4.57,0Zm1.66-5a.5.5,0,0,1,0-.12h.79c2.1-.05,2.33-.46,2.29-3.16,0-1.78-1-1.8-2.38-1.71a26.48,26.48,0,0,1-3.56-.12c-.79-.06-1.57-.24-2.35-.36-.09,1-.49,2.18-.19,3.08a3.77,3.77,0,0,0,2.09,1.78A16,16,0,0,0,130.56,52.43ZM128,36.18h1c1.12-.07,2.4,0,2.36-1.64s-1-2.11-2.48-2.1c-.89,0-1.79-.46-2.68-.44-.49,0-1.32.47-1.41.87C124.16,35.49,124.89,36.18,128,36.18Zm-2,5.14c0,.29-.07.57-.1.85,1.89.37,3.78.78,5.68,1.06.28,0,.87-.47.9-.77a1.28,1.28,0,0,0-.65-1.06A11.3,11.3,0,0,0,126,41.32Z"/><path class="cls-1" d="M252.44,36.31a10.73,10.73,0,0,0,5.63,8.19A14.69,14.69,0,0,1,260.62,46c.56.5,1.28,1.5,1.11,2a2.75,2.75,0,0,1-1.92,1.54,12.27,12.27,0,0,1-3.45-.51c-.54-.11-1.05-.33-2-.63.26,2.06.51,3.73.66,5.42.32,3.49.6,7,.86,10.48a9.42,9.42,0,0,1-.15,2.18,2.67,2.67,0,0,1-2.8,2.32c-1.51,0-2-1.12-2.09-2.41-.44-4.68-.86-9.35-1.33-14a22,22,0,0,0-.56-2.5l-.64,0c-.34.59-.64,1.19-1,1.75a52.8,52.8,0,0,1-3.82,5.5,3,3,0,0,1-2.73.42c-1.19-.52-1.42-1.69-.81-3q3.07-6.68,6-13.42c.28-.66.45-1.78.1-2.16s-1.45-.37-2.17-.25c-2.47.4-5,1.38-7.33-.12-.75-.47-1.66-1.43-1.63-2.14s1.1-1.55,1.89-1.82a30.57,30.57,0,0,1,5-1c1.5-.23,3-.41,3.32-2.24.25-1.52-1.49-4.46-2.85-4.84-.81-.24-1.74-.11-2.53-.39a9.76,9.76,0,0,1-3.25-1.64,2.68,2.68,0,0,1-.3-2.32c.15-.48,1.07-.91,1.7-1a19.71,19.71,0,0,1,3.17,0c.4,0,.87.17,1.18,0,3-1.51,6.14-.88,9.22-.72a6.45,6.45,0,0,1,3.76,1.34,4,4,0,0,1,.62,3.24c-.12.55-1.53.84-2.37,1.21-.16.08-.4,0-.59,0a12.53,12.53,0,0,0-2.44.57,7.6,7.6,0,0,0,.81,3.55c.29.45,1.74.29,2.64.2,1.56-.17,3.08-.62,4.64-.74a2.16,2.16,0,0,1,2.52,2,2.33,2.33,0,0,1-1.85,2.68c-1.89.59-3.83,1-5.74,1.51A7.17,7.17,0,0,0,252.44,36.31Z"/><path class="cls-1" d="M281.14,73.15a71.59,71.59,0,0,0-7.18,0c-2.62.28-4.76-.93-7-1.9a3,3,0,0,1-1.37-2.15c0-.6.78-1.38,1.38-1.87,1.68-1.39,3.25-1.12,5.22-.1,1.72.88,3.94.83,5.95,1,.28,0,1-1.09.91-1.28a10.53,10.53,0,0,0-2.23-2.76c-.8-.63-2-.72-2.86-1.32s-1.82-1.61-1.67-2.16c.22-.81,1.32-1.47,2.18-2s2.34-.49,2.5-1a9.75,9.75,0,0,0,.07-4.1c-.08-.51-.94-1-1.52-1.32a11.36,11.36,0,0,1-2.25-1.17c-.53-.53-1.14-1.58-.94-2.11a3.19,3.19,0,0,1,2-1.91c4.32-.53,8.67-.85,13-1.18,1.21-.09,2.46,0,2.88,1.49s-.65,2.42-1.73,3a23.18,23.18,0,0,1-3.73,1.31,1.85,1.85,0,0,0-1.38,2.59c.34,1.15.48,2.36.71,3.55a34,34,0,0,1,3.54-.79,11.73,11.73,0,0,1,3.55,0c1.3.27,1.86,1.3.74,2.31A22.46,22.46,0,0,1,288,62a15.39,15.39,0,0,1-2.76,1.09c-1.7.56-1.34,1.89-1.22,3.13A1.86,1.86,0,0,0,286.24,68c2.5-.18,5-.46,7.48-.73a13.47,13.47,0,0,1,2.55-.39,8.64,8.64,0,0,1,2.25.79,8.23,8.23,0,0,1-1,2.55,6,6,0,0,1-2.32,1.05A32,32,0,0,1,281.14,73.15Z"/><path class="cls-1" d="M44.5,30.12c-1.67,3.34-3.09,6.52-4.86,9.5a8.76,8.76,0,0,1-3.35,2.8,2.39,2.39,0,0,1-2.2-.73c-.34-.47-.06-1.58.25-2.27,1.14-2.6,2.41-5.14,3.61-7.71.6-1.28-.24-1.87-1.14-2.58a20.24,20.24,0,0,1-3.58-3.33,2.4,2.4,0,0,1,.6-3.77c1.59-1.06,2.44,0,3.29,1.08a10.22,10.22,0,0,0,1,1.45c.92.84,1.74.84,2.31-.47,1.57-3.57,1.53-3.44-2.21-5a9.28,9.28,0,0,1-3.69-3c-.41-.56,0-2.19.62-2.89a2.75,2.75,0,0,1,2.61-.4c3.61,1.74,7.54,1.67,11.35,2.28a13.22,13.22,0,0,0,2.18,0c3.92,0,5.41,1.48,5.43,5.52,0,2.91,0,5.83-.22,8.74-.13,2.26-.35,4.68-2.9,5.62a6.71,6.71,0,0,1-7.81-2.81C45.39,31.55,45,30.89,44.5,30.12Zm.93-2.86c.8.36,1.58.67,2.33,1,1.42.7,2.13.26,2.18-1.3a24.78,24.78,0,0,0,0-3.55,8.59,8.59,0,0,0-.89-2.23c-.76.49-1.85.81-2.2,1.51A27.62,27.62,0,0,0,45.43,27.26Z"/><path class="cls-1" d="M190.62,20.42a22.85,22.85,0,0,1-3.82,0A14.23,14.23,0,0,1,183,19.09c-1.44-.73-1.29-2-.64-3.26s1.63-1.47,3-1.06a19.88,19.88,0,0,0,4.28.67c.49,0,1-.41,1.52-.64a7.5,7.5,0,0,0-1-1.48c-.48-.42-1.29-.53-1.66-1a2.7,2.7,0,0,1-.57-1.94,2,2,0,0,1,1.35-1.21c2.49-.39,5-.44,6.61,2a4.31,4.31,0,0,1,.7,2.66c-.18,1.41.35,1.86,1.58,1.84a19.79,19.79,0,0,1,2.76-.14,6,6,0,0,1,2.52.88c.52.35,1.11,1.21,1,1.7s-1,.94-1.61,1.16a16.62,16.62,0,0,1-3.47.86c-2,.25-2.88,1.59-3.56,3.28-.85,2.12-1.88,4.17-2.73,6.29a8.18,8.18,0,0,0-.26,2.13c.73-.13,1.67,0,2.15-.44a4.43,4.43,0,0,0,1.52-2.43c.26-1.91,1.63-2.7,3-3.33a2.74,2.74,0,0,1,2.3.38,62.62,62.62,0,0,1,5.79,4.74,7.39,7.39,0,0,1,1.7,2.86,2.85,2.85,0,0,1-1,3.55c-1.28.89-2.24,0-3.18-.73-1.4-1.1-2.8-2.19-4.16-3.33s-2-1-2.78.67c-1.73,3.78-5.35,5-8.91,3.2-3.15-1.57-4.18-4.4-2.69-7.6,1.17-2.51,2.47-5,3.69-7.45A9,9,0,0,0,190.62,20.42Z"/><path class="cls-1" d="M291.12,20.4a53.88,53.88,0,0,1-.35,5.54,2.89,2.89,0,0,1-1.4,2C283.83,30,278.21,31.66,272.2,30c-1.44-.39-2.41-1.39-2.07-2.7,1-3.9-.16-7.62-.5-11.41-.1-1.06-.28-2.1-.43-3.15-.31-2.21.26-2.91,2.49-3a1.67,1.67,0,0,1,.59,0c3.68,1.61,7.36-.06,11.05,0,4.67.1,6.63,1.72,7.21,6.31C290.75,17.71,291,19.35,291.12,20.4Zm-15.3.08h.12c0,.86,0,1.71,0,2.57,0,1.28.69,2.13,1.95,1.92a57.8,57.8,0,0,0,6.51-1.47c.49-.14,1.23-1,1.16-1.34a36.42,36.42,0,0,0-1.64-6c-.5-1.27-1.62-1.5-3-.8a7.33,7.33,0,0,1-3,.74c-1.41.06-2.06.68-2.11,2C275.8,18.9,275.82,19.69,275.82,20.48Z"/><path class="cls-1" d="M108.44,32.42c-1.51-.64-2.21.42-3.38,1.49a12.08,12.08,0,0,1-5.47,2.36,19.87,19.87,0,0,1-5.34,0,3,3,0,0,1-2-.69c-1.41-1.64-2.49-1.29-3.67.2a5.62,5.62,0,0,1-1.52,1.26,2.9,2.9,0,0,1-3.67-.25c-1.28-1.07-.69-2.24.09-3.14,2.61-3,4.2-6.85,7.51-9.37,1-.78,1.51-2.29,2.2-3.48.4-.69.7-1.44,1.12-2.11,1.36-2.16,3.15-2.07,4.41.13A15.72,15.72,0,0,0,109,26.47c1.57.4,3,2.18,2.84,3.6A3,3,0,0,1,108.44,32.42Zm-3.83-1.54c-2-.95-3.44-1.52-4.76-2.29a31.93,31.93,0,0,1-3-2.29l-2.37,3.32c0,.05-.09.09-.13.15-.72.91-.44,1.61.64,1.59C98,31.3,101,31.07,104.61,30.88Z"/><path class="cls-1" d="M11.21,66.67a72.42,72.42,0,0,1-.55-8.29A13.61,13.61,0,0,1,12.21,53c.8-1.57,3.83-1,4.45,1a3.92,3.92,0,0,0,3.09,2.93,5.13,5.13,0,0,1,3.93,4.27,46.59,46.59,0,0,1,.65,5.29c.24,2.15.36,4.33.71,6.46.23,1.43,0,2.56-1.4,3.07s-2.75.78-4.14,1.14a34.12,34.12,0,0,0-3.92,1c-1.91.75-3.77-.44-4-2.79-.24-2.89-.35-5.79-.52-8.69Zm7.41-2.59-.68,0c-.22,2.18-1.06,4.34-.21,6.58.16.42.85.65,1.3,1a5.61,5.61,0,0,0,.4-1.52,23.54,23.54,0,0,0-.38-2.33C18.89,66.56,18.76,65.32,18.62,64.08Z"/><path class="cls-1" d="M100.31,48.77l-2.48.31c-2.74.31-5.45.41-7.6-1.77-1-1.06-1.12-2,.53-2.43s3.57-.82,5.35-1.21,3.46-.83,5.21-1.14c5.84-1,7.47.84,5.57,6.42-.77,2.24-1.81,4.4-2.49,6.67a4.68,4.68,0,0,0,.27,2.9c.55,1.33,1.6,2.44,2.16,3.77.7,1.63,0,2.64-1.77,2.56a4.8,4.8,0,0,1-2.4-.74c-3-2.13-6-4.37-9-6.57l-.15-.13c-1.3-1.15-2.68-2.7-1.36-4.18.78-.87,3.08-1.15,4.28-.66,2,.79,2.6.52,2.86-1.47A11.68,11.68,0,0,1,100.31,48.77Z"/><path class="cls-1" d="M20.66,18a8.07,8.07,0,0,0,.05,2.36,6.12,6.12,0,0,0,1.39,2.09c.27.31.89.28,1.25.54,1.32,1,2.63,2,2.08,3.9s-2.08,2.16-3.69,1.9c-3.59-.57-7.16-1.2-10.72-1.93-2.17-.44-4.3-1.1-6.44-1.67-2.62-.69-3.42-1.58-3-3.3.38-1.54,2.6-2.65,4.56-2.19,1.61.38,3.18.92,4.79,1.3a5.5,5.5,0,0,0,2.52.23,2.1,2.1,0,0,0,1.25-1.55,35.48,35.48,0,0,0-.86-5.88c-.38-1.64-.45-3.07,1.25-3.91,1.33-.67,4.11.24,4.61,1.72a55.33,55.33,0,0,1,1.38,6.31Z"/><path class="cls-1" d="M210.77,61.45c-3.73-.94-7.4-2.2-9-6.37a26.7,26.7,0,0,1-1.45-4.74,4.25,4.25,0,0,1,.57-2.58c.67-1.18,1.67-1.26,2.5-.07,1.64,2.32,3.22,4.67,4.84,7,.34.48.66,1.12,1.14,1.32,2.32,1,3.68-.88,5.23-2,1.15-.83,2.09-1.88,1.29-3.54A6.18,6.18,0,0,1,215,47.7a4,4,0,0,1,1.39-2.36c.22-.2,1.3.48,1.92.87.78.48,1.44,1.14,2.23,1.6a3.52,3.52,0,0,1,1.7,4.69c-1.88,4.51-5.4,7.21-9.89,8.78A7.24,7.24,0,0,1,210.77,61.45Z"/><path class="cls-1" d="M124.58,73.78c.72-4.12,1.38-8.27,2.24-12.36a2.59,2.59,0,0,1,1.86-1.61,2.46,2.46,0,0,1,1.92,1.39c.59,1.7.73,3.57,1.26,5.31a4.5,4.5,0,0,0,1.54,2.41c1.49,1,3.28,1.41,4.78,2.33.7.43,1,1.47,1.53,2.23-.79.44-1.58,1.25-2.38,1.26a24.49,24.49,0,0,1-5.25-.59c-1.28-.27-1.47.33-1.61,1.32a31.85,31.85,0,0,1-.75,3.87C129.29,81,128,81.17,126.57,81S125,79.75,125,78.64c0-1.59,0-3.17,0-4.76Z"/><path class="cls-1" d="M41.49,51.22A4.94,4.94,0,0,1,44,46.75c1.7-1.11,3-.35,3.31,1.67a61.05,61.05,0,0,0,1.82,8.06C49.91,59,52,60.54,54,62.05a2.64,2.64,0,0,1,1,2.18C54.77,65,53.75,66,53.08,66a7.7,7.7,0,0,1-4-1C44.2,61.71,42.11,56.84,41.49,51.22Z"/><path class="cls-1" d="M181.31,57.46c-.23-1.7-.48-3.39-.67-5.09-.17-1.5-.17-3,1.63-3.58s2.95.59,3.66,2.48c1.29,3.46.87,6.88.1,10.32-.28,1.23-.9,2.31-2.38,2.24s-2.07-1.28-2.26-2.59-.21-2.5-.3-3.76Z"/><path class="cls-1" d="M195.86,54c-.46,2.35-.71,4.1-1.18,5.8-.17.58-.88,1.42-1.33,1.41a2.32,2.32,0,0,1-1.8-1.12A25.24,25.24,0,0,1,189.9,47.9c.06-.57,1-1.35,1.71-1.49a2.21,2.21,0,0,1,1.9.89C194.47,49.62,195.19,52,195.86,54Z"/><path class="cls-1" d="M63.65,48.06c.45-.63.89-1.87,1.59-2.06a3,3,0,0,1,2.6,1c1.58,2.56,2.88,5.3,4.26,8a1.12,1.12,0,0,1,.13.77c-.3,1-.66,2-1,2.92-1-.35-2.38-.4-2.92-1.1a41.65,41.65,0,0,1-3.67-6A18.43,18.43,0,0,1,63.65,48.06Z"/><path class="cls-1" d="M164.65,73.63a12.49,12.49,0,0,1-2.46-.74c-.57-.34-1.3-.93-1.36-1.47s.58-1.29,1.11-1.63c3.22-2.06,6.46-4.08,9.78-6,.71-.41,2.05-.69,2.55-.31,1.1.83.38,1.93-.39,2.72-1.9,1.94-3.76,3.93-5.81,5.68A14.63,14.63,0,0,1,164.65,73.63Z"/><path class="cls-1" d="M166,54.19a37.7,37.7,0,0,1,5.32.08c.78.11,1.43,1.08,2.14,1.65a8.81,8.81,0,0,1-1.73,2c-2.93,1.8-6.23,1.33-9.42,1.18a4.5,4.5,0,0,1-2.63-1.39,2.3,2.3,0,0,1-.37-2.11,2.89,2.89,0,0,1,1.95-1.28,39.39,39.39,0,0,1,4.74-.05Z"/><path class="cls-1" d="M18,46.59c-1.68-.14-3.14-.17-4.57-.41a3.48,3.48,0,0,1-2.91-3.11c-.13-.83.32-2.41.82-2.55a11,11,0,0,1,4.09-.06c1.33.15,2.61.72,3.93.8,1.72.1,3.24,1.05,3.25,2.49,0,1.76-1.15,2.37-2.69,2.55C19.21,46.38,18.49,46.52,18,46.59Z"/><path class="cls-1" d="M59.44,49.71a43.84,43.84,0,0,1-1,5.62c-.26.83-1.44,2-2,1.93a3.18,3.18,0,0,1-2.25-2,70.17,70.17,0,0,1-.39-8.46c0-1.64,1.09-2,2.55-2s2.63.5,2.86,2.09a19.82,19.82,0,0,1,0,2.78Z"/><path class="cls-1" d="M19,36.06a57.78,57.78,0,0,1-6.47-1.29c-2-.62-2.87-2.85-1.84-4.25a2.77,2.77,0,0,1,2.07-1.13A51.89,51.89,0,0,1,20.43,31a3.66,3.66,0,0,1,2.12,2.15c.43,1.44-1,2-2,2.47A9.21,9.21,0,0,1,19,36.06Z"/><path class="cls-1" d="M167.31,44.52A56,56,0,0,1,160.52,41c-1.59-1.11-.52-4.34,1.45-4.72.42-.08,1,.43,1.43.72,1.13.71,2.22,1.49,3.38,2.16.5.29,1.29.23,1.64.61.65.72,1.64,1.82,1.46,2.45C169.62,43.06,168.39,43.62,167.31,44.52Z"/><path class="cls-1" d="M36.8,54.35a21.14,21.14,0,0,1-.66,3.46,2.57,2.57,0,0,1-1.52,1.54,2.23,2.23,0,0,1-1.85-1.07,23.36,23.36,0,0,1-1.76-6c-.07-.67,1.35-1.82,2.31-2.23,1.32-.55,2.47.25,3,1.55A14.48,14.48,0,0,1,36.8,54.35Z"/></svg>