<svg id="圖層_1" data-name="圖層 1" xmlns="http://www.w3.org/2000/svg" viewBox="0 0 300 90"><defs><style>.cls-1{fill:#fff;}</style></defs><title>工作區域 1</title><path class="cls-1" d="M131.37,71c2,1,3.69,1.74,5.28,2.72,2,1.22,2.17,3.66.32,4.68-.95.52-2.34.31-3.53.28A3.44,3.44,0,0,1,132,78c-3-1.77-2.82-1.73-3.56,1.61a38,38,0,0,1-2.9,8.21c-.42.88-2.11,1.56-3.2,1.54-.56,0-1.61-1.83-1.53-2.75.38-4.11,1-8.2,1.69-12.28.43-2.53,0-3.91-2.51-4-3-.08-4-1.55-4.49-4.08-1.61-8-5.07-15.62-4.69-24a6.18,6.18,0,0,1,.21-2.26,6.13,6.13,0,0,1,1.95-2.6c.33-.21,1.46,1,2.3,1.39a7.46,7.46,0,0,0,3,1.17,32.74,32.74,0,0,0,5.45-.74c3.77-.67,5.82.49,7,4.12.34,1,.5,2.08.77,3.12,1.38,5.41,2.71,10.83,4.16,16.21a6.91,6.91,0,0,1-2.81,7.11A17.51,17.51,0,0,0,131.37,71Zm-10.3-25.25a3.15,3.15,0,0,0-.63,0c-1,.27-1.89.56-2.84.84.3,1,.31,2.32,1,2.86.5.42,1.83-.14,2.79-.31a3,3,0,0,0,1.06-.38c.8-.51,1.56-1.08,2.33-1.62-.9-.48-1.79-1-2.73-1.41A2,2,0,0,0,121.07,45.74Zm5,6.92-1,.82c-1.67.69-3.38,1.31-5,2.12-.37.18-.74,1.22-.56,1.47a2.19,2.19,0,0,0,1.64.88,20.24,20.24,0,0,0,4.61-1.16,2.57,2.57,0,0,0,1-1.94A6.14,6.14,0,0,0,126,52.66ZM124.59,64.9a1.16,1.16,0,0,1,0,.18,15.85,15.85,0,0,0,3.28-.77c.48-.22.62-1.18.91-1.81a6.68,6.68,0,0,0-1.78-.35,26.8,26.8,0,0,0-3.76.62,7.71,7.71,0,0,0-1.64.84,9.88,9.88,0,0,0,1.6,1.25C123.6,65.05,124.14,64.9,124.59,64.9Z"/><path class="cls-1" d="M258,47.76c-3,0-6,0-9,0-2.67.06-4.61-1.23-6.45-3a10.86,10.86,0,0,0-2.86-1.39c-1.09-.53-2.6-.84-3.1-1.72-.35-.61.47-2.21,1.16-3,2.61-3.12,3.75-6.8,4.44-10.68a37.3,37.3,0,0,1,.64-4.54,4.77,4.77,0,0,1,1.93-2.71c1-.5,4,1.85,4.15,2.95a11.71,11.71,0,0,0,.3,2.49c.29.66,1,1.53,1.59,1.57,1.17.07,2.37-.42,2.12-2-.33-2-.71-4.07-1.16-6.08-.27-1.2-.9-2.42.6-3.23s4.68-.36,5.18.94A21.19,21.19,0,0,1,259,22.79c.27,2.75.37,3,2.94,2.32a9.46,9.46,0,0,1,7.91,1.43,4.85,4.85,0,0,1,1.71,3.61c-.08,1.8-1.85,2-3.38,1.88-1.92-.1-3.82-.3-5.73-.31a2.7,2.7,0,0,0-3,2.76c-.13,2-.28,4-.3,6,0,1.59,1.27,1.48,2.34,1.49,5.52,0,11,0,16.56,0a5.94,5.94,0,0,1,2.28.07A16.36,16.36,0,0,1,283,44c-.86.81-1.66,2.23-2.6,2.33-7.45.78-14.93,1.32-22.4,1.93C258,48.07,258,47.92,258,47.76Zm-4.81-9.69c0-4.29-.7-5.21-4.14-4.47-1.07.23-2.15,1.54-2.75,2.62-1.94,3.52-1.85,3.56,1.77,5.07C251.84,42.87,253.16,42,253.16,38.07Z"/><path class="cls-1" d="M134.37,26.25c-.71,1.18-1.11,1.89-1.55,2.57s-.88,1.78-1.6,2.19a5.06,5.06,0,0,1-3.11.61c-.35-.05-.82-1.71-.64-2.49,1-4.25,2.14-8.44,3.19-12.67a9.41,9.41,0,0,0,.27-2.94,1.78,1.78,0,0,0-1-1.32,1.8,1.8,0,0,0-1.56.57,44.87,44.87,0,0,0-2.59,4.05c-1.49,2.58-3.28,3.71-4.78,2.92s-2-2.83-.87-5.55c1.55-3.82,3.1-7.64,4.71-11.43A3.47,3.47,0,0,1,129,.69c2,.38,2.36,2.06,2.44,3.71.13,3.05.08,3.11,3.07,3,2.52-.07,5-.29,7.55-.43a21.88,21.88,0,0,1,2.29,0c3.22.15,5.49,1.49,6.14,3.61,1,3.28-.17,7.89-2.66,9.36a4,4,0,0,1-3,.25c-.54-.19-.8-1.44-1-2.26a19.56,19.56,0,0,0-.27-2.49c-.32-.79-1-1.95-1.6-2-1-.1-2.49.3-2.91,1A22.6,22.6,0,0,0,136.93,20a2.5,2.5,0,0,0,.72,2,56.15,56.15,0,0,0,4.69,4c.83.66,1.82,1.13,2.71,1.73,1.14.78,2.28,2,1.26,3.18a3.77,3.77,0,0,1-3.4.69C139.85,30.43,136.2,30.17,134.37,26.25Z"/><path class="cls-1" d="M207.48,15.75c2.44.46,5,.57,7.29,1.46,3.38,1.33,5,7,3.28,10.24-.89,1.63-1.55,3.84-4,3.56-2.59-.3-2.55-2.73-3.08-4.58-.18-.66,0-1.48-.28-2-.43-.75-1.16-1.86-1.81-1.89q-9-.42-18.12-.42c-.55,0-1.43,1.09-1.58,1.8-.49,2.23-.74,4.52-1,6.8-.26,2.07-1.41,2.93-3.45,2.77a3.14,3.14,0,0,1-3.14-3.31c-.14-4.56-.18-9.14-.06-13.71.08-3.24,1.46-3.77,4.32-2.33a27,27,0,0,0,6.2,2.06c1.4.32,1.86-.34,1.29-1.89a57.13,57.13,0,0,1-1.94-7.06A2.4,2.4,0,0,1,192,5.38c1.63-1.72,6.35-.88,7,1.37a32.4,32.4,0,0,1,1.27,7.39c.08,1.32.39,1.86,1.61,1.88,1.83,0,3.67,0,5.51,0Z"/><path class="cls-1" d="M193.6,86.71c-8.57,0-17.15.06-25.73-.06a13.54,13.54,0,0,1-4.74-1.3c-1.27-.52-2.38-1.75-1.57-3.08.7-1.16,2.12-1.92,3.3-2.74.29-.2.89,0,1.35.08,4.64.38,9.27,1,13.91,1.08,13,.15,26,0,39.06,0,2.9,0,4.54,1,4.5,2.76-.06,2.34-1.62,3.17-4.81,3.13-8.42-.1-16.84,0-25.27,0Z"/><path class="cls-1" d="M207.93,67.29c-.33,2.15-.68,5-1.23,7.88a3.75,3.75,0,0,1-3,3c-4.12,1.18-8.05,1.5-12-.6a2.71,2.71,0,0,1-1.71-3.19,76.11,76.11,0,0,0,0-9.31c-.1-3-.47-6-.44-9.05,0-2.21,2.51-3.33,4.64-2.38a65.78,65.78,0,0,0,6.46,2.64C205.37,57.83,208.1,61.53,207.93,67.29Zm-6,4c-1-.8-1.64-1.57-1.86-1.46a25.59,25.59,0,0,0-3,2c.55.53,1.27,1.6,1.62,1.49A15.67,15.67,0,0,0,202,71.32Zm-1.16-8.39a10.15,10.15,0,0,0-2.52-1.17c-.41,0-.88.56-1.32.88a6.5,6.5,0,0,0,1.72,1.12C199.09,63.87,199.65,63.42,200.81,62.93Z"/><path class="cls-1" d="M256,60.55a13.13,13.13,0,0,1,1.82.56c1.75.76,3.48,1.57,5.2,2.39a7.3,7.3,0,0,1,4.58,6.36c.18,2.71-.13,5.5,2.34,7.62.45.38.21,2.55-.36,2.93a11.19,11.19,0,0,1-4.74,1.79c-3,.35-5.9.06-8.11,2.81-1.15,1.43-3.2.79-3.82-1.05a13,13,0,0,1-.71-4.28c0-3,.41-5.93.52-8.89a25.55,25.55,0,0,0-.19-5C252.17,63.48,253.74,60.59,256,60.55Zm3.22,8.11c0,2.78,0,5.06.06,7.33,0,.27.82.73,1.22.69a1.76,1.76,0,0,0,1.13-.92C262.27,74.41,261.06,70.22,259.23,68.66Z"/><path class="cls-1" d="M198.15,40.5h8.5c.61,0,1.42-.17,1.79.14a38.2,38.2,0,0,1,3,3.07c-1,.86-2,2.33-3.13,2.49a124.63,124.63,0,0,1-15,1.33c-2,0-4.09-1.11-5.87-2.16a3.45,3.45,0,0,1-1-3.09,3.29,3.29,0,0,1,2.5-1.69c3-.21,6.12-.08,9.19-.08Z"/><path class="cls-1" d="M106.18,15.25c-2.6-.73-5.22-1.42-7.81-2.2-1.82-.55-2.18-1.94-1.89-3.64s1.68-1.93,3.11-1.93a5.23,5.23,0,0,1,.69,0c3.19.51,6.4,1,9.57,1.56a2.93,2.93,0,0,1,2.63,3.23c-.13,1.87-1.42,2.56-3.18,2.53-1,0-2,0-3,0Z"/><path class="cls-1" d="M104.11,25.15a22.11,22.11,0,0,1-4.39-2,3.12,3.12,0,0,1-.79-2.78c.17-.64,1.41-1.19,2.27-1.41,2-.52,4.1-.86,6.17-1.19a6.37,6.37,0,0,1,2.71-.06c.75.23,1.74.89,1.9,1.55a3,3,0,0,1-.66,2.6A12.46,12.46,0,0,1,104.11,25.15Z"/><path class="cls-1" d="M76.86,37.65c-.23,8.82-.43,17.63-.68,26.45-.07,2.24-.19,4.49-.46,6.72a15.58,15.58,0,0,1-1,4,4.24,4.24,0,0,1-7.41.89,2.61,2.61,0,0,0-2.57-1.12c-4.93.1-9.86.09-14.79-.08a18.4,18.4,0,0,1-5.14-1.11,2.87,2.87,0,0,1-2-3.46c.27-1.4.17-2.16-1.57-2.23A2.37,2.37,0,0,1,39.64,66c.12-4.67.41-9.33.68-14,.19-3.28.48-6.55.63-9.83.3-6.56.51-13.12.8-19.68.11-2.31.85-2.91,3.09-3.48,5.35-1.36,10.58-.34,15.86.47a61.51,61.51,0,0,0,7.44.42c1.52.06,3,0,4.57,0,2.74.05,4,1.26,4.06,4,.06,4.57,0,9.13,0,13.7ZM43.43,67.35c2.58.43,5,.88,7.35,1.21,2.16.29,4.34.41,6.5.66s4.3.73,6.46.84a4,4,0,0,1,3.44,1.56c.56.73,2.06,1.68,2.41,1.44a7.08,7.08,0,0,0,1.84-2.73,3.59,3.59,0,0,0,.1-1.44c.09-2.38.25-4.75.25-7.12,0-11.14,0-22.28,0-33.42,0-2.83-.86-3.74-3.61-3.7-6.74.09-13.23-1.65-19.85-2.4-1.89-.22-2.16-.05-2.16,1.82,0,3.17.14,6.35-.09,9.5C45.23,44.82,44.31,56.06,43.43,67.35Z"/><path class="cls-1" d="M28.06,47c0-5,0-10.08,0-15.12a8,8,0,0,0-.51-2c-.55.32-1.11.61-1.63.95-1.79,1.13-3.53,2.35-5.36,3.4a2.31,2.31,0,0,1-3.08-.79c-.68-.8-.65-1.44.36-2.06a12.55,12.55,0,0,0,3-2.28c3.1-3.54,6.11-7.16,9.13-10.77.69-.83,4.38-1.22,5.1-.4a1.78,1.78,0,0,1,.27,1.31,2.22,2.22,0,0,1-.65,1.28c-2.84,2.37-2.35,5.39-2,8.53a39.5,39.5,0,0,1-.11,6.52c-.17,3.64-.39,7.27-.56,10.9a7,7,0,0,0,.15,1.44c.3,1.8-.35,3-1.79,3.21a2.71,2.71,0,0,1-2.86-2.68c0-.49,0-1,0-1.46Z"/><path class="cls-1" d="M52,50.94a25.6,25.6,0,0,1,.35-4.9c.32-1.24,1.32-2.31,2-3.46.28-.47.78-1,.76-1.44-.07-1.76-.38-3.5-.48-5.25s-.91-2.33-2.59-2.27A8.87,8.87,0,0,1,49.61,33,8.54,8.54,0,0,1,52,31.4c3.1-.7,3.11-.62,3.7-3.75.26-1.4,1.77-2.86,2.81-2.71s2.11,1.89,2,3.35c-.18,2.78-.05,2.93,2.75,3a23.22,23.22,0,0,1,3.64,0c.75.13,1.81.67,2,1.27.4,1.18-.55,2-1.67,2.11a24.45,24.45,0,0,1-5.27.05c-1.76-.21-2.28.44-2.33,2.06s-.45,3.39-.45,5.08a2.57,2.57,0,0,0,1,1.94,7.71,7.71,0,0,1,4.13,8.6,9.16,9.16,0,0,0,0,3,2.5,2.5,0,0,1-2.26,3.25,4.17,4.17,0,0,0-1.59.34c-2.6,1.81-5,.85-7.31-.54a2.49,2.49,0,0,1-1-1.7c-.13-1.94,0-3.89,0-5.83Zm5,.69a1.62,1.62,0,0,0-.05,1A7.53,7.53,0,0,0,58,54.16c.45-.51,1.12-.95,1.31-1.54a3.21,3.21,0,0,0-.14-2.14,9.51,9.51,0,0,0-1.65-1.91c-.18.68-.37,1.36-.54,2A6.75,6.75,0,0,0,57,51.63Z"/></svg>