<svg id="圖層_1" data-name="圖層 1" xmlns="http://www.w3.org/2000/svg" viewBox="0 0 300 90"><defs><style>.cls-1{fill:#fff;}</style></defs><title>工作區域 1</title><path class="cls-1" d="M226.25,39c0-2.69-.08-5.39,0-8.08.1-3.06,1.67-3.81,4.34-2.32a7.44,7.44,0,0,0,2.42.44,10.19,10.19,0,0,0,.07-3,2.28,2.28,0,0,0-1.62-1.33c-2.38-.16-4.76-.06-7.14-.09a4.63,4.63,0,0,1-3.93-3c-.13-.5,0-1.43.36-1.62a5.91,5.91,0,0,1,2.88-.91c2,0,4,.56,6.07.6.76,0,2.09-.69,2.16-1.21a3.16,3.16,0,0,0-1.1-2.47c-.69-.55-1.88-.44-2.77-.81a7.2,7.2,0,0,1-2.71-1.6,2.48,2.48,0,0,1-.22-2.33,3.1,3.1,0,0,1,2.19-.95c1.17-.09,2.38.32,3.55.21,1.71-.17,3.38-.71,5.08-.91a34.78,34.78,0,0,1,5.76-.32c.55,0,1.36.93,1.5,1.57a2.13,2.13,0,0,1-1,1.71,14.46,14.46,0,0,1-3.29,1.3,2.25,2.25,0,0,0-1.78,3c.36,1.56,1.33,2,2.81,1.61,2.35-.62,4.7-1.22,7.06-1.83.24-.06.49-.11.74-.15,2.51-.42,4.15.16,4.29,1.81.18,2.19-1.94,2.21-3.24,2.62-2.13.67-4.41.83-6.59,1.34-1.14.27-2.55.54-3.21,1.33s-.43,2.14-.31,3.22c.05.46.85.85,1.33,1.25.08.06.24,0,.37,0,4.57.34,6.69,2.28,7.19,6.85.29,2.55.37,5.12.47,7.68A3.09,3.09,0,0,1,246.05,46c-1.74.7-3.47,1.42-5.15,2.23a1.94,1.94,0,0,0-1,1.24c-.11,1.68,0,3.38,0,5.07,0,1.2.62,1.69,1.76,1.68a34.48,34.48,0,0,1,3.94,0c.57.06,1.43.55,1.54,1s-.42,1.25-.89,1.6a7.7,7.7,0,0,1-2.23.91c-.54.17-1.15.11-1.66.3-1.14.43-2.75.71-2.49,2.3s1.78,1,2.83.93c1.36-.12,2.69-.54,4-.63a4.62,4.62,0,0,1,2.6.44c1.22.72,1.15,1.81-.15,2.43a42.15,42.15,0,0,1-5.71,2.22c-3.46,1-6.86,2.44-10.6,1.94a4.91,4.91,0,0,1-2-.34c-.68-.46-1.62-1.33-1.55-1.92s1.1-1.32,1.85-1.71a12.44,12.44,0,0,1,2.2-.4,2.1,2.1,0,0,0,1.73-2.5c-.18-1.33-1.06-1.75-2.25-1.76A9,9,0,0,1,230.2,61c-.69-.23-1.2-1-1.78-1.5.56-.64,1-1.69,1.71-1.84,4.85-1.09,4.9-1,4.35-6-.24-2.15-2.25-2.07-3.5-2-5.65.4-4.67-1.21-4.75-5.12,0-1.81,0-3.63,0-5.45ZM235,36.17c-.08-1.54-.7-2.45-2.18-2.46s-1.36,1.14-1.32,2.17a5.67,5.67,0,0,0,0,1.3c.15.49.42,1.16.8,1.29a1.94,1.94,0,0,0,1.71-.22A7,7,0,0,0,235,36.17Zm8.37,6.11c-1.08-.67-1.79-1.42-2.21-1.28s-.92,1-1.37,1.61c.49.36,1,1,1.45,1S242.34,43,243.37,42.28Zm-10.2.46-1.7,1.8c.41.28,1,.9,1.19.79a11.21,11.21,0,0,0,2-1.45Zm9.15-7.49a11.48,11.48,0,0,0-2-1.27c-.13,0-.9.9-.81,1.06a4,4,0,0,0,1.42,1.4C241,36.52,241.62,35.85,242.32,35.25Z"/><path class="cls-1" d="M112.61,18.76c-.21-2.36-.4-4.71-.63-7.07a2.65,2.65,0,0,1,2.8-3.18c1.18,0,2.38.09,3.56.05,1.44-.06,2.15-.75,1.49-2.21s-.72-2.7.48-3.58A3.4,3.4,0,0,1,123,2.4a3.11,3.11,0,0,1,2.25,3.31,5,5,0,0,0,0,2c.19.51.89.84,1.36,1.25.36-.48.9-.91,1-1.44a7.5,7.5,0,0,0-.08-2c0-1.21.1-2.41,1.59-2.52a2.72,2.72,0,0,1,3,2.07,6.23,6.23,0,0,1,.1,1.68c0,1.79.46,3,2.49,3.81a6.86,6.86,0,0,1,4.57,6.7c-.07,3.68-.3,7.37-.54,11.05a8.16,8.16,0,0,1-.69,2.52c-.93,2.32-2.34,2.58-4.4,1.2a8.86,8.86,0,0,0-3.54-1.27c-4.12-.62-8.3-.9-12.39-1.66-2.66-.5-5-3.85-5.15-6.57-.07-1.25-.15-2.49-.23-3.74Zm21.85,5c-1-.91-1.61-1.8-2.37-2-.4-.09-1.1,1-1.65,1.62a11.82,11.82,0,0,0,2.2,1.65C132.9,25.2,133.55,24.46,134.46,23.79ZM124.1,15.46l1.68,1.71c.47-.47,1.39-1,1.31-1.38a9.25,9.25,0,0,0-1.32-2.36ZM120.22,15c-.69-.91-1.19-2-1.6-2-1.65.13-1,1.69-1.2,2.66-.07.44.56,1,.87,1.5Zm6.63,8.73a9.29,9.29,0,0,0-2-1.62c-.22-.09-1.19.84-1.12,1a11,11,0,0,0,1.36,2Z"/><path class="cls-1" d="M35.68,77.61c-.06-.81-.17-1.62-.15-2.43,0-1.62-.56-2.49-2.19-3.19a6.58,6.58,0,0,1-4.24-6.12c-.13-5.75-.13-11.5-.17-17.26a4.8,4.8,0,0,1,0-.93c.71-3.49.93-3.59,3.59-3.24a63,63,0,0,1,7.68,1c1.84.48,2.67,2.16,2.93,4.19.41,3.33,1.23,6.61,1.64,9.94a30,30,0,0,1,0,6.42,3.82,3.82,0,0,0,2.07,4c1.39.83,2.84,1.58,4.15,2.52a6.58,6.58,0,0,1,1.23,1.84c-.75.46-1.57,1.38-2.24,1.29a18.42,18.42,0,0,1-5-1.47c-3.76-1.72-3.68-1.78-4.26,2.3a29.7,29.7,0,0,1-1.13,5.11c-.2.6-1.09,1.41-1.63,1.38a2.55,2.55,0,0,1-1.89-1.34,21.24,21.24,0,0,1-.69-4ZM34,64.2a5.33,5.33,0,0,0-.11,1.13c.07.58.06,1.54.36,1.66a2.66,2.66,0,0,0,1.85-.23,12.33,12.33,0,0,0,2.74-1.55c.44-.34.94-1.16.8-1.56a2.6,2.6,0,0,0-1.49-1.27c-.53-.2-1.27.15-1.83,0C34.35,61.76,33.56,62.37,34,64.2Zm4.46-8.51c-.31-.27-1-1.34-1.58-1.3-1.15.1-2.91,0-2.91,1.91,0,1.42,1,2.09,2.39,2.11S38.45,57.75,38.45,55.69Zm-2.1-5.6c0-.35,0-.69,0-1l-2.83-.13c0,.34,0,.69,0,1Z"/><path class="cls-1" d="M94.42,19.65a18.38,18.38,0,0,1,0,3.56c-.52,2.67.61,4.42,2.68,5.88a5,5,0,0,1,.85,7.67c-1.63,1.84-3.59,1.82-4.42-.48-1.26-3.51-3.81-3.82-6.85-3.72-2.31.07-4.63.06-6.94,0a1.66,1.66,0,0,0-2,1.44,45.63,45.63,0,0,1-1.89,5.29,2.47,2.47,0,0,1-3.26,1.44c-1.5-.4-1.12-1.62-1-2.64.34-2.73.77-5.45,1.11-8.18a2.15,2.15,0,0,1,2.48-2.16c2.51,0,2.81-.32,2.68-2.82-.22-4.06-.48-8.11-.71-12.16-.11-2,1.37-2.9,3.66-2.37Q86,11.56,91.16,12.68a3.85,3.85,0,0,1,3.29,3.59c.11,1.12,0,2.25,0,3.38ZM83.71,22.26a32.12,32.12,0,0,0,3.18-1.44c.64-.37,1.67-1.1,1.6-1.52-.29-1.73-1.91-1.78-3.24-1.83-.63,0-1.28.58-1.91.92,0,0,0,.24,0,.36C83.48,19.92,83.6,21.09,83.71,22.26Z"/><path class="cls-1" d="M38,40.59C36.06,39.88,33.53,38.93,31,38c-.63-.24-1.22-.6-1.84-.88-1.8-.83-3-2.1-2.85-4.19a2.35,2.35,0,0,0-2-2.72c-1.42-.39-2.38-1.42-1.83-2.94a2.29,2.29,0,0,1,3.29-1.52c1.55.67,2.1-.18,2.31-1.46a17.42,17.42,0,0,0,.14-2.61,2,2,0,0,1,2.4-2.22c4,.59,7.89,1.43,11.85,2.13,2.37.43,3.27,2.14,4.06,4.18a16.33,16.33,0,0,0,2.13,3.08c.47.69,1.28,1.45,1.21,2.1s-1,1.42-1.67,1.68a6.76,6.76,0,0,0-4,3.31C43.14,37.8,41.6,40.23,38,40.59Zm-5.29-8.05-.65,1,2.44,1.33c.13-.3.43-.82.36-.88C34.13,33.49,33.39,33,32.66,32.54Zm2.6-5.41-1.57-1.24c-.22.31-.67.68-.6.9A2.39,2.39,0,0,0,34,28C34.08,28.07,34.62,27.57,35.26,27.13Z"/><path class="cls-1" d="M274.82,29.69c.5,0,1,0,1.51,0,4,.18,5.3,1.5,4.94,5.38s-1,7.92-1.55,11.88c-.28,2.12-1.83,3.09-3.59,3.67-1.6.54-2.6-.67-3.39-1.79a28.87,28.87,0,0,1-2.54-4.33,2,2,0,0,1,.24-1.86,2,2,0,0,1,1.81-.29c1.47.62,2,.27,2.18-1.31s.77-3,.87-4.54-.74-2.24-2.41-1.94c-3.79.68-4.12,1.53-5.22,5.26C266.29,44.5,265,49.38,261.35,53a10.55,10.55,0,0,1-3.12,2,1.39,1.39,0,0,1-1.59-2.14c3.85-4.71,5.21-10.46,6.73-16.13.16-.61-.43-1.48-.81-2.14-.2-.33-.86-.38-1.07-.71-.38-.58-.91-1.37-.76-1.9a2.34,2.34,0,0,1,1.66-1.16c2.84-.45,3.18-.65,3.88-3.41.31-1.21.48-2.45.76-3.67.49-2.19,3.64-3.39,5.36-2a2.27,2.27,0,0,1,.74,1.78,20.19,20.19,0,0,1-1.29,4.29c-.68,1.55-.61,1.79,1.11,1.8h1.87Z"/><path class="cls-1" d="M92.82,65c-.41,1.63-1.08,4.52-1.86,7.39A2.16,2.16,0,0,1,88.05,74c-1.49-.4-1.57-1.39-1.31-2.78a59,59,0,0,0,.81-7c0-.37-.67-1.08-1.09-1.13-1.07-.12-2.37-.31-2.72,1.23s-.44,3-.89,4.41a7.65,7.65,0,0,1-1.63,2.85,2,2,0,0,1-1.94.24,2.35,2.35,0,0,1-1-1.87,96.71,96.71,0,0,0,1.62-24.25c-.14-3,1.25-4.28,3.67-3.77a2.39,2.39,0,0,1,1,.43c1.63,1.33,3.21,2.73,4.86,4,1.89,1.52,2.33,3.7,2.55,5.86C92.35,56,92.49,59.82,92.82,65Zm-5.35-7.69c-.71-.54-1.19-1.18-1.58-1.13a1.58,1.58,0,0,0-1,1.21A1.54,1.54,0,0,0,86,58.49C86.38,58.52,86.82,57.87,87.47,57.31Z"/><path class="cls-1" d="M28.72,8.44c-1.46-1.25-1.81-2.51-.2-3.74,1.2-.92,4.73-.71,5.13.55,1.28,4.09,4.66,3.52,7.65,3.68s6.08-.23,8.8,1.33c1,.6,2.32,1.66,2.51,2.68a28.06,28.06,0,0,1,.06,6.48c-.07,1.26-1.11,1.54-2.2,1.52s-1.95-.29-2.13-1.6a16.74,16.74,0,0,0-.68-2.15c-.91-3.42-.91-3.46-4.48-3.37-3.31.08-6.61.35-9.92.37A11.66,11.66,0,0,1,30,13.35c-.54-.16-1-.47-1.58-.6-3.21-.75-3.73-.22-3.93,3a24.84,24.84,0,0,1-1.27,5.81c-.5,1.55-1.81,2-3.35,1.49s-1.23-1.63-1.13-2.92a67.89,67.89,0,0,0,.18-8.79c-.15-3.21,1.22-4.45,4.22-3.5,1.25.39,2.52.75,3.8,1.05a6.34,6.34,0,0,0,1.51,0C28.56,8.76,28.64,8.6,28.72,8.44Z"/><path class="cls-1" d="M182.16,36.69a14.62,14.62,0,0,0,2.81,0c.55-.11,1-.68,1.53-1a6.35,6.35,0,0,0-1.38-1.23c-1.74-.82-3.56-1.46-5.29-2.28-.93-.43-1.91-1.17-1.25-2.33s1.58-2.51,3.24-2a37.94,37.94,0,0,0,12,1.42,10.37,10.37,0,0,1,3.48.61c1.84.66,2.09,2.55.42,3.58-1,.62-2.33.69-3.48,1.11a17.62,17.62,0,0,0-2.08,1.05c.75.38,1.48,1.06,2.22,1.09,1.81,0,3.63-.4,5.42-.28.94.07,1.83.9,2.75,1.39-.52.84-.87,2.2-1.59,2.44a27.62,27.62,0,0,1-6.2,1.18c-2.3.21-2.41.23-2.52,2.49a13.39,13.39,0,0,1-.56,4.07c-.31.8-1.4,1.31-2.14,2a8.12,8.12,0,0,1-1.68-2.14c-.41-1.23-.28-2.64-.7-3.86a2.92,2.92,0,0,0-1.75-1.5c-2.14-.65-4.36-1-6.5-1.65a1.79,1.79,0,0,1-1.36-2.47,3.93,3.93,0,0,1,2.16-1.6,7.49,7.49,0,0,1,2.42,0Z"/><path class="cls-1" d="M183.65,62.48a61.56,61.56,0,0,1-.94-6.83,7.67,7.67,0,0,1,1-4c.39-.65,1.76-.92,2.72-1,1.39-.1,2.81.22,4.22.19,2.06,0,4.07-.28,6,.81a5,5,0,0,1,2.76,3.77c.29,1.72.35,3.47.64,5.19a18,18,0,0,0,.87,3c.59,1.66,0,3.15-1.7,3.51-2.54.53-5.13.83-7.7,1.27a27.1,27.1,0,0,0-3.8.84c-2.74.9-3.94.2-4.18-2.62-.11-1.37-.13-2.75-.19-4.13Zm8,1.15c2.93,0,2.94,0,2.33-2.76a20.46,20.46,0,0,1-.32-2.22c-.22-1.9-1.43-2.56-4.1-2.26-2,.22-1,1.58-1,2.55,0,.68.19,1.36.26,2C189.05,63.62,189.05,63.62,191.62,63.63Z"/><path class="cls-1" d="M121.83,75.55c.27-1.44.54-2.88.82-4.32a3.14,3.14,0,0,1,2.83-2.82c.87,0,1.82,1,2.61,1.77a1.61,1.61,0,0,1,.22,1.39c-1,2.92-1.94,5.84-3.07,8.7-.85,2.18-.77,2.37,1.54,2.7s4.64.77,6.93,1.27c.45.09,1.13.69,1.11,1a3.25,3.25,0,0,1-.8,1.94,2.49,2.49,0,0,1-1.73.53c-5.3-.21-10.6-.43-15.89-.79-1.15-.08-3-.37-2.64-2a4.92,4.92,0,0,1,2.64-3c2-.88,2.13-.64.86-2.51a15.5,15.5,0,0,1-2.52-9.07,2.29,2.29,0,0,1,1.51-1.66c1,0,2.42.21,2.88.88a15.77,15.77,0,0,1,1.48,4.19c.18.55.31,1.13.47,1.69Z"/><path class="cls-1" d="M111.9,56.13c.23-2.48.41-4.71.68-6.94.21-1.81,1.26-2.34,3-1.84a13.57,13.57,0,0,0,3.82.63,5.77,5.77,0,0,1,6.07,5.52,23.08,23.08,0,0,0,.16,3.54c.41,1.88-.4,2.8-2,3.39-2.17.78-4.29,1.67-6.46,2.46-2.53.92-4.2.06-4.76-2.54C112.11,58.9,112.05,57.4,111.9,56.13Zm5.69,1.08c1.11-.45,2.3-.58,2.78-1.23.35-.48,0-1.78-.46-2.46a1.6,1.6,0,0,0-2.32-.68Z"/><path class="cls-1" d="M117.2,41.94c-1.63,0-3.26.06-4.88,0-2.06-.08-3.44-1.32-3.28-2.83.2-1.9,1.92-2.93,4-2.68,3,.34,6,.52,8.94.71,2,.11,3,.85,2.92,2.39s-1.25,2.38-2.8,2.43-3.25,0-4.88,0Z"/><path class="cls-1" d="M160.93,46.74c-3.47-.45-9.69-4.61-10.56-7.49a3.36,3.36,0,0,1,.79-2.57c.26-.33,1.5-.22,2.08.1,3,1.66,5.95,3.36,8.8,5.23.74.49,1.65,1.91,1.42,2.43C163,45.39,161.82,46,160.93,46.74Z"/><path class="cls-1" d="M159.79,55.59c-2.67.45-5,.28-6.9-1.27a4,4,0,0,1-1.3-2.24c-.05-.26,1.15-1,1.85-1.13,2.71-.38,5.45-.65,8.18-.84a2.92,2.92,0,0,1,2.09.56c.79.84,1.85,2,1.75,3-.14,1.49-1.63,2-3.17,2C161.36,55.56,160.42,55.59,159.79,55.59Z"/><path class="cls-1" d="M157.68,64.79a18.44,18.44,0,0,1-3.09-1.41,2,2,0,0,1-.31-1.9,2.3,2.3,0,0,1,1.61-1.08,20.11,20.11,0,0,0,9.61-3.86,2.17,2.17,0,0,1,2.1.09,2.39,2.39,0,0,1,.42,2.11C167,61.7,161.91,64.83,157.68,64.79Z"/></svg>