<?xml version="1.0" encoding="utf-8"?>
<!-- Generator: Adobe Illustrator 22.1.0, SVG Export Plug-In . SVG Version: 6.00 Build 0)  -->
<svg version="1.1" id="圖層_1" xmlns="http://www.w3.org/2000/svg" xmlns:xlink="http://www.w3.org/1999/xlink" x="0px" y="0px"
	 viewBox="0 0 210 70" style="enable-background:new 0 0 210 70;" xml:space="preserve">
<style type="text/css">
	.st0{display:none;}
	.st1{display:inline;}
	.st2{fill:#FFFFFF;}
	.st3{display:inline;fill:#FFFFFF;}
</style>
<g class="st0">
	<g class="st1">
		<path class="st2" d="M90.3,43.7c-1.2,0-2.5,0.1-3.7,0c-1.6-0.1-2.2-0.9-2.2-2.5c-0.1-2.7-0.5-5.3-0.6-8c-0.2-3-0.3-6.1-0.3-9.1
			c0-1.9,0.3-2,2.2-2.1c0.8,0,1.2-0.4,1.1-1.2c0-0.3,0-0.7,0-1c0.3-1.6,0-2-1.8-2.2c-1.2-0.1-2.4-0.3-3.6-0.6c-1-0.3-1.7-1-1.4-2.1
			c0.4-1,1.1-1.8,2.4-1.7c0.5,0,1.1,0.2,1.6,0.4c2.4,0.7,4.7,0.6,7.1,0c1.2-0.3,2.5-0.5,3.7-0.3c0.7,0.1,1.6,0.9,2,1.6
			c0.2,0.4-0.5,1.5-1.1,1.8c-0.8,0.5-1.8,0.8-2.8,0.9c-2.5,0.3-3.7,1.5-3.2,3.9c0.1,0.4,1,0.8,1.6,0.9c1.2,0.3,2.4,0.5,3.6,0.8
			c1.1,0.2,1.4,1,1.5,2c0.2,3,0.5,6,0.8,9c0.2,2,0.5,4,0.7,6c0,0.5-0.1,1-0.4,1.4c-1,1.3-2.3,2.1-4,2.1
			C92.4,43.7,91.3,43.7,90.3,43.7C90.3,43.7,90.3,43.7,90.3,43.7z M91.4,40.2C91.4,40.2,91.4,40.1,91.4,40.2
			c0.2-0.1,0.4-0.1,0.6-0.1c1.5,0,1.6-0.3,1.6-2.2c0-1.2-0.7-1.3-1.7-1.2c-0.8,0.1-1.7,0-2.5-0.1c-0.6,0-1.1-0.2-1.6-0.3
			c-0.1,0.7-0.3,1.5-0.1,2.2c0.2,0.5,0.9,1,1.5,1.2C89.8,40,90.6,40.1,91.4,40.2z M89.6,28.8c0.2,0,0.5,0,0.7,0c0.8,0,1.7,0,1.7-1.1
			c0-1.1-0.7-1.5-1.7-1.5c-0.6,0-1.2-0.3-1.9-0.3c-0.3,0-0.9,0.3-1,0.6C86.9,28.4,87.5,28.8,89.6,28.8z M88.2,32.4
			c0,0.2,0,0.4-0.1,0.6c1.3,0.3,2.6,0.5,4,0.7c0.2,0,0.6-0.3,0.6-0.5c0-0.2-0.2-0.7-0.4-0.7C90.9,32.2,89.6,32,88.2,32.4z"/>
		<path class="st2" d="M176.6,28.9c0.4,2.6,1.7,4.4,3.9,5.7c0.6,0.4,1.3,0.6,1.8,1.1c0.4,0.4,0.9,1,0.8,1.4c-0.2,0.5-0.8,1-1.3,1.1
			c-0.8,0.1-1.6-0.2-2.4-0.4c-0.4-0.1-0.7-0.2-1.4-0.4c0.2,1.4,0.4,2.6,0.5,3.8c0.2,2.4,0.4,4.9,0.6,7.3c0,0.5,0,1-0.1,1.5
			c-0.2,1.1-1,1.6-2,1.6c-1.1,0-1.4-0.8-1.5-1.7c-0.3-3.3-0.6-6.5-0.9-9.8c-0.1-0.6-0.3-1.2-0.4-1.7c-0.2,0-0.3,0-0.4,0
			c-0.2,0.4-0.4,0.8-0.7,1.2c-0.9,1.3-1.7,2.7-2.7,3.8c-0.3,0.4-1.4,0.5-1.9,0.3c-0.8-0.4-1-1.2-0.6-2.1c1.4-3.1,2.8-6.2,4.2-9.4
			c0.2-0.5,0.3-1.2,0.1-1.5c-0.3-0.3-1-0.3-1.5-0.2c-1.7,0.3-3.5,1-5.1-0.1c-0.5-0.3-1.2-1-1.1-1.5c0-0.5,0.8-1.1,1.3-1.3
			c1.1-0.4,2.3-0.6,3.5-0.7c1-0.2,2.1-0.3,2.3-1.6c0.2-1.1-1-3.1-2-3.4c-0.6-0.2-1.2-0.1-1.8-0.3c-0.8-0.3-1.7-0.6-2.3-1.1
			c-0.3-0.3-0.4-1.1-0.2-1.6c0.1-0.3,0.7-0.6,1.2-0.7c0.7-0.1,1.5,0,2.2,0c0.3,0,0.6,0.1,0.8,0c2.1-1.1,4.3-0.6,6.4-0.5
			c0.9,0,2,0.4,2.6,0.9c0.5,0.4,0.6,1.5,0.4,2.3c-0.1,0.4-1.1,0.6-1.7,0.8c-0.1,0.1-0.3,0-0.4,0c-0.6,0.1-1.7,0.3-1.7,0.4
			c0,0.8,0.1,1.8,0.6,2.5c0.2,0.3,1.2,0.2,1.8,0.1c1.1-0.1,2.2-0.4,3.2-0.5c0.9-0.1,1.6,0.4,1.8,1.4c0.1,1-0.4,1.6-1.3,1.9
			c-1.3,0.4-2.7,0.7-4,1.1C177,28.7,176.8,28.8,176.6,28.9z"/>
		<path class="st2" d="M196.6,54.7c-2.1,0-3.6-0.1-5,0c-1.8,0.2-3.3-0.6-4.9-1.3c-0.5-0.2-0.9-1-1-1.5c0-0.4,0.5-1,1-1.3
			c1.2-1,2.3-0.8,3.6-0.1c1.2,0.6,2.7,0.6,4.2,0.7c0.2,0,0.7-0.8,0.6-0.9c-0.4-0.7-0.9-1.4-1.6-1.9c-0.6-0.4-1.4-0.5-2-0.9
			c-0.5-0.4-1.3-1.1-1.2-1.5c0.2-0.6,0.9-1,1.5-1.4c0.6-0.3,1.6-0.3,1.8-0.7c0.3-0.9,0.2-1.9,0-2.9c-0.1-0.4-0.7-0.7-1.1-0.9
			c-0.5-0.3-1.2-0.4-1.6-0.8c-0.4-0.4-0.8-1.1-0.7-1.5c0.2-0.6,0.9-1.3,1.4-1.3c3-0.4,6.1-0.6,9.1-0.8c0.9-0.1,1.7,0,2,1
			c0.3,1.1-0.5,1.7-1.2,2.1c-0.8,0.4-1.7,0.6-2.6,0.9c-0.9,0.3-1.2,0.8-1,1.8c0.2,0.8,0.3,1.7,0.5,2.5c0.8-0.2,1.6-0.5,2.5-0.5
			c0.8-0.1,1.7-0.2,2.5,0c0.9,0.2,1.3,0.9,0.5,1.6c-0.8,0.7-1.8,1.3-2.7,1.8c-0.6,0.3-1.3,0.5-1.9,0.8c-1.2,0.4-0.9,1.3-0.9,2.2
			c0.1,0.9,0.7,1.3,1.5,1.3c1.7-0.1,3.5-0.3,5.2-0.5c0.6-0.1,1.2-0.3,1.8-0.3c0.5,0,1.1,0.4,1.6,0.6c-0.2,0.6-0.3,1.3-0.7,1.8
			c-0.4,0.4-1.1,0.5-1.6,0.7C203,54.7,199.5,54.9,196.6,54.7z"/>
		<path class="st2" d="M31.3,24.6c-1.2,2.3-2.2,4.6-3.4,6.6c-0.5,0.8-1.5,1.5-2.3,2c-0.3,0.2-1.3-0.1-1.5-0.5
			c-0.2-0.3,0-1.1,0.2-1.6c0.8-1.8,1.7-3.6,2.5-5.4c0.4-0.9-0.2-1.3-0.8-1.8c-0.9-0.7-1.8-1.4-2.5-2.3c-0.8-1-0.5-2,0.4-2.6
			c1.1-0.7,1.7,0,2.3,0.8c0.3,0.3,0.4,0.7,0.7,1c0.6,0.6,1.2,0.6,1.6-0.3c1.1-2.5,1.1-2.4-1.6-3.5c-1-0.4-1.9-1.2-2.6-2.1
			c-0.3-0.4,0-1.5,0.4-2c0.3-0.4,1.3-0.5,1.8-0.3c2.5,1.2,5.3,1.2,7.9,1.6c0.5,0.1,1,0,1.5,0c2.7,0,3.8,1,3.8,3.9c0,2,0,4.1-0.2,6.1
			c-0.1,1.6-0.2,3.3-2,3.9c-2,0.7-4.2-0.1-5.5-2C31.9,25.6,31.6,25.1,31.3,24.6z M31.9,22.6c0.6,0.2,1.1,0.5,1.6,0.7
			c1,0.5,1.5,0.2,1.5-0.9c0-0.8,0.1-1.7,0-2.5c-0.1-0.5-0.4-1-0.6-1.6C34,18.7,33.2,19,33,19.4C32.5,20.4,32.3,21.5,31.9,22.6z"/>
		<path class="st2" d="M133.4,17.8c-1,0-1.9,0.1-2.7,0c-0.9-0.2-1.8-0.5-2.7-0.9c-1-0.5-0.9-1.4-0.4-2.3c0.5-0.9,1.1-1,2.1-0.7
			c1,0.3,2,0.4,3,0.5c0.3,0,0.7-0.3,1.1-0.4c-0.2-0.3-0.4-0.8-0.7-1c-0.3-0.3-0.9-0.4-1.2-0.7c-0.3-0.4-0.5-0.9-0.4-1.4
			c0.1-0.3,0.6-0.8,0.9-0.8c1.7-0.3,3.5-0.3,4.6,1.4c0.3,0.5,0.6,1.3,0.5,1.9c-0.1,1,0.2,1.3,1.1,1.3c0.6,0,1.3-0.2,1.9-0.1
			c0.6,0.1,1.3,0.3,1.8,0.6c0.4,0.2,0.8,0.8,0.7,1.2c-0.1,0.3-0.7,0.7-1.1,0.8c-0.8,0.3-1.6,0.5-2.4,0.6c-1.4,0.2-2,1.1-2.5,2.3
			c-0.6,1.5-1.3,2.9-1.9,4.4c-0.2,0.4-0.1,1-0.2,1.5c0.5-0.1,1.2,0,1.5-0.3c0.5-0.4,1-1.1,1.1-1.7c0.2-1.3,1.1-1.9,2.1-2.3
			c0.4-0.2,1.2,0,1.6,0.3c1.4,1,2.8,2.1,4,3.3c0.5,0.5,0.9,1.3,1.2,2c0.3,0.9,0.2,1.9-0.7,2.5c-0.9,0.6-1.6,0-2.2-0.5
			c-1-0.8-2-1.5-2.9-2.3c-0.9-0.7-1.4-0.7-1.9,0.5c-1.2,2.6-3.7,3.5-6.2,2.2c-2.2-1.1-2.9-3.1-1.9-5.3c0.8-1.8,1.7-3.5,2.6-5.2
			C133.2,18.7,133.2,18.4,133.4,17.8z"/>
		<path class="st2" d="M203.6,17.8c-0.1,1.6-0.1,2.7-0.2,3.9c-0.1,0.5-0.5,1.2-1,1.4c-3.9,1.4-7.8,2.6-12,1.5c-1-0.3-1.7-1-1.4-1.9
			c0.7-2.7-0.1-5.3-0.3-8c-0.1-0.7-0.2-1.5-0.3-2.2c-0.2-1.5,0.2-2,1.7-2.1c0.1,0,0.3,0,0.4,0c2.6,1.1,5.1,0,7.7,0
			c3.3,0.1,4.6,1.2,5,4.4C203.3,15.9,203.5,17.1,203.6,17.8z M192.9,17.9C192.9,17.9,193,17.9,192.9,17.9c0.1,0.6,0.1,1.2,0.1,1.8
			c0,0.9,0.5,1.5,1.4,1.3c1.5-0.2,3-0.6,4.5-1c0.3-0.1,0.9-0.7,0.8-0.9c-0.3-1.4-0.6-2.9-1.1-4.2c-0.3-0.9-1.1-1.1-2.1-0.6
			c-0.6,0.3-1.4,0.5-2.1,0.5c-1,0-1.4,0.5-1.5,1.4C192.9,16.8,192.9,17.3,192.9,17.9z"/>
		<path class="st2" d="M76,26.2c-1.1-0.4-1.5,0.3-2.4,1c-1,0.9-2.5,1.4-3.8,1.7c-1.2,0.3-2.5,0.1-3.7,0c-0.5,0-1.1-0.2-1.4-0.5
			c-1-1.1-1.7-0.9-2.6,0.1c-0.3,0.4-0.7,0.6-1.1,0.9c-0.9,0.5-1.8,0.5-2.6-0.2c-0.9-0.7-0.5-1.6,0.1-2.2c1.8-2.1,2.9-4.8,5.2-6.5
			c0.7-0.5,1.1-1.6,1.5-2.4c0.3-0.5,0.5-1,0.8-1.5c1-1.5,2.2-1.4,3.1,0.1c1.6,2.8,4.1,4.5,7.2,5.3c1.1,0.3,2.1,1.5,2,2.5
			C78.2,25.6,77.2,26.3,76,26.2z M73.3,25.1c-1.4-0.7-2.4-1.1-3.3-1.6c-0.8-0.4-1.4-1.1-2.1-1.6c-0.6,0.8-1.1,1.5-1.7,2.3
			c0,0-0.1,0.1-0.1,0.1c-0.5,0.6-0.3,1.1,0.5,1.1C68.7,25.4,70.8,25.3,73.3,25.1z"/>
		<path class="st2" d="M8,50.1c-0.1-1.9-0.5-3.9-0.4-5.8c0.1-1.3,0.5-2.6,1.1-3.7c0.6-1.1,2.7-0.7,3.1,0.7c0.4,1.2,1,1.8,2.2,2
			c1.6,0.4,2.4,1.5,2.7,3c0.3,1.2,0.3,2.5,0.5,3.7c0.2,1.5,0.2,3,0.5,4.5c0.2,1,0,1.8-1,2.1c-0.9,0.3-1.9,0.5-2.9,0.8
			c-0.9,0.2-1.9,0.4-2.7,0.7c-1.3,0.5-2.6-0.3-2.8-1.9C8.2,54.2,8.1,52.2,8,50.1C8,50.1,8,50.1,8,50.1z M13.2,48.3
			c-0.2,0-0.3,0-0.5,0c-0.2,1.5-0.7,3-0.2,4.6c0.1,0.3,0.6,0.5,0.9,0.7c0.1-0.4,0.3-0.7,0.3-1.1c0-0.5-0.2-1.1-0.3-1.6
			C13.4,50.1,13.3,49.2,13.2,48.3z"/>
		<path class="st2" d="M70.3,37.6c-0.8,0.1-1.3,0.2-1.7,0.2c-1.9,0.2-3.8,0.3-5.3-1.2c-0.7-0.7-0.8-1.4,0.4-1.7
			c1.2-0.3,2.5-0.6,3.7-0.8c1.2-0.3,2.4-0.6,3.6-0.8c4.1-0.7,5.2,0.6,3.9,4.5c-0.5,1.6-1.3,3.1-1.7,4.7c-0.2,0.6-0.1,1.4,0.2,2
			c0.4,0.9,1.1,1.7,1.5,2.6c0.5,1.1,0,1.8-1.2,1.8c-0.6,0-1.2-0.2-1.7-0.5c-2.1-1.5-4.2-3.1-6.3-4.6c0,0-0.1-0.1-0.1-0.1
			c-0.9-0.8-1.9-1.9-0.9-2.9c0.5-0.6,2.1-0.8,3-0.5c1.4,0.6,1.8,0.4,2-1C69.7,38.8,69.9,38.4,70.3,37.6z"/>
		<path class="st2" d="M14.6,16.1c0,0.6-0.1,1.2,0,1.7c0.2,0.5,0.6,1,1,1.5c0.2,0.2,0.6,0.2,0.9,0.4c0.9,0.7,1.8,1.4,1.5,2.7
			c-0.4,1.2-1.5,1.5-2.6,1.3c-2.5-0.4-5-0.8-7.5-1.4c-1.5-0.3-3-0.8-4.5-1.2c-1.8-0.5-2.4-1.1-2.1-2.3c0.3-1.1,1.8-1.9,3.2-1.5
			c1.1,0.3,2.2,0.6,3.3,0.9c0.6,0.1,1.2,0.3,1.8,0.2c0.4-0.1,0.9-0.7,0.9-1.1c-0.1-1.4-0.3-2.8-0.6-4.1c-0.3-1.1-0.3-2.1,0.9-2.7
			c0.9-0.5,2.9,0.2,3.2,1.2c0.5,1.4,0.7,2.9,1,4.4C14.8,16.1,14.7,16.1,14.6,16.1z"/>
		<path class="st2" d="M147.5,46.5c-2.6-0.7-5.2-1.5-6.3-4.5c-0.4-1.1-0.8-2.2-1-3.3c-0.1-0.6,0.1-1.3,0.4-1.8
			c0.5-0.8,1.2-0.9,1.8,0c1.1,1.6,2.2,3.3,3.4,4.9c0.2,0.3,0.5,0.8,0.8,0.9c1.6,0.7,2.6-0.6,3.6-1.4c0.8-0.6,1.5-1.3,0.9-2.5
			c-0.3-0.6-0.7-1.3-0.6-1.9c0-0.6,0.5-1.2,1-1.7c0.1-0.1,0.9,0.3,1.3,0.6c0.5,0.3,1,0.8,1.6,1.1c1.3,0.8,1.8,1.9,1.2,3.3
			c-1.3,3.1-3.8,5-6.9,6.1C148.2,46.5,147.9,46.4,147.5,46.5z"/>
		<path class="st2" d="M87.2,55.1c0.5-2.9,1-5.8,1.6-8.6c0.1-0.5,0.8-1.1,1.3-1.1c0.4,0,1.2,0.5,1.3,1c0.4,1.2,0.5,2.5,0.9,3.7
			c0.2,0.6,0.6,1.4,1.1,1.7c1,0.7,2.3,1,3.3,1.6c0.5,0.3,0.7,1,1.1,1.6c-0.6,0.3-1.1,0.9-1.7,0.9c-1.2,0-2.5-0.2-3.7-0.4
			c-0.9-0.2-1,0.2-1.1,0.9c-0.1,0.9-0.3,1.8-0.5,2.7c-0.3,1.1-1.2,1.3-2.2,1.2c-1-0.1-1.1-0.9-1.1-1.6c0-1.1,0-2.2,0-3.3
			C87.4,55.2,87.3,55.1,87.2,55.1z"/>
		<path class="st2" d="M29.2,39.3c0-1.4,0.6-2.4,1.8-3.1c1.2-0.8,2.1-0.2,2.3,1.2c0.3,1.9,0.7,3.8,1.3,5.6c0.5,1.7,2,2.8,3.4,3.9
			c0.4,0.3,0.8,1.1,0.7,1.5c-0.2,0.5-0.9,1.2-1.3,1.2c-0.9,0-2-0.2-2.8-0.7C31.1,46.7,29.6,43.3,29.2,39.3z"/>
		<path class="st2" d="M126.9,43.7c-0.2-1.2-0.3-2.4-0.5-3.6c-0.1-1-0.1-2.1,1.1-2.5c1.2-0.4,2.1,0.4,2.6,1.7
			c0.9,2.4,0.6,4.8,0.1,7.2c-0.2,0.9-0.6,1.6-1.7,1.6c-1.1,0-1.4-0.9-1.6-1.8c-0.1-0.9-0.1-1.8-0.2-2.6
			C126.8,43.7,126.8,43.7,126.9,43.7z"/>
		<path class="st2" d="M137,41.3c-0.3,1.6-0.5,2.9-0.8,4.1c-0.1,0.4-0.6,1-0.9,1c-0.4,0-1.1-0.4-1.3-0.8c-1.1-2.7-1.4-5.6-1.2-8.5
			c0-0.4,0.7-0.9,1.2-1c0.4-0.1,1.2,0.3,1.3,0.6C136.1,38.2,136.6,39.9,137,41.3z"/>
		<path class="st2" d="M44.7,37.1c0.3-0.4,0.6-1.3,1.1-1.4c0.5-0.1,1.5,0.2,1.8,0.7c1.1,1.8,2,3.7,3,5.6c0.1,0.2,0.1,0.4,0.1,0.5
			c-0.2,0.7-0.5,1.4-0.7,2c-0.7-0.2-1.7-0.3-2-0.8c-1-1.3-1.8-2.8-2.6-4.2C45,38.9,45,38.2,44.7,37.1z"/>
		<path class="st2" d="M115.2,55c-0.8-0.2-1.3-0.3-1.7-0.5c-0.4-0.2-0.9-0.7-1-1c0-0.4,0.4-0.9,0.8-1.1c2.2-1.4,4.5-2.8,6.8-4.2
			c0.5-0.3,1.4-0.5,1.8-0.2c0.8,0.6,0.3,1.3-0.3,1.9c-1.3,1.4-2.6,2.7-4.1,4C116.9,54.4,115.9,54.7,115.2,55z"/>
		<path class="st2" d="M116.2,41.4c1.2,0,2.5-0.1,3.7,0.1c0.5,0.1,1,0.8,1.5,1.2c-0.4,0.5-0.7,1.1-1.2,1.4c-2,1.3-4.4,0.9-6.6,0.8
			c-0.6,0-1.4-0.5-1.8-1c-0.3-0.3-0.4-1.1-0.3-1.5c0.2-0.4,0.9-0.8,1.4-0.9C114,41.4,115.1,41.5,116.2,41.4
			C116.2,41.5,116.2,41.4,116.2,41.4z"/>
		<path class="st2" d="M12.8,36.1c-1.2-0.1-2.2-0.1-3.2-0.3c-1.2-0.2-1.9-1.1-2-2.2c-0.1-0.6,0.2-1.7,0.6-1.8c0.9-0.3,1.9-0.1,2.9,0
			c0.9,0.1,1.8,0.5,2.7,0.6c1.2,0.1,2.3,0.7,2.3,1.7c0,1.2-0.8,1.7-1.9,1.8C13.6,36,13.1,36.1,12.8,36.1z"/>
		<path class="st2" d="M41.7,38.3c-0.2,1.3-0.3,2.7-0.7,3.9c-0.2,0.6-1,1.4-1.4,1.3c-0.6-0.1-1.5-0.8-1.6-1.4
			c-0.3-1.9-0.3-3.9-0.3-5.9c0-1.1,0.8-1.4,1.8-1.4c1.1,0,1.8,0.4,2,1.5c0.1,0.6,0,1.3,0,1.9C41.6,38.3,41.7,38.3,41.7,38.3z"/>
		<path class="st2" d="M13.5,28.8c-1.7-0.3-3.1-0.5-4.5-0.9c-1.4-0.4-2-2-1.3-3c0.3-0.4,1-0.9,1.4-0.8c1.8,0.3,3.6,0.6,5.4,1.1
			c0.6,0.2,1.3,0.9,1.5,1.5c0.3,1-0.7,1.4-1.4,1.7C14.1,28.6,13.7,28.7,13.5,28.8z"/>
		<path class="st2" d="M117.1,34.7c-1.7-0.9-3.3-1.5-4.7-2.5c-1.1-0.8-0.4-3,1-3.3c0.3-0.1,0.7,0.3,1,0.5c0.8,0.5,1.6,1,2.4,1.5
			c0.3,0.2,0.9,0.2,1.1,0.4c0.5,0.5,1.2,1.3,1,1.7C118.7,33.6,117.8,34,117.1,34.7z"/>
		<path class="st2" d="M25.9,41.5c-0.1,0.8-0.2,1.6-0.5,2.4c-0.2,0.5-0.7,1-1.1,1.1c-0.4,0.1-1.1-0.4-1.3-0.7
			c-0.5-1.3-1.1-2.8-1.2-4.2c-0.1-0.5,0.9-1.3,1.6-1.6c0.9-0.4,1.7,0.2,2.1,1.1C25.8,40.2,25.8,40.9,25.9,41.5z"/>
	</g>
</g>
<g class="st0">
	<path class="st3" d="M53.9,36.9c0-2.2,0-4.5,0-6.7c0.1-2.8,1.4-3.5,3.8-2.2c0.6,0.3,1.4,0.2,2.1,0.2c0-0.9,0.1-1.9-0.1-2.7
		c-0.1-0.4-0.8-0.8-1.2-0.8c-2.1-0.1-4.2,0-6.2-0.1c-1.3,0-3.1-1.5-3.4-2.7c-0.3-1.1,1.5-2.2,2.8-2c1.8,0.3,3.5,0.6,5.3,0.6
		c0.6,0,1.7-0.6,1.8-1.1c0.1-0.7-0.4-1.6-1-2.1c-0.5-0.4-1.5-0.6-2.2-0.5c-1.3,0-2.1-0.6-2.5-1.6c-0.3-0.5-0.3-1.4,0-1.9
		c0.2-0.4,1-0.7,1.6-0.8c1.2,0,2.3,0.3,3.5,0.2c1.3-0.1,2.7-0.6,4-0.8c1.7-0.2,3.4-0.3,5.1-0.3c0.4,0,1.1,0.8,1.2,1.2
		c0.1,0.5-0.3,1.3-0.8,1.5c-0.8,0.5-1.8,0.9-2.8,1.1c-1.4,0.3-1.8,1.2-1.6,2.5c0.2,1.3,1,1.8,2.3,1.4c2-0.5,4-1,6-1.6
		c2.1-0.6,3.4-0.3,4.2,0.9c0.5,0.8,0.5,1.5-0.4,1.8c-2.4,0.7-4.8,1.4-7.2,2.1c-0.7,0.2-1.4,0.2-2,0.4c-2,0.9-2.4,1.6-1.7,3.7
		c0.2,0.4,0.9,0.9,1.4,0.9c4,0.3,6,2.3,6.2,6.3c0.1,2,0.2,3.9,0.3,5.9c0.1,1.5-0.3,2.6-1.8,3.2c-1.4,0.5-2.8,1.1-4.1,1.8
		c-0.4,0.2-0.9,0.8-1,1.3c-0.1,1.3,0,2.6,0,3.8c0,1.2,0.6,1.7,1.8,1.7c1,0,2-0.1,3,0c0.6,0.1,1,0.5,1.6,0.8c-0.3,0.5-0.5,1.1-1,1.4
		c-0.5,0.4-1.3,0.5-1.9,0.7c-0.5,0.1-1.1,0.1-1.5,0.3c-0.7,0.5-1.9,1.2-1.9,1.8c0,1.4,1.4,1,2.3,0.9c1.2-0.1,2.4-0.5,3.6-0.6
		c0.7-0.1,1.6,0,2.2,0.4c1.1,0.6,1,1.5-0.1,2c-1.6,0.7-3.2,1.4-4.8,1.9c-2.9,0.8-5.7,2.1-8.9,1.7c-0.3,0-0.5,0-0.8,0
		c-1.1-0.1-2.4-0.3-2.5-1.7c-0.1-1.5,1.2-1.7,2.4-1.8c0.5,0,1.2-0.1,1.5-0.4c0.5-0.6,1.1-1.4,1-2c0-0.5-0.9-1.2-1.6-1.4
		c-0.8-0.2-1.7,0.1-2.5-0.1c-0.6-0.1-1.5-0.9-1.4-1.1c0.2-0.7,0.8-1.3,1.3-1.7c0.3-0.2,0.8-0.1,1.2-0.1c2,0,2.8-1,2.6-2.9
		c0-0.3-0.1-0.6-0.1-1c-0.1-2.3-1.2-3.3-3.5-2.9c-2.8,0.4-3.4-0.2-3.5-3c0-1,0-2,0-3C53.9,38.8,53.9,37.9,53.9,36.9
		C53.9,36.9,53.9,36.9,53.9,36.9z M61.4,34.6c-0.2-0.7-0.2-1.3-0.5-1.5c-0.6-0.3-1.4-0.4-2.1-0.6c-0.1,1.2-0.2,2.4-0.3,3.6
		c0.7,0.1,1.5,0.3,2,0.1C61,35.9,61.1,35.1,61.4,34.6z M66.8,37.8c-0.6,0.9-1.1,1.4-1.3,2c-0.1,0.3,0.7,1.1,0.8,1
		c0.6-0.2,1.3-0.6,1.5-1.1C67.9,39.4,67.3,38.8,66.8,37.8z M60.7,39.7c-0.3,0.1-0.6,0.3-0.9,0.4c-0.5,0.4-1,0.9-1.5,1.3
		c0.3,0.3,0.7,0.9,0.8,0.9c0.7-0.3,1.4-0.7,1.8-1.3C61.2,40.8,60.8,40.2,60.7,39.7z M67.6,33.8c-0.7-0.6-1.1-1-1.6-1.3
		c-0.1-0.1-0.9,0.7-0.9,0.7c0.3,0.5,0.7,1,1.2,1.4C66.4,34.8,67,34.3,67.6,33.8z"/>
	<path class="st3" d="M142.4,26.1c2.2,0.3,4.3,0.5,6.4,1c0.8,0.2,1.7,1.1,2.2,1.9c0.6,1.1,1,2.5,1.2,3.8c0.8,4.9,1.5,9.9,2.2,14.8
		c0.6,4.1,1,8.3,1.5,12.4c0.3,2.5-1.1,5-3.2,5.6c-1.7,0.5-4.5-0.8-5.4-2.8c-0.2-0.4-0.2-1.2,0.1-1.5c0.3-0.3,1-0.2,1.5-0.2
		c0.1,0,0.3,0.1,0.4,0.2c0.7,0.3,1.3,0.5,2,0.8c0.1-0.8,0.5-1.5,0.4-2.2c-0.6-5.2-1.2-10.4-1.9-15.5c-0.3-1.9-1-2.1-2.7-1.4
		c-1.6,0.6-3.4,1-5.1,1.3c-1.3,0.2-1.9-0.9-2.1-2c-0.5-3.6-0.9-7.2-1.4-10.8c-0.1-0.7-0.2-1.5-0.4-2.2c-0.4-2.1,0.3-2.9,2.4-2.8
		c0.6,0,1.2,0,1.8,0C142.4,26.3,142.4,26.2,142.4,26.1z M144.7,39.6c1.3-0.5,2.4-0.9,3.5-1.4c0.2-0.1,0.5-0.6,0.4-0.9
		c-0.1-0.3-0.5-0.8-0.8-0.8c-1.1-0.1-2.3-0.2-3.3,0.1c-0.5,0.1-0.9,1.2-1,1.8C143.5,38.8,144.3,39.2,144.7,39.6z M147.3,32.2
		c0-0.3-0.1-0.6-0.1-0.9c-0.9-0.1-1.9-0.3-2.8-0.2c-0.3,0-0.9,0.8-0.9,1c0.1,0.4,0.8,1.1,1.1,1C145.4,33,146.3,32.6,147.3,32.2z"/>
	<path class="st3" d="M90.7,29.6c0.6,0.1,1.1,0.2,1.6,0.2c1.1,0.1,2.2,0,3.4,0.1c2.5,0.2,3.9,1.5,3.7,4c-0.3,3.5-0.8,7-1.3,10.5
		c-0.1,0.7-0.4,1.3-0.8,1.9c-1.6,2-3.5,2.1-5.1,0.1c-1-1.2-1.8-2.5-2.3-4c-0.6-1.5,0.4-2.3,1.9-1.8c1.1,0.4,1.6,0.3,1.7-1
		c0.1-1.4,0.6-2.7,0.7-4c0.1-1.3-0.6-1.9-2.1-1.6c-3.1,0.6-3.5,1.3-4.4,4.4c-1.2,4-2.4,8.1-5.4,11.3c-0.7,0.7-1.6,1.3-2.5,1.7
		c-0.4,0.2-1.2,0-1.5-0.3c-0.3-0.3-0.2-1.2,0-1.5c3.2-4,4.5-8.9,5.7-13.8c0.1-0.5-0.4-1.2-0.8-1.8c-0.1-0.2-0.5-0.2-0.7-0.4
		c-0.4-0.5-0.9-1.2-0.8-1.7c0.1-0.4,1-1,1.5-1c1.9,0.1,2.7-1,3.1-2.6c0.2-0.9,0.4-1.8,0.5-2.7c0.4-2.4,1.9-3.4,4.2-2.8
		c1.1,0.3,1.4,1,1.2,2.1c-0.2,0.8-0.3,1.6-0.6,2.3C91.5,27.9,91.2,28.6,90.7,29.6z"/>
	<path class="st3" d="M116.8,49.8c0.2,3,0.4,6,0.7,8.9c0.1,1.6-0.6,2.7-1.8,2.9c-1.2,0.2-2.3-0.9-2.4-2.4c-0.5-6.6-1-13.2-1.5-19.7
		c-0.1-1.2,0.2-2.3,0.2-3.5c0-0.8,0.1-1.7,0-2.5c-0.3-2.3,0.7-3.5,3-3.3c1.4,0.1,2.9,0.1,4.3,0.1c2.7,0,5,2.3,5,5
		c0,2.1,0.1,4.3,0,6.4c-0.1,2.7-1.7,3.7-4.2,2.7c-2.1-0.9-3.3-0.1-3.2,2.1C116.9,47.6,116.9,48.7,116.8,49.8
		C116.9,49.8,116.9,49.8,116.8,49.8z M117.6,42.1c0.8-0.7,1.5-1.3,2.2-2c-0.3-0.3-0.7-0.9-0.8-0.9c-0.9,0.5-1.7,1.1-2.6,1.7
		C116.8,41.2,117,41.5,117.6,42.1z M118.1,36.7c0.5-0.6,1.1-1.1,1-1.2c-0.4-0.5-0.8-1.1-1.4-1.3c-0.2-0.1-0.7,0.7-1.1,1
		C117,35.6,117.5,36.1,118.1,36.7z"/>
	<path class="st3" d="M21.1,28.9c0.9,0,1.7,0.1,2.5,0c0.4-0.1,0.7-0.6,1.1-0.9c-0.4-0.3-0.7-0.8-1.1-1c-1.5-0.7-3-1.2-4.5-1.9
		c-0.8-0.4-1.7-1-1.2-2.1c0.5-1,1.4-2.1,2.8-1.7c3.4,1,6.8,1.3,10.2,1.2c0.9,0,1.9,0.1,2.6,0.5c0.6,0.3,1.3,1,1.5,1.6
		c0.1,0.4-0.5,1.3-1,1.6c-1,0.5-2.1,0.5-3.1,0.9c-0.5,0.2-1,0.6-1.5,0.9c0.5,0.3,1,1,1.5,1c1.6,0,3.3-0.3,4.9-0.2
		c0.8,0,2,0.5,2.3,1.1c0.6,1-0.3,1.9-1.3,2.2c-1.7,0.5-3.5,0.8-5.3,1c-2,0.2-2.1,0.2-2.2,2.3c-0.1,1.2-0.1,2.5-0.5,3.6
		c-0.2,0.6-1.2,1.4-1.7,1.3c-0.6-0.1-1.1-1-1.5-1.7c-0.2-0.4-0.2-1-0.2-1.6c-0.4-2.7-0.4-2.6-3.1-3.1c-1.5-0.3-2.9-0.8-4.3-1.3
		c-0.9-0.3-1.6-0.9-1.3-2.1c0.2-1.1,1-1.4,2-1.4C19.8,28.9,20.4,28.9,21.1,28.9C21.1,29,21.1,29,21.1,28.9z"/>
	<path class="st3" d="M36.1,48.6c0.3,1.2,0.6,2.3,1,3.5c0.4,1.2,0,2.5-1.3,2.8c-2.1,0.5-4.2,0.8-6.2,1.1c-1.2,0.2-2.5,0.3-3.7,0.7
		c-2.4,0.8-3.4,0.2-3.6-2.2c-0.2-1.9-0.1-3.7-0.3-5.6c-0.1-1.2-0.4-2.3-0.4-3.5c0-1.2,0.2-2.5,0.6-3.6c0.4-1,1.4-1.2,2.6-1
		c1,0.2,2.1,0.2,3.1,0.3c1.5,0.1,3.1-0.1,4.6,0.3c3.3,0.8,3.4,3.7,3.8,6.4c0,0.3,0,0.5,0,0.8C36.3,48.5,36.2,48.6,36.1,48.6z
		 M29.1,51.9c0.2,0,0.4,0,0.6,0c1.8,0,1.9-0.2,1.5-1.9c-0.2-0.7-0.2-1.5-0.3-2.2c-0.1-1.7-1.2-2.3-3.6-2c-1.8,0.2-0.8,1.3-0.8,2.1
		c0,0.6,0.1,1.2,0.1,1.7C26.9,51.9,26.9,51.9,29.1,51.9z"/>
	<path class="st3" d="M134.4,44.3c2,0,3.9,1.4,4.3,3.2c0.4,1.5,0.5,3,0.7,4.6c0.2,1.3,0.4,2.6,0.7,3.9c0.3,1.1-0.7,4.6-1.7,5.2
		c-1,0.7-2,0.4-2.6-0.6c-0.9-1.5-1.9-1.2-3.1-0.3c-0.4,0.3-0.8,0.6-1.2,0.8c-1.4,0.8-2.7,0.2-2.9-1.4c-0.3-2.3-0.5-4.6-0.7-6.8
		c-0.2-1.9-0.5-3.8-0.8-5.7c-0.2-1.3,0.4-2,1.5-2.1C130.7,44.7,132.6,44.5,134.4,44.3z M131.6,49.2c0.7,0.9,1.2,1.5,1.7,2.1
		c0.3-0.4,1-0.9,1-1.1c-0.3-0.8-0.9-1.4-1.4-2.1C132.6,48.4,132.3,48.7,131.6,49.2z"/>
	<path class="st3" d="M131,12.9c-2,0.9-3.2,2.2-3.5,4.6c-0.2,1.8-1.5,3.6-2.5,5.2c-0.8,1.2-2.7,0.6-3-1c-0.3-1.8-0.4-3.6-0.5-5.4
		c-0.1-0.7-0.1-1.3-0.2-2c-0.2,0-0.3-0.1-0.5-0.1c-0.2,0.4-0.4,0.7-0.6,1.1c-0.4,0.8-0.6,1.8-1.2,2.4c-0.6,0.5-1.7,0.8-2.4,0.5
		c-0.5-0.2-1.1-1.4-1-2c0.5-2.7,1-5.3,1.9-7.9c0.2-0.7,1.5-1.4,2.3-1.5c0.7-0.1,1.7,0.6,2.1,1.2c0.9,1.3,3.3,2.4,5,1.9
		C129.4,9.4,130.7,10.3,131,12.9L131,12.9z"/>
	<path class="st3" d="M196.4,42.7c-0.3,3.7-0.7,8.3-1.1,12.9c-0.1,1.6-0.1,3.3-0.2,5c-0.1,0.8-0.3,1.6-0.7,2.3
		c-0.3,0.5-1.1,0.7-1.6,1c-0.3-0.6-0.9-1.1-0.9-1.7c-0.2-1.9-0.2-3.8-0.2-5.7c0-5.5,0-11,0-16.5c0-2.1,0-4.2,0.3-6.2
		c0.1-1.1,0.1-2.5,1.8-2.5c1.8-0.1,2,1.3,2.1,2.4C196.2,36.3,196.2,39,196.4,42.7z"/>
	<path class="st3" d="M131,13c1.4-1.7,1.3-3.7,1.1-5.6c-0.1-2,1.1-3.5,2.9-3c0.7,0.2,1.4,0.8,1.7,1.5c0.7,1.5,1.7,1.9,3.3,1.6
		c1.8-0.3,3.6-0.3,5.4-0.1c0.6,0,1.6,0.7,1.7,1.3c0.1,0.6-0.5,1.5-1.1,1.8c-0.8,0.5-1.9,0.6-2.9,0.8c-0.6,0.1-1.2,0.2-2.1,0.3
		c0.9,1.1,1.6,1.8,2.1,2.7c0.6,1,1.2,2.1,1.6,3.3c0.2,0.5,0.1,1.5-0.3,1.8c-0.4,0.3-1.5,0.3-1.9,0c-2.1-1.7-4.6-3.1-5.6-6
		c-0.2-0.5-0.5-0.9-0.9-1.7c-0.4,0.7-0.5,1-0.7,1.3c-0.3,0.7-0.5,1.5-1.1,1.9c-0.6,0.5-1.6,0.9-2.4,0.8C130.6,15.3,131,14,131,13
		C131,12.9,131,13,131,13z"/>
	<path class="st3" d="M173,31.6c-0.8-0.8-1.9-1.4-2.2-2.3c-0.4-1.1,0.7-1.4,1.7-1.9c1.1-0.5,2-1.3,2.9-2.1c1.3-1.3,2.5-2.8,3.6-4.2
		c1-1.2,1.9-2.5,2.7-3.8c1.1-1.9,2.2-2.4,4.3-1.9c1.3,0.4,1.8,1.4,0.9,2.5c-3.3,4.2-6.5,8.5-10.8,11.9
		C175.3,30.4,174.2,30.8,173,31.6z"/>
	<path class="st3" d="M191.4,16.1c0.2-0.4,0.5-1.1,0.9-1.3c0.3-0.2,1.1,0.2,1.5,0.6c3.6,4.1,8.3,6.7,13.1,9.1c1,0.5,2,1.2,1.6,2.6
		c-0.3,1.1-1.9,1.8-3.4,1.1c-3-1.4-6-2.8-8.6-4.8c-1.9-1.5-3.2-3.9-4.7-5.9C191.5,17.2,191.5,16.8,191.4,16.1z"/>
	<path class="st3" d="M183,34.9c1.8,0,2.5,0.9,2.4,2.7c-0.2,3.7-1.1,7.1-3,10.3c-0.5,0.8-1,1.5-1.7,2.1c-0.8,0.8-1.8,0.9-2.7,0.1
		c-1-0.8-0.3-1.5,0.1-2.4c1.5-3.5,3.8-6.8,2.9-11C180.8,35.5,181.6,34.9,183,34.9z"/>
	<path class="st3" d="M11,40.9c-3.2,0-8.6-3.5-9.4-5.9c-0.2-0.7,0.2-1.7,0.7-2.3c0.2-0.2,1.3-0.1,1.7,0.2c2.5,1.4,5.1,2.9,7.5,4.5
		c0.6,0.4,1.4,1.6,1.2,2.1C12.4,40.2,11.3,40.6,11,40.9z"/>
	<path class="st3" d="M9.2,49.4c-1.8-0.5-3.6-0.9-5.3-1.6c-0.6-0.2-0.9-1.3-1.3-2c0.6-0.3,1.2-0.9,1.8-1c2.3-0.3,4.5-0.6,6.8-0.6
		c0.8,0,1.8,0.4,2.4,1c0.5,0.5,1.1,1.7,0.8,2.1C14,48,13,48.5,12.1,48.8c-0.9,0.2-1.9,0.1-2.8,0.1C9.2,49,9.2,49.2,9.2,49.4z"/>
	<path class="st3" d="M8.1,56.8c-0.7-0.2-1.6-0.4-2.3-0.9c-0.5-0.3-1.1-1.1-1-1.5c0.2-0.6,0.8-1.2,1.4-1.4c2.1-0.8,4.2-1.4,6.3-2.1
		c0.6-0.2,1.1-0.9,1.7-1.1c0.7-0.2,1.7-0.4,2.1,0c0.4,0.4,0.5,1.6,0.2,2.1C14.6,54.8,11.8,56.3,8.1,56.8z"/>
</g>
<g class="st0">
	<path class="st3" d="M90.3,43.6c-1.2,0-2.5,0.1-3.7,0c-1.6-0.1-2.2-0.9-2.2-2.5c-0.1-2.7-0.5-5.3-0.6-8c-0.2-3-0.3-6.1-0.3-9.1
		c0-1.9,0.3-2,2.2-2.1c0.8,0,1.2-0.3,1.1-1.2c0-0.3,0-0.6,0-1c0.3-1.6,0-2-1.8-2.2c-1.2-0.1-2.4-0.3-3.6-0.6c-1-0.3-1.7-1-1.4-2
		c0.4-1,1.1-1.8,2.4-1.7c0.5,0,1.1,0.2,1.6,0.4c2.4,0.7,4.7,0.6,7.1,0c1.2-0.3,2.5-0.5,3.7-0.3c0.7,0.1,1.6,0.9,2,1.6
		c0.2,0.4-0.5,1.5-1,1.8c-0.8,0.5-1.8,0.8-2.8,0.9c-2.5,0.3-3.7,1.5-3.1,3.9c0.1,0.4,1,0.8,1.6,0.9c1.2,0.3,2.4,0.5,3.6,0.8
		c1.1,0.2,1.4,1,1.5,2c0.2,3,0.5,6,0.8,8.9c0.2,2,0.5,4,0.7,6c0,0.4-0.1,1-0.4,1.4c-1,1.2-2.3,2.1-4,2.1
		C92.4,43.7,91.4,43.7,90.3,43.6C90.3,43.7,90.3,43.7,90.3,43.6z M91.4,40.2C91.5,40.1,91.5,40.1,91.4,40.2c0.2-0.1,0.4-0.1,0.6-0.1
		c1.5,0,1.6-0.3,1.6-2.2c0-1.2-0.7-1.3-1.7-1.2c-0.8,0.1-1.7,0-2.5-0.1c-0.5,0-1.1-0.2-1.6-0.3c-0.1,0.7-0.3,1.5-0.1,2.1
		c0.2,0.5,0.9,1,1.5,1.2C89.9,40,90.7,40,91.4,40.2z M89.7,28.9c0.2,0,0.5,0,0.7,0c0.8,0,1.7,0,1.6-1.1c0-1.1-0.7-1.5-1.7-1.5
		c-0.6,0-1.2-0.3-1.9-0.3c-0.3,0-0.9,0.3-1,0.6C87,28.4,87.5,28.9,89.7,28.9z M88.3,32.4c0,0.2,0,0.4-0.1,0.6c1.3,0.3,2.6,0.5,4,0.7
		c0.2,0,0.6-0.3,0.6-0.5c0-0.2-0.2-0.7-0.4-0.7C91,32.2,89.6,32,88.3,32.4z"/>
	<path class="st3" d="M176.4,28.9c0.4,2.6,1.7,4.4,3.9,5.7c0.6,0.3,1.3,0.6,1.8,1.1c0.4,0.3,0.9,1,0.8,1.4c-0.2,0.5-0.8,1-1.3,1.1
		c-0.8,0.1-1.6-0.2-2.4-0.4c-0.4-0.1-0.7-0.2-1.4-0.4c0.2,1.4,0.4,2.6,0.5,3.8c0.2,2.4,0.4,4.9,0.6,7.3c0,0.5,0,1-0.1,1.5
		c-0.2,1.1-1,1.6-2,1.6c-1,0-1.4-0.8-1.5-1.7c-0.3-3.3-0.6-6.5-0.9-9.8c-0.1-0.6-0.3-1.2-0.4-1.7c-0.1,0-0.3,0-0.4,0
		c-0.2,0.4-0.4,0.8-0.7,1.2c-0.9,1.3-1.6,2.7-2.7,3.8c-0.3,0.4-1.4,0.5-1.9,0.3c-0.8-0.4-1-1.2-0.6-2.1c1.4-3.1,2.8-6.2,4.1-9.4
		c0.2-0.5,0.3-1.2,0.1-1.5c-0.3-0.3-1-0.3-1.5-0.2c-1.7,0.3-3.5,1-5.1-0.1c-0.5-0.3-1.2-1-1.1-1.5c0-0.5,0.8-1.1,1.3-1.3
		c1.1-0.4,2.3-0.6,3.5-0.7c1-0.2,2.1-0.3,2.3-1.6c0.2-1.1-1-3.1-2-3.4c-0.6-0.2-1.2-0.1-1.8-0.3c-0.8-0.3-1.6-0.6-2.3-1.1
		c-0.3-0.3-0.4-1.1-0.2-1.6c0.1-0.3,0.7-0.6,1.2-0.7c0.7-0.1,1.5,0,2.2,0c0.3,0,0.6,0.1,0.8,0c2.1-1.1,4.3-0.6,6.4-0.5
		c0.9,0,2,0.4,2.6,0.9c0.5,0.4,0.6,1.5,0.4,2.3c-0.1,0.4-1.1,0.6-1.7,0.8c-0.1,0.1-0.3,0-0.4,0c-0.6,0.1-1.7,0.3-1.7,0.4
		c0,0.8,0.1,1.8,0.6,2.5c0.2,0.3,1.2,0.2,1.8,0.1c1.1-0.1,2.1-0.4,3.2-0.5c0.9-0.1,1.6,0.4,1.8,1.4c0.1,1-0.4,1.6-1.3,1.9
		c-1.3,0.4-2.7,0.7-4,1C176.9,28.7,176.6,28.8,176.4,28.9z"/>
	<path class="st3" d="M196.4,54.6c-2.1,0-3.6-0.1-5,0c-1.8,0.2-3.3-0.6-4.9-1.3c-0.5-0.2-0.9-1-1-1.5c0-0.4,0.5-1,1-1.3
		c1.2-1,2.3-0.8,3.6-0.1c1.2,0.6,2.7,0.6,4.1,0.7c0.2,0,0.7-0.8,0.6-0.9c-0.4-0.7-0.9-1.4-1.6-1.9c-0.6-0.4-1.4-0.5-2-0.9
		c-0.5-0.4-1.3-1.1-1.2-1.5c0.2-0.6,0.9-1,1.5-1.4c0.5-0.3,1.6-0.3,1.7-0.7c0.3-0.9,0.2-1.9,0-2.9c-0.1-0.4-0.7-0.7-1.1-0.9
		c-0.5-0.3-1.2-0.4-1.6-0.8c-0.4-0.4-0.8-1.1-0.7-1.5c0.2-0.6,0.9-1.3,1.4-1.3c3-0.4,6-0.6,9.1-0.8c0.8-0.1,1.7,0,2,1
		c0.3,1.1-0.5,1.7-1.2,2.1c-0.8,0.4-1.7,0.6-2.6,0.9c-0.9,0.3-1.2,0.8-1,1.8c0.2,0.8,0.3,1.6,0.5,2.5c0.8-0.2,1.6-0.4,2.5-0.5
		c0.8-0.1,1.7-0.2,2.5,0c0.9,0.2,1.3,0.9,0.5,1.6c-0.8,0.7-1.8,1.3-2.7,1.8c-0.6,0.3-1.3,0.5-1.9,0.8c-1.2,0.4-0.9,1.3-0.9,2.2
		c0.1,0.9,0.7,1.3,1.5,1.3c1.7-0.1,3.5-0.3,5.2-0.5c0.6-0.1,1.2-0.3,1.8-0.3c0.5,0,1.1,0.4,1.6,0.6c-0.2,0.6-0.3,1.3-0.7,1.8
		c-0.4,0.4-1.1,0.5-1.6,0.7C202.8,54.6,199.3,54.8,196.4,54.6z"/>
	<path class="st3" d="M31.5,24.6c-1.2,2.3-2.2,4.5-3.4,6.6c-0.5,0.8-1.5,1.5-2.3,2c-0.3,0.2-1.3-0.1-1.5-0.5c-0.2-0.3,0-1.1,0.2-1.6
		c0.8-1.8,1.7-3.6,2.5-5.4c0.4-0.9-0.2-1.3-0.8-1.8c-0.9-0.7-1.8-1.4-2.5-2.3c-0.8-1-0.5-2,0.4-2.6c1.1-0.7,1.7,0,2.3,0.8
		c0.3,0.3,0.4,0.7,0.7,1c0.6,0.6,1.2,0.6,1.6-0.3c1.1-2.5,1.1-2.4-1.5-3.5c-1-0.4-1.9-1.2-2.6-2.1c-0.3-0.4,0-1.5,0.4-2
		c0.3-0.4,1.3-0.5,1.8-0.3c2.5,1.2,5.3,1.2,7.9,1.6c0.5,0.1,1,0,1.5,0c2.7,0,3.8,1,3.8,3.8c0,2,0,4.1-0.2,6.1
		c-0.1,1.6-0.2,3.3-2,3.9c-2,0.7-4.2-0.1-5.4-2C32.1,25.6,31.8,25.2,31.5,24.6z M32.1,22.6c0.6,0.2,1.1,0.5,1.6,0.7
		c1,0.5,1.5,0.2,1.5-0.9c0-0.8,0.1-1.7,0-2.5c-0.1-0.5-0.4-1-0.6-1.6c-0.5,0.3-1.3,0.6-1.5,1C32.7,20.4,32.5,21.5,32.1,22.6z"/>
	<path class="st3" d="M133.3,17.9c-1,0-1.8,0.1-2.7,0c-0.9-0.2-1.8-0.5-2.7-0.9c-1-0.5-0.9-1.4-0.4-2.3c0.5-0.9,1.1-1,2.1-0.7
		c1,0.3,2,0.4,3,0.5c0.3,0,0.7-0.3,1.1-0.4c-0.2-0.3-0.4-0.8-0.7-1c-0.3-0.3-0.9-0.4-1.2-0.7c-0.3-0.4-0.5-0.9-0.4-1.4
		c0.1-0.3,0.6-0.8,0.9-0.8c1.7-0.3,3.5-0.3,4.6,1.4c0.3,0.5,0.6,1.3,0.5,1.9c-0.1,1,0.2,1.3,1.1,1.3c0.6,0,1.3-0.2,1.9-0.1
		c0.6,0.1,1.3,0.3,1.8,0.6c0.4,0.2,0.8,0.8,0.7,1.2c-0.1,0.3-0.7,0.7-1.1,0.8c-0.8,0.3-1.6,0.5-2.4,0.6c-1.4,0.2-2,1.1-2.5,2.3
		c-0.6,1.5-1.3,2.9-1.9,4.4c-0.2,0.4-0.1,1-0.2,1.5c0.5-0.1,1.2,0,1.5-0.3c0.5-0.4,1-1.1,1.1-1.7c0.2-1.3,1.1-1.9,2.1-2.3
		c0.4-0.2,1.2,0,1.6,0.3c1.4,1,2.8,2.1,4,3.3c0.5,0.5,0.9,1.3,1.2,2c0.3,0.9,0.2,1.9-0.7,2.5c-0.9,0.6-1.6,0-2.2-0.5
		c-1-0.8-1.9-1.5-2.9-2.3c-0.9-0.7-1.4-0.7-1.9,0.5c-1.2,2.6-3.7,3.5-6.2,2.2c-2.2-1.1-2.9-3.1-1.9-5.3c0.8-1.7,1.7-3.5,2.6-5.2
		C133.1,18.7,133.2,18.5,133.3,17.9z"/>
	<path class="st3" d="M203.3,17.9c-0.1,1.6-0.1,2.7-0.2,3.9c-0.1,0.5-0.5,1.2-1,1.4c-3.9,1.4-7.8,2.6-12,1.5c-1-0.3-1.7-1-1.4-1.9
		c0.7-2.7-0.1-5.3-0.3-7.9c-0.1-0.7-0.2-1.5-0.3-2.2c-0.2-1.5,0.2-2,1.7-2.1c0.1,0,0.3,0,0.4,0c2.6,1.1,5.1,0,7.7,0
		c3.3,0.1,4.6,1.2,5,4.4C203.1,16,203.2,17.1,203.3,17.9z M192.7,17.9C192.7,17.9,192.7,17.9,192.7,17.9c0.1,0.6,0.1,1.2,0.1,1.8
		c0,0.9,0.5,1.5,1.4,1.3c1.5-0.2,3-0.6,4.5-1c0.3-0.1,0.9-0.7,0.8-0.9c-0.3-1.4-0.6-2.8-1.1-4.2c-0.3-0.9-1.1-1-2.1-0.6
		c-0.6,0.3-1.4,0.5-2.1,0.5c-1,0-1.4,0.5-1.5,1.4C192.7,16.8,192.7,17.4,192.7,17.9z"/>
	<path class="st3" d="M76,26.2c-1.1-0.4-1.5,0.3-2.4,1c-1,0.9-2.5,1.4-3.8,1.6c-1.2,0.3-2.5,0.1-3.7,0c-0.5,0-1.1-0.2-1.4-0.5
		c-1-1.1-1.7-0.9-2.6,0.1c-0.3,0.4-0.7,0.6-1.1,0.9c-0.9,0.5-1.8,0.5-2.6-0.2c-0.9-0.7-0.5-1.6,0.1-2.2c1.8-2.1,2.9-4.8,5.2-6.5
		c0.7-0.5,1-1.6,1.5-2.4c0.3-0.5,0.5-1,0.8-1.5c0.9-1.5,2.2-1.4,3.1,0.1c1.6,2.8,4,4.5,7.1,5.3c1.1,0.3,2.1,1.5,2,2.5
		C78.3,25.6,77.3,26.3,76,26.2z M73.4,25.2C72,24.5,71,24.1,70,23.6c-0.8-0.4-1.4-1.1-2.1-1.6c-0.6,0.8-1.1,1.5-1.7,2.3
		c0,0-0.1,0.1-0.1,0.1c-0.5,0.6-0.3,1.1,0.5,1.1C68.8,25.4,70.9,25.3,73.4,25.2z"/>
	<path class="st3" d="M8.3,50.1c-0.1-1.9-0.5-3.9-0.4-5.8C8,43.1,8.4,41.7,9,40.6c0.6-1.1,2.7-0.7,3.1,0.7c0.4,1.2,1,1.8,2.2,2
		c1.6,0.4,2.4,1.5,2.7,3c0.3,1.2,0.3,2.5,0.5,3.7c0.2,1.5,0.2,3,0.5,4.5c0.2,1,0,1.8-1,2.1c-0.9,0.3-1.9,0.5-2.9,0.8
		c-0.9,0.2-1.9,0.4-2.7,0.7c-1.3,0.5-2.6-0.3-2.8-1.9C8.4,54.1,8.3,52.1,8.3,50.1C8.2,50.1,8.3,50.1,8.3,50.1z M13.4,48.3
		c-0.2,0-0.3,0-0.5,0c-0.2,1.5-0.7,3-0.1,4.6c0.1,0.3,0.6,0.5,0.9,0.7c0.1-0.4,0.3-0.7,0.3-1.1c0-0.5-0.2-1.1-0.3-1.6
		C13.6,50,13.5,49.2,13.4,48.3z"/>
	<path class="st3" d="M70.4,37.6c-0.8,0.1-1.3,0.2-1.7,0.2c-1.9,0.2-3.8,0.3-5.3-1.2c-0.7-0.7-0.8-1.4,0.4-1.7
		c1.2-0.3,2.5-0.6,3.7-0.8c1.2-0.3,2.4-0.6,3.6-0.8c4.1-0.7,5.2,0.6,3.9,4.5c-0.5,1.6-1.3,3.1-1.7,4.7c-0.2,0.6-0.1,1.4,0.2,2
		c0.4,0.9,1.1,1.7,1.5,2.6c0.5,1.1,0,1.8-1.2,1.8c-0.6,0-1.2-0.2-1.7-0.5c-2.1-1.5-4.2-3-6.2-4.6c0,0-0.1-0.1-0.1-0.1
		c-0.9-0.8-1.9-1.9-0.9-2.9c0.5-0.6,2.1-0.8,3-0.5c1.4,0.6,1.8,0.4,2-1C69.7,38.8,70,38.4,70.4,37.6z"/>
	<path class="st3" d="M14.9,16.2c0,0.6-0.1,1.1,0,1.6c0.2,0.5,0.6,1,1,1.5c0.2,0.2,0.6,0.2,0.9,0.4c0.9,0.7,1.8,1.4,1.4,2.7
		c-0.4,1.2-1.4,1.5-2.6,1.3c-2.5-0.4-5-0.8-7.5-1.3c-1.5-0.3-3-0.8-4.5-1.2c-1.8-0.5-2.4-1.1-2.1-2.3c0.3-1.1,1.8-1.9,3.2-1.5
		C5.9,17.6,7,18,8.1,18.3c0.6,0.1,1.2,0.3,1.8,0.2c0.4-0.1,0.9-0.7,0.9-1.1c-0.1-1.4-0.3-2.8-0.6-4.1c-0.3-1.1-0.3-2.1,0.9-2.7
		c0.9-0.5,2.9,0.2,3.2,1.2c0.5,1.4,0.7,2.9,1,4.4C15.1,16.1,15,16.2,14.9,16.2z"/>
	<path class="st3" d="M147.3,46.5c-2.6-0.7-5.2-1.5-6.3-4.4c-0.4-1.1-0.8-2.2-1-3.3c-0.1-0.6,0.1-1.3,0.4-1.8c0.5-0.8,1.2-0.9,1.7,0
		c1.1,1.6,2.2,3.3,3.4,4.9c0.2,0.3,0.5,0.8,0.8,0.9c1.6,0.7,2.6-0.6,3.6-1.4c0.8-0.6,1.5-1.3,0.9-2.5c-0.3-0.6-0.7-1.3-0.6-1.9
		c0-0.6,0.5-1.2,1-1.6c0.1-0.1,0.9,0.3,1.3,0.6c0.5,0.3,1,0.8,1.6,1.1c1.3,0.8,1.7,1.9,1.2,3.3c-1.3,3.1-3.8,5-6.9,6.1
		C148.1,46.5,147.8,46.4,147.3,46.5z"/>
	<path class="st3" d="M87.3,55.1c0.5-2.9,1-5.8,1.6-8.6c0.1-0.5,0.8-1.1,1.3-1.1c0.4,0,1.2,0.5,1.3,1c0.4,1.2,0.5,2.5,0.9,3.7
		c0.2,0.6,0.6,1.4,1.1,1.7c1,0.7,2.3,1,3.3,1.6c0.5,0.3,0.7,1,1.1,1.5c-0.6,0.3-1.1,0.9-1.7,0.9c-1.2,0-2.5-0.2-3.7-0.4
		c-0.9-0.2-1,0.2-1.1,0.9c-0.1,0.9-0.3,1.8-0.5,2.7c-0.3,1.1-1.2,1.3-2.2,1.2c-1-0.1-1.1-0.9-1.1-1.6c0-1.1,0-2.2,0-3.3
		C87.5,55.1,87.4,55.1,87.3,55.1z"/>
	<path class="st3" d="M29.4,39.3c0-1.4,0.6-2.4,1.8-3.1c1.2-0.8,2.1-0.2,2.3,1.2c0.3,1.9,0.7,3.8,1.3,5.6c0.5,1.7,2,2.8,3.4,3.9
		c0.4,0.3,0.8,1.1,0.7,1.5c-0.2,0.5-0.9,1.2-1.3,1.2c-0.9,0-2-0.2-2.8-0.7C31.3,46.6,29.8,43.3,29.4,39.3z"/>
	<path class="st3" d="M126.8,43.7c-0.2-1.2-0.3-2.4-0.5-3.5c-0.1-1-0.1-2.1,1.1-2.5c1.2-0.4,2.1,0.4,2.5,1.7
		c0.9,2.4,0.6,4.8,0.1,7.2c-0.2,0.9-0.6,1.6-1.7,1.6c-1.1,0-1.4-0.9-1.6-1.8c-0.1-0.9-0.1-1.7-0.2-2.6
		C126.7,43.7,126.8,43.7,126.8,43.7z"/>
	<path class="st3" d="M137,41.3c-0.3,1.6-0.5,2.9-0.8,4c-0.1,0.4-0.6,1-0.9,1c-0.4,0-1.1-0.4-1.3-0.8c-1.1-2.7-1.4-5.6-1.1-8.5
		c0-0.4,0.7-0.9,1.2-1c0.4-0.1,1.2,0.3,1.3,0.6C136,38.2,136.5,39.9,137,41.3z"/>
	<path class="st3" d="M44.8,37.1c0.3-0.4,0.6-1.3,1.1-1.4c0.5-0.1,1.5,0.2,1.8,0.7c1.1,1.8,2,3.7,3,5.6c0.1,0.2,0.1,0.4,0.1,0.5
		c-0.2,0.7-0.5,1.4-0.7,2c-0.7-0.2-1.7-0.3-2-0.8c-1-1.3-1.8-2.8-2.6-4.2C45.2,38.9,45.1,38.2,44.8,37.1z"/>
	<path class="st3" d="M115.2,55c-0.8-0.2-1.3-0.3-1.7-0.5c-0.4-0.2-0.9-0.6-0.9-1c0-0.4,0.4-0.9,0.8-1.1c2.2-1.4,4.5-2.8,6.8-4.2
		c0.5-0.3,1.4-0.5,1.8-0.2c0.8,0.6,0.3,1.3-0.3,1.9c-1.3,1.4-2.6,2.7-4,4C116.9,54.4,115.9,54.6,115.2,55z"/>
	<path class="st3" d="M116.2,41.4c1.2,0,2.5-0.1,3.7,0.1c0.5,0.1,1,0.7,1.5,1.2c-0.4,0.5-0.7,1.1-1.2,1.4c-2,1.3-4.3,0.9-6.6,0.8
		c-0.6,0-1.4-0.5-1.8-1c-0.3-0.3-0.4-1.1-0.3-1.5c0.2-0.4,0.9-0.8,1.4-0.9C114,41.4,115.1,41.5,116.2,41.4
		C116.2,41.4,116.2,41.4,116.2,41.4z"/>
	<path class="st3" d="M13,36.1c-1.2-0.1-2.2-0.1-3.2-0.3c-1.2-0.2-1.9-1.1-2-2.2C7.7,33.1,8,32,8.4,31.9c0.9-0.3,1.9-0.1,2.9,0
		c0.9,0.1,1.8,0.5,2.7,0.6c1.2,0.1,2.3,0.7,2.3,1.7c0,1.2-0.8,1.6-1.9,1.8C13.9,36,13.4,36.1,13,36.1z"/>
	<path class="st3" d="M41.9,38.3c-0.2,1.3-0.3,2.7-0.7,3.9c-0.2,0.6-1,1.4-1.4,1.3c-0.6-0.1-1.5-0.8-1.6-1.4
		c-0.3-1.9-0.3-3.9-0.3-5.9c0-1.1,0.8-1.4,1.8-1.4c1.1,0,1.8,0.4,2,1.5c0.1,0.6,0,1.3,0,1.9C41.8,38.3,41.8,38.3,41.9,38.3z"/>
	<path class="st3" d="M13.7,28.8c-1.7-0.3-3.1-0.5-4.5-0.9c-1.4-0.4-2-2-1.3-3c0.3-0.4,1-0.9,1.4-0.8c1.8,0.3,3.6,0.6,5.4,1.1
		c0.6,0.2,1.3,0.9,1.5,1.5c0.3,1-0.7,1.4-1.4,1.7C14.4,28.6,13.9,28.7,13.7,28.8z"/>
	<path class="st3" d="M117.1,34.7c-1.7-0.9-3.3-1.5-4.7-2.5c-1.1-0.8-0.4-3,1-3.3c0.3-0.1,0.7,0.3,1,0.5c0.8,0.5,1.5,1,2.4,1.5
		c0.3,0.2,0.9,0.2,1.1,0.4c0.5,0.5,1.1,1.3,1,1.7C118.7,33.6,117.8,34,117.1,34.7z"/>
	<path class="st3" d="M26.1,41.5c-0.1,0.8-0.2,1.6-0.5,2.4c-0.2,0.4-0.7,1-1.1,1.1c-0.4,0.1-1.1-0.4-1.3-0.7
		c-0.5-1.3-1.1-2.7-1.2-4.2c-0.1-0.5,0.9-1.3,1.6-1.6c0.9-0.4,1.7,0.2,2.1,1.1C26,40.2,26,40.9,26.1,41.5z"/>
</g>
<g class="st0">
	<path class="st3" d="M165.1,30.3c0-2.1-0.1-4.2,0-6.4c0.1-2.4,1.3-3,3.4-1.8c0.5,0.3,1.3,0.2,1.9,0.3c0-0.8,0.2-1.6,0.1-2.3
		c-0.1-0.4-0.8-1-1.3-1.1c-1.9-0.1-3.7,0-5.6-0.1c-1.2,0-2.8-1.1-3.1-2.3c-0.1-0.4,0-1.1,0.3-1.3c0.7-0.4,1.5-0.7,2.3-0.7
		c1.6,0,3.2,0.4,4.8,0.5c0.6,0,1.7-0.5,1.7-0.9c0.1-0.6-0.4-1.5-0.9-1.9c-0.5-0.4-1.5-0.3-2.2-0.6c-0.8-0.3-1.6-0.7-2.1-1.3
		c-0.3-0.4-0.4-1.4-0.2-1.8c0.3-0.4,1.1-0.7,1.7-0.7c0.9-0.1,1.9,0.3,2.8,0.2c1.3-0.1,2.7-0.6,4-0.7c1.5-0.2,3-0.3,4.5-0.3
		c0.4,0,1.1,0.7,1.2,1.2c0.1,0.4-0.4,1.1-0.8,1.4c-0.8,0.5-1.7,0.8-2.6,1c-1.2,0.4-1.7,1.1-1.4,2.3c0.3,1.2,1,1.6,2.2,1.3
		c1.9-0.5,3.7-1,5.6-1.4c0.2,0,0.4-0.1,0.6-0.1c2-0.3,3.3,0.1,3.4,1.4c0.1,1.7-1.5,1.7-2.6,2.1c-1.7,0.5-3.5,0.7-5.2,1.1
		c-0.9,0.2-2,0.4-2.5,1c-0.5,0.6-0.3,1.7-0.2,2.5c0,0.4,0.7,0.7,1,1c0.1,0.1,0.2,0,0.3,0c3.6,0.3,5.3,1.8,5.7,5.4
		c0.2,2,0.3,4,0.4,6.1c0,1.2-0.3,2.1-1.5,2.6c-1.4,0.6-2.7,1.1-4.1,1.8c-0.4,0.2-0.8,0.6-0.8,1c-0.1,1.3,0,2.7,0,4
		c0,0.9,0.5,1.3,1.4,1.3c1,0,2.1-0.1,3.1,0c0.4,0,1.1,0.4,1.2,0.8c0.1,0.4-0.3,1-0.7,1.3c-0.5,0.4-1.2,0.5-1.8,0.7
		c-0.4,0.1-0.9,0.1-1.3,0.2c-0.9,0.3-2.2,0.6-2,1.8c0.2,1.2,1.4,0.8,2.2,0.7c1.1-0.1,2.1-0.4,3.2-0.5c0.7,0,1.5,0,2,0.3
		c1,0.6,0.9,1.4-0.1,1.9c-1.5,0.7-3,1.3-4.5,1.8c-2.7,0.8-5.4,1.9-8.4,1.5c-0.5-0.1-1.2,0-1.6-0.3c-0.5-0.4-1.3-1.1-1.2-1.5
		c0.1-0.5,0.9-1,1.5-1.3c0.5-0.3,1.2-0.1,1.7-0.3c0.9-0.3,1.5-0.9,1.4-2c-0.1-1-0.8-1.4-1.8-1.4c-0.7,0-1.4,0.1-2.1-0.1
		c-0.5-0.2-0.9-0.8-1.4-1.2c0.4-0.5,0.8-1.3,1.4-1.4c3.8-0.9,3.9-0.8,3.4-4.8c-0.2-1.7-1.8-1.6-2.8-1.6c-4.5,0.3-3.7-1-3.7-4
		C165.1,33.2,165.1,31.7,165.1,30.3C165.1,30.3,165.1,30.3,165.1,30.3z M172,28c-0.1-1.2-0.6-1.9-1.7-1.9c-1.2,0-1.1,0.9-1,1.7
		c0,0.3-0.1,0.7,0,1c0.1,0.4,0.3,0.9,0.6,1c0.4,0.1,1.1,0.1,1.3-0.2C171.6,29.3,171.7,28.6,172,28z M178.6,32.9
		c-0.9-0.5-1.4-1.1-1.7-1c-0.4,0.1-0.7,0.8-1.1,1.3c0.4,0.3,0.8,0.8,1.1,0.8C177.4,33.9,177.8,33.4,178.6,32.9z M170.5,33.2
		c-0.5,0.5-0.9,1-1.3,1.4c0.3,0.2,0.8,0.7,0.9,0.6c0.6-0.3,1-0.7,1.5-1.1C171.4,33.9,171.1,33.6,170.5,33.2z M177.8,27.3
		c-0.7-0.5-1.1-0.8-1.6-1c-0.1,0-0.7,0.7-0.6,0.8c0.3,0.4,0.7,0.8,1.1,1.1C176.8,28.3,177.2,27.8,177.8,27.3z"/>
	<path class="st3" d="M75.5,14.3c-0.2-1.9-0.3-3.7-0.5-5.6c-0.1-1.5,0.7-2.5,2.2-2.5c0.9,0,1.9,0.1,2.8,0c1.1,0,1.7-0.6,1.2-1.7
		c-0.5-1.1-0.6-2.1,0.4-2.8c0.5-0.4,1.5-0.5,2.1-0.3c1.1,0.4,1.9,1.3,1.8,2.6c0,0.5-0.2,1.1,0,1.6c0.2,0.4,0.7,0.7,1.1,1
		c0.3-0.4,0.7-0.7,0.8-1.1c0.1-0.5,0-1.1-0.1-1.6c0-1,0.1-1.9,1.2-2c1.1-0.1,2,0.5,2.3,1.6C91.1,3.9,91,4.4,91,4.8
		c0,1.4,0.4,2.4,2,3c2.2,0.9,3.7,2.7,3.6,5.3c-0.1,2.9-0.2,5.8-0.4,8.7c0,0.7-0.3,1.4-0.5,2c-0.7,1.8-1.8,2-3.5,1
		c-0.8-0.5-1.8-0.9-2.8-1c-3.2-0.5-6.5-0.7-9.8-1.3c-2.1-0.4-3.9-3-4.1-5.2c-0.1-1-0.1-2-0.2-3C75.4,14.3,75.5,14.3,75.5,14.3z
		 M92.8,18.3c-0.8-0.7-1.3-1.4-1.9-1.6c-0.3-0.1-0.9,0.8-1.3,1.3c0.6,0.5,1.1,1,1.7,1.3C91.5,19.4,92,18.8,92.8,18.3z M84.6,11.7
		c0.6,0.6,1,1,1.3,1.3c0.4-0.4,1.1-0.8,1-1.1c-0.2-0.7-0.7-1.2-1-1.9C85.5,10.6,85.2,11,84.6,11.7z M81.5,11.3
		c-0.5-0.7-0.9-1.6-1.3-1.6c-1.3,0.1-0.8,1.3-0.9,2.1c-0.1,0.3,0.4,0.8,0.7,1.2C80.5,12.6,80.9,12.1,81.5,11.3z M86.8,18.2
		c-0.7-0.6-1.1-1.1-1.5-1.3c-0.2-0.1-0.9,0.7-0.9,0.8c0.2,0.6,0.7,1.1,1.1,1.6C85.8,19,86.1,18.7,86.8,18.2z"/>
	<path class="st3" d="M14.9,60.7c0-0.6-0.1-1.3-0.1-1.9c0-1.3-0.4-2-1.7-2.5c-2-0.9-3.3-2.5-3.3-4.8c-0.1-4.5-0.1-9.1-0.1-13.6
		c0-0.2,0-0.5,0-0.7c0.6-2.7,0.7-2.8,2.8-2.5c2,0.3,4.1,0.3,6.1,0.8c1.4,0.4,2.1,1.7,2.3,3.3c0.3,2.6,1,5.2,1.3,7.8
		c0.2,1.7,0.2,3.4,0,5.1c-0.1,1.5,0.4,2.5,1.6,3.2c1.1,0.7,2.2,1.2,3.3,2c0.4,0.3,0.7,1,1,1.5c-0.6,0.4-1.2,1.1-1.8,1
		c-1.3-0.2-2.7-0.6-3.9-1.2c-3-1.4-2.9-1.4-3.4,1.8c-0.2,1.4-0.5,2.7-0.9,4c-0.2,0.5-0.9,1.1-1.3,1.1c-0.5,0-1.3-0.6-1.5-1.1
		c-0.4-1-0.4-2.1-0.5-3.2C14.8,60.7,14.8,60.7,14.9,60.7z M13.6,50.1c0,0.4-0.1,0.7-0.1,0.9c0.1,0.5,0,1.2,0.3,1.3
		c0.4,0.2,1,0,1.5-0.2c0.8-0.3,1.5-0.7,2.2-1.2c0.3-0.3,0.7-0.9,0.6-1.2c-0.1-0.4-0.7-0.8-1.2-1c-0.4-0.2-1,0.1-1.4,0
		C13.9,48.2,13.2,48.7,13.6,50.1z M17.1,43.4c-0.2-0.2-0.8-1.1-1.2-1c-0.9,0.1-2.3,0-2.3,1.5c0,1.1,0.8,1.6,1.9,1.7
		C16.5,45.6,17.1,45.1,17.1,43.4z M15.4,39c0-0.3,0-0.5,0-0.8c-0.7,0-1.5-0.1-2.2-0.1c0,0.3,0,0.5,0,0.8C13.9,38.9,14.7,39,15.4,39z
		"/>
	<path class="st3" d="M61.2,15c0,0.9,0.1,1.9,0,2.8c-0.4,2.1,0.5,3.5,2.1,4.6c2.1,1.5,2.3,4.2,0.7,6c-1.3,1.5-2.8,1.4-3.5-0.4
		c-1-2.8-3-3-5.4-2.9c-1.8,0.1-3.7,0-5.5,0c-0.9,0-1.3,0.2-1.6,1.1c-0.4,1.4-0.9,2.8-1.5,4.2c-0.5,1.1-1.4,1.4-2.6,1.1
		c-1.2-0.3-0.9-1.3-0.8-2.1c0.3-2.2,0.6-4.3,0.9-6.4c0.1-1.2,0.7-1.7,2-1.7c2,0,2.2-0.3,2.1-2.2c-0.2-3.2-0.4-6.4-0.6-9.6
		c-0.1-1.6,1.1-2.3,2.9-1.9c2.7,0.6,5.4,1.2,8.2,1.8c1.5,0.3,2.4,1.3,2.6,2.8C61.3,13.2,61.2,14.1,61.2,15C61.2,15,61.2,15,61.2,15z
		 M52.8,17.1c0.9-0.4,1.7-0.7,2.5-1.1c0.5-0.3,1.3-0.9,1.3-1.2c-0.2-1.4-1.5-1.4-2.6-1.4c-0.5,0-1,0.5-1.5,0.7c0,0,0,0.2,0,0.3
		C52.6,15.2,52.7,16.2,52.8,17.1z"/>
	<path class="st3" d="M16.7,31.5c-1.5-0.6-3.5-1.3-5.5-2.1c-0.5-0.2-1-0.5-1.5-0.7c-1.4-0.6-2.3-1.7-2.2-3.3
		c0.1-1.2-0.4-1.8-1.6-2.1C4.9,23,4.1,22.2,4.5,21c0.4-1.1,1.3-1.7,2.6-1.2c1.2,0.5,1.7-0.1,1.8-1.2c0.1-0.7,0.1-1.4,0.1-2.1
		c0-1.3,0.8-1.9,1.9-1.8c3.1,0.5,6.2,1.1,9.3,1.7c1.9,0.3,2.6,1.7,3.2,3.3c0.3,0.9,1.1,1.6,1.7,2.4c0.4,0.5,1,1.1,1,1.6
		c-0.1,0.5-0.8,1.1-1.3,1.3c-1.4,0.5-2.3,1.1-3.2,2.6C20.8,29.3,19.6,31.2,16.7,31.5z M12.5,25.2c-0.2,0.3-0.3,0.5-0.5,0.8
		c0.6,0.3,1.3,0.7,1.9,1c0.1-0.2,0.3-0.6,0.3-0.7C13.7,25.9,13.1,25.6,12.5,25.2z M14.6,20.9c-0.6-0.4-0.9-0.7-1.2-1
		c-0.2,0.2-0.5,0.5-0.5,0.7c0.1,0.4,0.4,0.7,0.7,0.9C13.6,21.7,14.1,21.3,14.6,20.9z"/>
	<path class="st3" d="M203.4,22.9c0.4,0,0.8,0,1.2,0c3.1,0.1,4.2,1.2,3.9,4.2c-0.3,3.1-0.8,6.2-1.2,9.4c-0.2,1.7-1.4,2.4-2.8,2.9
		c-1.3,0.4-2.1-0.5-2.7-1.4c-0.8-1.1-1.4-2.2-2-3.4c-0.2-0.4-0.1-1.2,0.2-1.5c0.3-0.3,1-0.4,1.4-0.2c1.2,0.5,1.6,0.2,1.7-1
		c0.1-1.2,0.6-2.4,0.7-3.6c0.1-1.2-0.6-1.8-1.9-1.5c-3,0.5-3.3,1.2-4.1,4.1c-1.1,3.7-2.1,7.5-5,10.4c-0.7,0.7-1.6,1.2-2.5,1.6
		c-0.3,0.1-1-0.1-1.3-0.4c-0.2-0.3-0.2-1,0-1.3c3-3.7,4.1-8.2,5.3-12.7c0.1-0.5-0.3-1.2-0.6-1.7c-0.2-0.3-0.7-0.3-0.8-0.6
		c-0.3-0.5-0.7-1.1-0.6-1.5c0.1-0.4,0.8-0.8,1.3-0.9c2.2-0.4,2.5-0.5,3.1-2.7c0.2-1,0.4-1.9,0.6-2.9c0.4-1.7,2.9-2.7,4.2-1.6
		c0.4,0.3,0.7,1,0.6,1.4c-0.2,1.2-0.5,2.3-1,3.4c-0.5,1.2-0.5,1.4,0.9,1.4C202.4,22.9,202.9,22.9,203.4,22.9
		C203.4,22.9,203.4,22.9,203.4,22.9z"/>
	<path class="st3" d="M59.9,50.8c-0.3,1.3-0.8,3.6-1.5,5.8c-0.3,1.1-1.2,1.6-2.3,1.3c-1.2-0.3-1.2-1.1-1-2.2
		c0.3-1.8,0.5-3.7,0.6-5.6c0-0.3-0.5-0.9-0.9-0.9c-0.8-0.1-1.9-0.2-2.2,1c-0.3,1.2-0.3,2.4-0.7,3.5c-0.3,0.8-0.7,1.6-1.3,2.2
		c-0.3,0.3-1.2,0.4-1.5,0.2c-0.4-0.3-0.9-1-0.8-1.5c1.3-6.3,1.6-12.7,1.3-19.1c-0.1-2.4,1-3.4,2.9-3c0.3,0.1,0.6,0.2,0.8,0.3
		c1.3,1.1,2.5,2.2,3.8,3.2c1.5,1.2,1.8,2.9,2,4.6C59.6,43.7,59.7,46.7,59.9,50.8z M55.7,44.7c-0.6-0.4-0.9-0.9-1.2-0.9
		c-0.3,0-0.8,0.6-0.8,1c0,0.3,0.5,0.8,0.8,0.9C54.9,45.7,55.2,45.1,55.7,44.7z"/>
	<path class="st3" d="M9.4,6.2c-1.2-1-1.4-2-0.2-2.9c0.9-0.7,3.7-0.6,4,0.4c1,3.2,3.7,2.8,6,2.9c2.4,0.1,4.8-0.2,6.9,1.1
		c0.8,0.5,1.8,1.3,2,2.1c0.3,1.7,0.1,3.4,0.1,5.1c-0.1,1-0.9,1.2-1.7,1.2c-0.9,0-1.5-0.2-1.7-1.3c-0.1-0.6-0.4-1.1-0.5-1.7
		c-0.7-2.7-0.7-2.7-3.5-2.7c-2.6,0.1-5.2,0.3-7.8,0.3c-0.9,0-1.7-0.4-2.6-0.7C10,9.9,9.6,9.7,9.2,9.6C6.7,9,6.3,9.4,6.1,12
		c-0.1,1.5-0.5,3.1-1,4.6c-0.4,1.2-1.4,1.6-2.6,1.2c-1.2-0.4-1-1.3-0.9-2.3c0.2-2.3,0.3-4.6,0.1-6.9C1.6,5.9,2.7,5,5,5.7
		C6,6,7,6.3,8,6.6c0.4,0.1,0.8,0,1.2,0C9.3,6.4,9.4,6.3,9.4,6.2z"/>
	<path class="st3" d="M130.3,28.5c0.7,0,1.5,0.1,2.2,0c0.4-0.1,0.8-0.5,1.2-0.8c-0.4-0.3-0.7-0.8-1.1-1c-1.4-0.6-2.8-1.2-4.2-1.8
		c-0.7-0.3-1.5-0.9-1-1.8c0.5-0.9,1.2-2,2.5-1.6c3.1,1,6.3,1.2,9.5,1.1c0.9,0,1.9,0.2,2.7,0.5c1.4,0.5,1.6,2,0.3,2.8
		c-0.8,0.5-1.8,0.5-2.7,0.9c-0.6,0.2-1.1,0.5-1.6,0.8c0.6,0.3,1.2,0.8,1.7,0.9c1.4,0,2.9-0.3,4.3-0.2c0.7,0.1,1.4,0.7,2.2,1.1
		c-0.4,0.7-0.7,1.7-1.3,1.9c-1.6,0.5-3.2,0.8-4.9,0.9c-1.8,0.2-1.9,0.2-2,2c-0.1,1.1-0.1,2.2-0.4,3.2c-0.2,0.6-1.1,1-1.7,1.5
		c-0.5-0.6-1.1-1-1.3-1.7c-0.3-1-0.2-2.1-0.6-3c-0.2-0.5-0.8-1-1.4-1.2c-1.7-0.5-3.4-0.8-5.1-1.3c-0.9-0.3-1.5-1.1-1.1-1.9
		c0.3-0.6,1-1,1.7-1.3C129,28.2,129.7,28.4,130.3,28.5C130.3,28.4,130.3,28.4,130.3,28.5z"/>
	<path class="st3" d="M131.5,48.8c-0.3-1.8-0.7-3.6-0.7-5.4c0-1.1,0.3-2.3,0.8-3.2c0.3-0.5,1.4-0.7,2.1-0.8c1.1-0.1,2.2,0.2,3.3,0.1
		c1.6,0,3.2-0.2,4.8,0.6c1.2,0.7,2,1.6,2.2,3c0.2,1.4,0.3,2.7,0.5,4.1c0.1,0.8,0.4,1.6,0.7,2.4c0.5,1.3,0,2.5-1.3,2.8
		c-2,0.4-4,0.7-6.1,1c-1,0.2-2,0.3-3,0.7c-2.2,0.7-3.1,0.2-3.3-2.1c-0.1-1.1-0.1-2.2-0.2-3.3C131.4,48.8,131.5,48.8,131.5,48.8z
		 M137.8,49.7c2.3,0,2.3,0,1.8-2.2c-0.1-0.6-0.2-1.2-0.3-1.8c-0.2-1.5-1.1-2-3.2-1.8c-1.6,0.2-0.8,1.2-0.8,2c0,0.5,0.2,1.1,0.2,1.6
		C135.8,49.7,135.8,49.7,137.8,49.7z"/>
	<path class="st3" d="M82.8,59.1c0.2-1.1,0.4-2.3,0.6-3.4c0.3-1.2,1.1-2.2,2.2-2.2c0.7,0,1.4,0.8,2.1,1.4c0.2,0.2,0.3,0.8,0.2,1.1
		c-0.8,2.3-1.5,4.6-2.4,6.9c-0.7,1.7-0.6,1.9,1.2,2.1c1.8,0.3,3.7,0.6,5.5,1c0.4,0.1,0.9,0.5,0.9,0.8c0,0.5-0.3,1.1-0.6,1.5
		c-0.3,0.3-0.9,0.4-1.4,0.4c-4.2-0.2-8.4-0.3-12.5-0.6c-0.9-0.1-2.4-0.3-2.1-1.5c0.2-0.9,1.2-2,2.1-2.3c1.6-0.7,1.7-0.5,0.7-2
		c-1.5-2.2-2-4.6-2-7.1c0-0.5,0.7-1.3,1.2-1.3c0.8,0,1.9,0.2,2.3,0.7c0.6,0.9,0.8,2.2,1.2,3.3c0.1,0.4,0.2,0.9,0.4,1.3
		C82.4,59.1,82.6,59.1,82.8,59.1z"/>
	<path class="st3" d="M75,43.8c0.2-2,0.3-3.7,0.5-5.5c0.2-1.4,1-1.8,2.4-1.5c1,0.3,2,0.5,3,0.5c2.6,0,4.6,1.7,4.8,4.3
		c0.1,0.9-0.1,1.9,0.1,2.8c0.3,1.5-0.3,2.2-1.6,2.7c-1.7,0.6-3.4,1.3-5.1,1.9c-2,0.7-3.3,0-3.8-2C75.1,46,75.1,44.8,75,43.8z
		 M79.5,44.6c0.9-0.4,1.8-0.5,2.2-1c0.3-0.4,0-1.4-0.4-1.9c-0.4-0.7-1.2-1-1.8-0.5C79.5,42.3,79.5,43.2,79.5,44.6z"/>
	<path class="st3" d="M79.2,32.6c-1.3,0-2.6,0-3.8,0c-1.6-0.1-2.7-1-2.6-2.2c0.2-1.5,1.5-2.3,3.1-2.1c2.3,0.3,4.7,0.4,7,0.6
		c1.5,0.1,2.4,0.7,2.3,1.9c-0.1,1.3-1,1.9-2.2,1.9C81.7,32.6,80.4,32.6,79.2,32.6C79.2,32.6,79.2,32.6,79.2,32.6z"/>
	<path class="st3" d="M113.6,36.4c-2.7-0.4-7.6-3.6-8.3-5.9c-0.2-0.6,0.2-1.5,0.6-2c0.2-0.3,1.2-0.2,1.6,0.1
		c2.4,1.3,4.7,2.6,6.9,4.1c0.6,0.4,1.3,1.5,1.1,1.9C115.3,35.3,114.3,35.8,113.6,36.4z"/>
	<path class="st3" d="M112.7,43.3c-2.1,0.4-3.9,0.2-5.4-1c-0.5-0.4-0.9-1.1-1-1.8c0-0.2,0.9-0.8,1.5-0.9c2.1-0.3,4.3-0.5,6.5-0.7
		c0.5,0,1.3,0.1,1.6,0.4c0.6,0.7,1.5,1.6,1.4,2.3c-0.1,1.2-1.3,1.6-2.5,1.6C114,43.3,113.2,43.3,112.7,43.3z"/>
	<path class="st3" d="M111.1,50.6c-0.5-0.2-1.6-0.5-2.4-1.1c-0.3-0.2-0.4-1.1-0.2-1.5c0.2-0.4,0.8-0.8,1.3-0.8
		c2.8-0.3,5.3-1.4,7.6-3c0.4-0.3,1.3-0.2,1.7,0.1c0.3,0.3,0.5,1.2,0.3,1.7C118.4,48.2,114.4,50.6,111.1,50.6z"/>
</g>
<g>
	<path class="st2" d="M90.5,55.2c1.5,0.8,2.9,1.4,4.1,2.1c1.5,0.9,1.7,2.8,0.2,3.6c-0.7,0.4-1.8,0.2-2.7,0.2c-0.4,0-0.8-0.3-1.1-0.5
		c-2.4-1.4-2.2-1.3-2.8,1.3c-0.5,2.2-1.3,4.4-2.3,6.4c-0.3,0.7-1.6,1.2-2.5,1.2c-0.4,0-1.3-1.4-1.2-2.1c0.3-3.2,0.8-6.4,1.3-9.6
		c0.3-2,0-3-2-3.1c-2.3-0.1-3.1-1.2-3.5-3.2c-1.3-6.2-3.9-12.2-3.6-18.7c0-0.6-0.1-1.3,0.2-1.8c0.4-0.8,0.8-1.6,1.5-2
		c0.3-0.2,1.1,0.8,1.8,1.1c0.8,0.4,1.6,0.9,2.3,0.9c1.4,0,2.8-0.3,4.2-0.6c2.9-0.5,4.5,0.4,5.5,3.2c0.3,0.8,0.4,1.6,0.6,2.4
		c1.1,4.2,2.1,8.4,3.2,12.6c0.5,1.9-0.5,4.5-2.2,5.5C91.3,54.5,91.1,54.8,90.5,55.2z M82.5,35.6c-0.3,0-0.4,0-0.5,0
		c-0.7,0.2-1.5,0.4-2.2,0.6C80,37,80,38,80.5,38.5c0.4,0.3,1.4-0.1,2.2-0.2c0.3-0.1,0.6-0.1,0.8-0.3c0.6-0.4,1.2-0.8,1.8-1.3
		c-0.7-0.4-1.4-0.8-2.1-1.1C83,35.4,82.6,35.6,82.5,35.6z M86.3,41c-0.3,0.2-0.5,0.4-0.8,0.6c-1.3,0.5-2.6,1-3.9,1.6
		c-0.3,0.1-0.6,1-0.4,1.1c0.3,0.4,0.9,0.7,1.3,0.7c1.2-0.2,2.5-0.4,3.6-0.9c0.4-0.2,0.8-1,0.8-1.5C86.9,42.1,86.5,41.5,86.3,41z
		 M85.2,50.5c0,0,0,0.1,0,0.1c0.9-0.2,1.8-0.2,2.6-0.6c0.4-0.2,0.5-0.9,0.7-1.4c-0.5-0.1-0.9-0.3-1.4-0.3c-1,0.1-2,0.3-2.9,0.5
		c-0.5,0.1-0.9,0.4-1.3,0.6c0.4,0.3,0.8,0.7,1.2,1C84.5,50.6,84.9,50.5,85.2,50.5z"/>
	<path class="st2" d="M189,37.1c-2.3,0-4.7,0-7,0c-2.1,0-3.6-1-5-2.3c-0.6-0.5-1.5-0.7-2.2-1.1c-0.8-0.4-2-0.7-2.4-1.3
		c-0.3-0.5,0.4-1.7,0.9-2.4c2-2.4,2.9-5.3,3.5-8.3c0.2-1.2,0.2-2.4,0.5-3.5c0.2-0.8,0.8-1.7,1.5-2.1c0.8-0.4,3.1,1.4,3.2,2.3
		c0.1,0.6,0,1.4,0.2,1.9c0.2,0.5,0.8,1.2,1.2,1.2c0.9,0.1,1.8-0.3,1.6-1.6c-0.3-1.6-0.6-3.2-0.9-4.7c-0.2-0.9-0.7-1.9,0.5-2.5
		c1.2-0.6,3.6-0.3,4,0.7c0.5,1.4,1,2.8,1.1,4.3c0.2,2.1,0.3,2.3,2.3,1.8c2.2-0.6,4.4-0.1,6.1,1.1c0.8,0.5,1.4,1.9,1.3,2.8
		c-0.1,1.4-1.4,1.5-2.6,1.5c-1.5-0.1-3-0.2-4.5-0.2c-1.4,0-2.3,0.7-2.4,2.1c-0.1,1.5-0.2,3.1-0.2,4.6c0,1.2,1,1.2,1.8,1.2
		c4.3,0,8.6,0,12.9,0c0.6,0,1.3-0.2,1.8,0.1c0.8,0.4,1.4,1,2.1,1.5c-0.7,0.6-1.3,1.7-2,1.8c-5.8,0.6-11.6,1-17.4,1.5
		C189,37.4,189,37.3,189,37.1z M185.3,29.6c0-3.3-0.6-4.1-3.2-3.5c-0.8,0.2-1.7,1.2-2.1,2c-1.5,2.7-1.4,2.8,1.4,3.9
		C184.2,33.3,185.3,32.7,185.3,29.6z"/>
	<path class="st2" d="M92.8,20.4c-0.6,0.9-0.9,1.5-1.2,2c-0.4,0.6-0.7,1.4-1.2,1.7c-0.7,0.4-1.6,0.6-2.4,0.5c-0.3,0-0.6-1.3-0.5-1.9
		c0.8-3.3,1.7-6.6,2.5-9.9c0.2-0.7,0.3-1.5,0.2-2.3c0-0.4-0.4-0.9-0.8-1c-0.3-0.1-1,0.1-1.2,0.4c-0.7,1-1.4,2.1-2,3.2
		c-1.2,2-2.6,2.9-3.7,2.3c-1.3-0.7-1.5-2.2-0.7-4.3c1.2-3,2.4-5.9,3.7-8.9c0.6-1.4,1.8-1.9,3.2-1.6c1.5,0.3,1.8,1.6,1.9,2.9
		c0.1,2.4,0.1,2.4,2.4,2.4c2-0.1,3.9-0.2,5.9-0.3c0.6,0,1.2-0.1,1.8,0c2.5,0.1,4.3,1.2,4.8,2.8c0.8,2.6-0.1,6.1-2.1,7.3
		c-0.6,0.4-1.7,0.4-2.3,0.2c-0.4-0.1-0.6-1.1-0.8-1.8c-0.2-0.6,0-1.4-0.2-1.9c-0.3-0.6-0.8-1.5-1.2-1.6c-0.7-0.1-1.9,0.2-2.3,0.8
		c-0.8,1.3-1.2,2.8-1.6,4.3c-0.1,0.4,0.2,1.2,0.6,1.6c1.1,1.1,2.4,2.1,3.6,3.1c0.7,0.5,1.4,0.9,2.1,1.3c0.9,0.6,1.8,1.5,1,2.5
		c-0.5,0.6-1.9,0.8-2.6,0.5C97.1,23.7,94.3,23.5,92.8,20.4z"/>
	<path class="st2" d="M149.7,12.2c1.9,0.4,3.9,0.4,5.7,1.1c2.6,1,3.9,5.4,2.6,8c-0.7,1.3-1.2,3-3.1,2.8c-2-0.2-2-2.1-2.4-3.6
		c-0.1-0.5,0-1.1-0.2-1.6c-0.3-0.6-0.9-1.4-1.4-1.5c-4.7-0.2-9.4-0.3-14.1-0.3c-0.4,0-1.1,0.8-1.2,1.4c-0.4,1.7-0.6,3.5-0.8,5.3
		c-0.2,1.6-1.1,2.3-2.7,2.2c-1.6-0.1-2.4-1.1-2.4-2.6c-0.1-3.6-0.1-7.1,0-10.7c0.1-2.5,1.1-2.9,3.4-1.8c1.5,0.8,3.2,1.2,4.8,1.6
		c1.1,0.2,1.4-0.3,1-1.5c-0.7-1.8-1.1-3.6-1.5-5.5c-0.1-0.4,0.1-1.1,0.5-1.4c1.3-1.3,4.9-0.7,5.5,1.1c0.6,1.9,0.9,3.8,1,5.8
		c0.1,1,0.3,1.4,1.2,1.5c1.4,0,2.9,0,4.3,0C149.7,12.4,149.7,12.3,149.7,12.2z"/>
	<path class="st2" d="M138.9,67.5c-6.7,0-13.4,0.1-20,0c-1.2,0-2.5-0.5-3.7-1c-1-0.4-1.9-1.4-1.2-2.4c0.5-0.9,1.7-1.5,2.6-2.1
		c0.2-0.2,0.7,0,1,0.1c3.6,0.3,7.2,0.8,10.8,0.8c10.1,0.1,20.3,0,30.4,0c2.3,0,3.5,0.8,3.5,2.1c0,1.8-1.3,2.5-3.7,2.4
		c-6.6-0.1-13.1,0-19.7,0C138.9,67.4,138.9,67.4,138.9,67.5z"/>
	<path class="st2" d="M150.1,52.3c-0.3,1.7-0.5,3.9-1,6.1c-0.2,1.2-1,1.9-2.4,2.3c-3.2,0.9-6.3,1.2-9.3-0.5
		c-1.1-0.6-1.5-1.2-1.3-2.5c0.2-2.4,0.1-4.8,0-7.2c-0.1-2.3-0.4-4.7-0.3-7c0-1.7,2-2.6,3.6-1.9c1.7,0.7,3.3,1.5,5,2.1
		C148.1,45,150.2,47.9,150.1,52.3z M145.4,55.5c-0.8-0.6-1.3-1.2-1.5-1.1c-0.8,0.4-1.6,1-2.3,1.5c0.4,0.4,1,1.2,1.3,1.2
		C143.7,56.8,144.4,56.2,145.4,55.5z M144.5,49c-1-0.5-1.5-0.9-2-0.9c-0.3,0-0.7,0.4-1,0.7c0.4,0.3,0.9,0.7,1.3,0.9
		C143.2,49.7,143.6,49.3,144.5,49z"/>
	<path class="st2" d="M187.5,47.1c0.3,0.1,0.9,0.2,1.4,0.4c1.4,0.6,2.7,1.2,4,1.9c2.1,1,3.4,2.6,3.6,4.9c0.1,2.1-0.1,4.3,1.8,5.9
		c0.3,0.3,0.2,2-0.3,2.3c-1.1,0.7-2.4,1.2-3.7,1.4c-2.3,0.3-4.6,0-6.3,2.2c-0.9,1.1-2.5,0.6-3-0.8c-0.4-1.1-0.6-2.2-0.6-3.3
		c0-2.3,0.3-4.6,0.4-6.9c0.1-1.3,0-2.6-0.2-3.8C184.5,49.4,185.7,47.1,187.5,47.1z M190,53.4c0,2.2,0,3.9,0,5.7
		c0,0.2,0.6,0.6,0.9,0.5c0.3,0,0.7-0.4,0.9-0.7C192.4,57.9,191.4,54.6,190,53.4z"/>
	<path class="st2" d="M142.5,31.5c2.2,0,4.4,0,6.6,0c0.5,0,1.1-0.1,1.4,0.1c0.9,0.7,1.6,1.6,2.4,2.4c-0.8,0.7-1.6,1.8-2.4,1.9
		c-3.9,0.5-7.8,1-11.7,1c-1.5,0-3.2-0.9-4.6-1.7c-0.6-0.3-0.9-1.7-0.8-2.4c0.1-0.6,1.2-1.3,1.9-1.3
		C137.7,31.4,140.1,31.5,142.5,31.5C142.5,31.5,142.5,31.5,142.5,31.5z"/>
	<path class="st2" d="M70.9,11.8c-2-0.6-4.1-1.1-6.1-1.7c-1.4-0.4-1.7-1.5-1.5-2.8c0.2-1.4,1.3-1.5,2.4-1.5c0.2,0,0.4,0,0.5,0
		c2.5,0.4,5,0.7,7.4,1.2c1.3,0.2,2.1,1.1,2,2.5c-0.1,1.5-1.1,2-2.5,2c-0.8,0-1.5,0-2.3,0C71,11.6,70.9,11.7,70.9,11.8z"/>
	<path class="st2" d="M69.3,19.6c-1.2-0.5-2.4-0.8-3.4-1.5c-0.5-0.4-0.8-1.5-0.6-2.2c0.1-0.5,1.1-0.9,1.8-1.1
		c1.6-0.4,3.2-0.7,4.8-0.9c0.7-0.1,1.5-0.2,2.1,0c0.6,0.2,1.4,0.7,1.5,1.2c0.2,0.6-0.1,1.6-0.5,2C73.4,18.3,71.6,19.4,69.3,19.6z"/>
	<path class="st2" d="M48.1,29.3c-0.2,6.9-0.3,13.7-0.5,20.6c-0.1,1.7-0.1,3.5-0.4,5.2c-0.1,1.1-0.4,2.2-0.8,3.1
		c-1,2.4-4.2,2.8-5.8,0.7c-0.6-0.8-1.1-0.9-2-0.9c-3.8,0.1-7.7,0.1-11.5-0.1c-1.3,0-2.7-0.4-4-0.9c-1.2-0.4-1.8-1.4-1.6-2.7
		c0.2-1.1,0.1-1.7-1.2-1.7c-0.4,0-1.2-0.9-1.2-1.3c0.1-3.6,0.3-7.3,0.5-10.9c0.1-2.5,0.4-5.1,0.5-7.6c0.2-5.1,0.4-10.2,0.6-15.3
		c0.1-1.8,0.7-2.3,2.4-2.7c4.2-1.1,8.2-0.3,12.3,0.4c1.9,0.3,3.9,0.3,5.8,0.3c1.2,0,2.4,0,3.6,0c2.1,0,3.1,1,3.2,3.1
		C48.1,22.2,48,25.7,48.1,29.3C48,29.3,48.1,29.3,48.1,29.3z M22.1,52.4c2,0.3,3.9,0.7,5.7,0.9c1.7,0.2,3.4,0.3,5.1,0.5
		c1.7,0.2,3.3,0.6,5,0.7c1.1,0.1,2,0.3,2.7,1.2c0.4,0.6,1.6,1.3,1.9,1.1c0.7-0.4,1-1.4,1.4-2.1c0.2-0.3,0.1-0.7,0.1-1.1
		c0.1-1.8,0.2-3.7,0.2-5.5c0-8.7,0-17.3,0-26c0-2.2-0.7-2.9-2.8-2.9C36,19.2,31,17.9,25.8,17.3c-1.5-0.2-1.7,0-1.7,1.4
		c0,2.5,0.1,4.9-0.1,7.4C23.5,34.9,22.8,43.6,22.1,52.4z"/>
	<path class="st2" d="M10.1,36.6c0-3.9,0-7.8,0-11.8c0-0.5-0.3-1-0.4-1.5c-0.4,0.2-0.9,0.5-1.3,0.7c-1.4,0.9-2.7,1.8-4.2,2.6
		c-0.9,0.5-1.7,0.2-2.4-0.6c-0.5-0.6-0.5-1.1,0.3-1.6c0.8-0.5,1.7-1.1,2.3-1.8c2.4-2.8,4.8-5.6,7.1-8.4c0.5-0.6,3.4-0.9,4-0.3
		c0.2,0.2,0.3,0.7,0.2,1c-0.1,0.4-0.2,0.8-0.5,1c-2.2,1.8-1.8,4.2-1.5,6.6c0.2,1.7,0,3.4-0.1,5.1c-0.1,2.8-0.3,5.7-0.4,8.5
		c0,0.4,0.1,0.8,0.1,1.1c0.2,1.4-0.3,2.3-1.4,2.5C10.8,40,9.8,39,9.7,37.7c0-0.4,0-0.8,0-1.1C9.8,36.6,10,36.6,10.1,36.6z"/>
	<path class="st2" d="M28.7,39.6c0.1-1.3,0-2.6,0.3-3.8c0.2-1,1-1.8,1.6-2.7c0.2-0.4,0.6-0.8,0.6-1.1c-0.1-1.4-0.3-2.7-0.4-4.1
		c-0.1-1.3-0.7-1.8-2-1.8c-0.6,0-1.3-0.3-1.9-0.5c0.6-0.4,1.2-1.1,1.9-1.2c2.4-0.5,2.4-0.5,2.9-2.9c0.2-1.1,1.4-2.2,2.2-2.1
		c0.8,0.1,1.6,1.5,1.6,2.6c-0.1,2.2,0,2.3,2.1,2.3c0.9,0,1.9-0.1,2.8,0c0.6,0.1,1.4,0.5,1.6,1c0.3,0.9-0.4,1.6-1.3,1.6
		c-1.4,0.1-2.8,0.2-4.1,0c-1.4-0.2-1.8,0.3-1.8,1.6c0,1.3-0.3,2.6-0.3,4c0,0.5,0.4,1.3,0.8,1.5c2.6,1.4,3.7,3.8,3.2,6.7
		c-0.1,0.8-0.1,1.6,0,2.3c0.2,1.4-0.3,2.3-1.8,2.5c-0.4,0.1-0.9,0-1.2,0.3c-2,1.4-3.9,0.7-5.7-0.4c-0.4-0.2-0.8-0.9-0.8-1.3
		c-0.1-1.5,0-3,0-4.5C28.8,39.6,28.8,39.6,28.7,39.6z M32.6,40.2c0,0-0.2,0.4,0,0.8c0.2,0.4,0.5,0.8,0.8,1.2c0.4-0.4,0.9-0.7,1-1.2
		c0.2-0.5,0.1-1.2-0.1-1.7c-0.3-0.6-0.8-1-1.3-1.5c-0.1,0.5-0.3,1.1-0.4,1.6C32.6,39.5,32.6,39.6,32.6,40.2z"/>
</g>
</svg>
