<svg id="圖層_1" data-name="圖層 1" xmlns="http://www.w3.org/2000/svg" xmlns:xlink="http://www.w3.org/1999/xlink" viewBox="0 0 200 90"><defs><style>.cls-1{fill:url(#linear-gradient);}.cls-2{fill:url(#linear-gradient-2);}.cls-3{fill:url(#linear-gradient-3);}.cls-4{fill:url(#linear-gradient-4);}.cls-5{fill:url(#linear-gradient-5);}.cls-6{fill:url(#linear-gradient-6);}.cls-7{fill:url(#linear-gradient-7);}.cls-8{fill:url(#linear-gradient-8);}.cls-9{fill:url(#linear-gradient-9);}.cls-10{fill:url(#linear-gradient-10);}.cls-11{fill:url(#linear-gradient-11);}.cls-12{fill:url(#linear-gradient-12);}.cls-13{fill:url(#linear-gradient-13);}.cls-14{fill:url(#linear-gradient-14);}.cls-15{fill:url(#linear-gradient-15);}.cls-16{fill:url(#linear-gradient-16);}.cls-17{fill:url(#linear-gradient-17);}.cls-18{fill:url(#linear-gradient-18);}.cls-19{fill:url(#linear-gradient-19);}.cls-20{fill:url(#linear-gradient-20);}.cls-21{fill:url(#linear-gradient-21);}.cls-22{fill:url(#linear-gradient-22);}.cls-23{fill:url(#linear-gradient-23);}.cls-24{fill:url(#linear-gradient-24);}.cls-25{fill:url(#linear-gradient-25);}.cls-26{fill:url(#linear-gradient-26);}.cls-27{fill:url(#linear-gradient-27);}.cls-28{fill:url(#linear-gradient-28);}.cls-29{fill:url(#linear-gradient-29);}.cls-30{fill:url(#linear-gradient-30);}.cls-31{fill:url(#linear-gradient-31);}</style><linearGradient id="linear-gradient" x1="121.07" y1="25.25" x2="133.54" y2="25.25" gradientUnits="userSpaceOnUse"><stop offset="0" stop-color="#ffc369"/><stop offset="0.11" stop-color="#ffcc78"/><stop offset="0.38" stop-color="#ffdd96"/><stop offset="0.53" stop-color="#ffe4a1"/><stop offset="0.73" stop-color="#f6d189"/><stop offset="1" stop-color="#e8b160"/></linearGradient><linearGradient id="linear-gradient-2" x1="121.59" y1="33.32" x2="128.33" y2="33.32" xlink:href="#linear-gradient"/><linearGradient id="linear-gradient-3" x1="121.38" y1="36.17" x2="128.11" y2="36.17" xlink:href="#linear-gradient"/><linearGradient id="linear-gradient-4" x1="130.8" y1="33.12" x2="134.21" y2="33.12" xlink:href="#linear-gradient"/><linearGradient id="linear-gradient-5" x1="134.08" y1="26.72" x2="139.89" y2="26.72" xlink:href="#linear-gradient"/><linearGradient id="linear-gradient-6" x1="133.46" y1="19.03" x2="138.34" y2="19.03" xlink:href="#linear-gradient"/><linearGradient id="linear-gradient-7" x1="116.02" y1="29.67" x2="121.02" y2="29.67" xlink:href="#linear-gradient"/><linearGradient id="linear-gradient-8" x1="114.62" y1="21.92" x2="120.44" y2="21.92" xlink:href="#linear-gradient"/><linearGradient id="linear-gradient-9" x1="119.84" y1="14.99" x2="123.68" y2="14.99" xlink:href="#linear-gradient"/><linearGradient id="linear-gradient-10" x1="128.55" y1="14.1" x2="130.58" y2="14.1" xlink:href="#linear-gradient"/><linearGradient id="linear-gradient-11" x1="55.7" y1="23.24" x2="68.09" y2="23.24" xlink:href="#linear-gradient"/><linearGradient id="linear-gradient-12" x1="7.81" y1="31.49" x2="23.12" y2="31.49" xlink:href="#linear-gradient"/><linearGradient id="linear-gradient-13" x1="72.28" y1="28.28" x2="80.48" y2="28.28" xlink:href="#linear-gradient"/><linearGradient id="linear-gradient-14" x1="40.39" y1="21.36" x2="49.39" y2="21.36" xlink:href="#linear-gradient"/><linearGradient id="linear-gradient-15" x1="36.71" y1="35.38" x2="45.91" y2="35.38" xlink:href="#linear-gradient"/><linearGradient id="linear-gradient-16" x1="89.02" y1="30.2" x2="103.58" y2="30.2" xlink:href="#linear-gradient"/><linearGradient id="linear-gradient-17" x1="87.51" y1="12.07" x2="103.7" y2="12.07" xlink:href="#linear-gradient"/><linearGradient id="linear-gradient-18" x1="91.71" y1="20.22" x2="98.8" y2="20.22" xlink:href="#linear-gradient"/><linearGradient id="linear-gradient-19" x1="10.33" y1="15" x2="20.25" y2="15" xlink:href="#linear-gradient"/><linearGradient id="linear-gradient-20" x1="27.36" y1="21.08" x2="35.23" y2="21.08" xlink:href="#linear-gradient"/><linearGradient id="linear-gradient-21" x1="60.83" y1="35.18" x2="68.78" y2="35.18" xlink:href="#linear-gradient"/><linearGradient id="linear-gradient-22" x1="95.94" y1="35.97" x2="104.33" y2="35.97" xlink:href="#linear-gradient"/><linearGradient id="linear-gradient-23" x1="92.98" y1="35.31" x2="95.56" y2="35.31" xlink:href="#linear-gradient"/><linearGradient id="linear-gradient-24" x1="58.16" y1="34.35" x2="60.47" y2="34.35" xlink:href="#linear-gradient"/><linearGradient id="linear-gradient-25" x1="62.77" y1="70.3" x2="84.4" y2="70.3" xlink:href="#linear-gradient"/><linearGradient id="linear-gradient-26" x1="26.66" y1="70.08" x2="40.15" y2="70.08" xlink:href="#linear-gradient"/><linearGradient id="linear-gradient-27" x1="50.31" y1="76.49" x2="61.63" y2="76.49" xlink:href="#linear-gradient"/><linearGradient id="linear-gradient-28" x1="48.14" y1="61.67" x2="59.58" y2="61.67" xlink:href="#linear-gradient"/><linearGradient id="linear-gradient-29" x1="50.72" y1="68.38" x2="57.64" y2="68.38" xlink:href="#linear-gradient"/><linearGradient id="linear-gradient-30" x1="84.65" y1="60.52" x2="88.52" y2="60.52" xlink:href="#linear-gradient"/><linearGradient id="linear-gradient-31" x1="172.89" y1="71.71" x2="192.19" y2="71.71" xlink:href="#linear-gradient"/></defs><title>工作區域 1</title><path class="cls-1" d="M133.48,23.21a6.43,6.43,0,0,0-10.39-3.68,6.9,6.9,0,0,0-1.76,6.81l.24.77a9.68,9.68,0,0,1,.45,1.74,12.12,12.12,0,0,1,.14,1.37,5.37,5.37,0,0,1,0,.7.34.34,0,0,1,0,.09c0,.28-.06.47,0,.56a.21.21,0,0,0,.11.05h0l.61.09,2.29.33,1.58.19.59.09c.25,0,.52.09.78.11a.46.46,0,0,0,.16,0l.1,0h0a1.88,1.88,0,0,0,.46-.71,2.17,2.17,0,0,1,.12-.23,9.59,9.59,0,0,1,.69-1,7.79,7.79,0,0,1,1-1l.5-.47a8.13,8.13,0,0,0,1.3-1.61A6.29,6.29,0,0,0,133.48,23.21Z"/><path class="cls-2" d="M127.59,34.66s0-.45.58-.7c.16,0,.33-1-.2-1l-5.77-1s-.77.2-.58.71a1.53,1.53,0,0,1,.13,1.16C123.24,34.11,127.59,34.66,127.59,34.66Z"/><path class="cls-3" d="M127.77,35.05l-5.83-.63c-.74.24-.58.94-.42,1a5,5,0,0,1,1.6,1.73,1.46,1.46,0,0,0,2.09.54A23.83,23.83,0,0,1,127.88,36C128.46,35.67,127.77,35.05,127.77,35.05Z"/><path class="cls-4" d="M131.56,30.87a.41.41,0,1,0-.69.45l2.58,4a.37.37,0,0,0,.25.18.4.4,0,0,0,.32,0,.42.42,0,0,0,.13-.57Z"/><path class="cls-5" d="M139.58,26.93l-5-1.23a.42.42,0,0,0-.5.3.41.41,0,0,0,.3.5l5,1.23a.41.41,0,1,0,.2-.8Z"/><path class="cls-6" d="M133.77,20.72a.43.43,0,0,0,.33,0l4.05-2.58a.43.43,0,0,0,.12-.58.42.42,0,0,0-.57-.12l-4,2.58a.42.42,0,0,0-.13.57A.37.37,0,0,0,133.77,20.72Z"/><path class="cls-7" d="M120.4,28.12l-4.17,2.38a.41.41,0,0,0-.16.56.42.42,0,0,0,.26.2.48.48,0,0,0,.31,0l4.17-2.39a.41.41,0,0,0-.41-.71Z"/><path class="cls-8" d="M120.42,22.63a.41.41,0,0,0-.3-.5l-5-1.23a.42.42,0,0,0-.5.3.4.4,0,0,0,.3.5l5,1.23A.4.4,0,0,0,120.42,22.63Z"/><path class="cls-9" d="M122.9,17.9a.37.37,0,0,0,.26.2.35.35,0,0,0,.3,0,.41.41,0,0,0,.16-.56l-3-5.43a.41.41,0,0,0-.72.4Z"/><path class="cls-10" d="M128.86,17.12h0a.41.41,0,0,0,.5-.31l1.2-5.24a.41.41,0,1,0-.8-.19l-1.21,5.25A.4.4,0,0,0,128.86,17.12Z"/><path class="cls-11" d="M63.72,30.9a10.9,10.9,0,0,1-1.81,0,4.49,4.49,0,0,1-1.49-.6c-.23-.15-.5-.64-.42-.78a3,3,0,0,1,.88-.71c.07-.05.22,0,.29,0a4.14,4.14,0,0,0,.46-.37c-.15-.14-.29-.35-.47-.4-.71-.21-1.46-.31-2.16-.57a1.19,1.19,0,0,1-.65-.77c0-.18.39-.55.67-.63s.8.07,1.18,0,1.17-.1,1.26-.35a3.27,3.27,0,0,0,0-1.67c0-.13-.46-.26-.71-.27-.83,0-1.66,0-2.49,0a1.19,1.19,0,0,1-1.3-1c-.21-.93-.33-1.88-.52-2.81a20,20,0,0,0-.6-2.54c-.29-.87-.08-1.24.85-1.2a.88.88,0,0,1,.29,0c1.46.75,2.69,0,3.95-.58a1.2,1.2,0,0,1,1,.06,3.54,3.54,0,0,0,2,.49,8.73,8.73,0,0,1,2.34.37,2.13,2.13,0,0,1,1.52,2.69,7.93,7.93,0,0,0-.18,1.27,6.79,6.79,0,0,0,.28,1.12c.08.42.28.9.14,1.25s-.64.4-1,.45c-.94.13-1.9.18-2.85.25-.48,0-.65.31-.6.76,0,.25,0,.51,0,.76,0,.95.34,1.26,1.23.85a1.49,1.49,0,0,1,1.86.5c.4.39.33.82-.15,1A9.23,9.23,0,0,1,65,28c-.21.05-.48-.05-.67,0a3,3,0,0,0-.64.49,2.66,2.66,0,0,0,.68.43c.65.14,1.34.16,2,.33.3.09.54.43.8.65-.33.3-.62.81-1,.87a13.71,13.71,0,0,1-2.4,0ZM60.85,20.4l.31-.09a7.22,7.22,0,0,0-.66-2c-.14-.19-1,.11-1.58.23-.14,0-.24.26-.36.39.17.07.35.22.5.19.87-.17,1.31.28,1.59,1A1.68,1.68,0,0,0,60.85,20.4Zm2.26-.48h.23a8.87,8.87,0,0,0,.32-1.33c0-.17-.25-.37-.39-.55-.16.17-.47.35-.46.51A8.52,8.52,0,0,0,63.11,19.92Zm2.38.06-.3-.11c-.12.46-.23.93-.35,1.39.2,0,.46.2.58.12C66.08,21,65.51,20.46,65.49,20Z"/><path class="cls-12" d="M11.37,30.51c-.82.56-1.47,1-2.13,1.44a1,1,0,0,1-.61.24,1.2,1.2,0,0,1-.79-.39A.82.82,0,0,1,8.05,31a14.25,14.25,0,0,0,3.38-4.48c.59-1.06.55-1.24-.48-1.84-.46-.27-.95-.57-.68-1.16s.83-.56,1.38-.38,1.14.21,1.37-.64a1.18,1.18,0,0,1,.94-.64,1.44,1.44,0,0,1,1,.82c.12.65.39.71.91.6.68-.14,1.37-.22,2.05-.37s1-.06,1.2.48a.87.87,0,0,1-.62,1.19c-1.17.36-2.36.66-3.55.9-.6.12-.81.51-1,1a12.32,12.32,0,0,1-1.06,1.87c-.3.41-.27.62.15.89a2.37,2.37,0,0,0,2.5.09c.17-.09.2-.48.3-.73a3.55,3.55,0,0,1,.59-1.27,1.28,1.28,0,0,1,1.2-.16A1.26,1.26,0,0,1,18,28.24c-.09.63.26.65.67.74a24,24,0,0,1,3.06.76,2.32,2.32,0,0,1,1.13,1.12,4.64,4.64,0,0,1-.24,3.65,1.27,1.27,0,0,1-1.59.71,1.53,1.53,0,0,1-.29-.07l-1-.45a8.08,8.08,0,0,1,.59-1c.4-.48.59-1.68.09-2.07a3.11,3.11,0,0,0-1.59-.34c-.1,0-.33.35-.33.53,0,1.9.11,3.8.18,5.7,0,.73,0,1.46.07,2.19A1.2,1.2,0,0,1,18,40.94a.83.83,0,0,1-1.32-.75c-.07-2.08-.09-4.17-.16-6.25a9.78,9.78,0,0,0-.25-1.86c0-.23-.28-.57-.48-.61a10.25,10.25,0,0,0-2-.14c-.09,0-.26.37-.26.58,0,1,0,2.06,0,3.09,0,.75-.47,1.37-1,1.35s-1.18-.87-1.15-1.63C11.41,33.38,11.37,32,11.37,30.51Z"/><path class="cls-13" d="M74.09,27.49c-.16-1.5-.3-2.94-.47-4.36a.82.82,0,0,1,.95-.94A1.63,1.63,0,0,1,76,23.51a.82.82,0,0,0,.92.77c.65,0,1.31,0,2,0a.91.91,0,0,1,1,.9c0,.62-.43.9-1,.93-.79,0-1.59,0-2.38,0-.12,0-.34,0-.34.07a5.05,5.05,0,0,0-.14,1.39c0,.16.41.34.67.41.67.2,1.37.29,2,.52s1.21,1.67,1,2.57a1,1,0,0,0,.37,1.11c.56.48.4,1.08-.29,1.39A6.28,6.28,0,0,1,77,34.2a21.44,21.44,0,0,0-2.77.16c-1.07.09-1.56-.42-1.61-1.49-.07-1.52-.27-3-.35-4.56a1.54,1.54,0,0,1,.38-1.11c.17-.16.67,0,1,.06A1.33,1.33,0,0,1,74.09,27.49Zm.76,2.73c-.62,1.46.23,2,1.3,2a4.69,4.69,0,0,0,.53,0c.56,0,.9-.28.89-.87s-.24-.94-.88-1S75.51,30.29,74.85,30.22Z"/><path class="cls-14" d="M45.23,24.38A7.12,7.12,0,0,1,44,23.87a.8.8,0,0,1-.28-.7c0-.19.36-.38.59-.46.43-.14.89-.17,1.33-.29a2.09,2.09,0,0,0,.75-.31,1.76,1.76,0,0,0,.32-.61,2.29,2.29,0,0,0-.62-.1c-.29.05-.58.18-.87.26a5.47,5.47,0,0,1-.58.15c-.67.11-1.53-.29-1.36-.56a2.79,2.79,0,0,1,1.14-.76,4.78,4.78,0,0,1,1-.28,1.83,1.83,0,0,1,.86-.08c.45.15.75.12.81-.4s.23-1.08-.54-1.17a5.62,5.62,0,0,0-1.58-.07A1.63,1.63,0,0,0,44,19c-.69.78-1.3,1.65-2,2.45a.85.85,0,0,1-1.22.16c-.44-.32-.49-.66-.17-1.16.63-1,1.17-2.09,1.75-3.15.16-.28.32-.56.46-.86a9.74,9.74,0,0,0,.58-1.43c.21-.86.65-1.33,1.43-1.23a1.52,1.52,0,0,1,1,.55c.13.19-.08.62-.16.93a3.3,3.3,0,0,1-.27.53c-.31.54-.15.8.46.82l1.81.07A1.87,1.87,0,0,1,49.35,19c-.42,2.48-.8,5-1.21,7.44a11.48,11.48,0,0,1-.38,1.76c-.18.54-.58.94-1.22.69A1,1,0,0,1,46,27.56a18.09,18.09,0,0,0,.33-2.31C46.36,24.2,46.33,24.2,45.23,24.38Z"/><path class="cls-15" d="M42.08,40.52c-1.42-.25-2.84-.5-4.26-.77-.54-.1-1.32-1.06-1.06-1.33a2.37,2.37,0,0,1,1.36-.69,3.9,3.9,0,0,1,1.47.3c.58.18.78-.06.81-.61.06-1.06-.15-1.24-1.21-1.45a3.61,3.61,0,0,1-1.43-.76.9.9,0,0,1-.16-.82c0-.16.43-.23.68-.31s.26,0,.37,0c.38-.11,1-.18,1.06-.38.13-.54.26-1.21-.42-1.61a3.76,3.76,0,0,1-.82-.67c-.48-.52-.35-1.15.31-1.16a40.92,40.92,0,0,1,4.95.24,1.25,1.25,0,0,1,.76,1c0,.3-.49.67-.84.88a2.44,2.44,0,0,1-1,.11c-.41,0-.88.06-.81.64s.18,1,.87,1h1.51c.49,0,.77.21.78.72s-.27.72-.75.74h-.38c-1.62,0-1.95.45-1.43,2a1,1,0,0,0,.62.57,10.78,10.78,0,0,0,1.7.29c.57.07,1.14.3,1.1.89,0,.32-.59.62-.93.91a.52.52,0,0,1-.29.06H42.12A2.7,2.7,0,0,0,42.08,40.52Z"/><path class="cls-16" d="M91.57,29.4c0,.16,0,.43-.07.69-.19,1.14-.34,2.28-.62,3.4a1.15,1.15,0,0,1-.87.71c-.27,0-.68-.49-.75-.82a7.43,7.43,0,0,1,0-3.51,6.33,6.33,0,0,0,.1-2.09c0-.62,0-1.17.59-1.49a1.65,1.65,0,0,1,1.77.51,1.51,1.51,0,0,0,1.48.69l7.92,0a3.19,3.19,0,0,1,2.42,1.77,2.85,2.85,0,0,1-1.07,2.8c-.52.34-1.15,0-1.33-.75a8.91,8.91,0,0,1-.09-1.05c-.1-.78-.45-1.14-1.24-1.11-1.68.06-3.35.2-5,.26C93.72,29.43,92.7,29.4,91.57,29.4Z"/><path class="cls-17" d="M100.33,12.92H102c.8,0,1.73.76,1.71,1.32s-.94.79-1.79.74c-1.26-.07-2.51-.14-3.76-.15a9.42,9.42,0,0,0-1.48.21,2.93,2.93,0,0,1-.66,0,13.87,13.87,0,0,0-2.37-.23,20.18,20.18,0,0,1-5.15-.63c-.37-.07-.77-.59-1-1s.83-1,1.38-.93c1.32.14,2.64.32,4,.49l.22.05c1.59.3,1.78.14,1.81-1.43A7.59,7.59,0,0,1,95,10.06c.06-.33.21-.79.44-.89.49-.21,1.13-.22,1.38.38a5.14,5.14,0,0,1,.35,1.74c.05,1.26.35,1.61,1.61,1.64.53,0,1.06,0,1.59,0Z"/><path class="cls-18" d="M91.83,21.38c.09-1.39.17-2.78.26-4.17a1,1,0,0,1,1.33-.7c1.06.68,2.3.61,3.42,1,2.23.81,2.5,3.8,1.08,5.52a.54.54,0,0,1-.31.2c-.77.17-1.55.33-2.34.47a16.25,16.25,0,0,0-1.7.27,1.42,1.42,0,0,1-1.48-.5,1,1,0,0,1-.24-1.28A3,3,0,0,0,92,21.4Zm3.39,0c1.11,0,1.62-.64,1.06-1.47a5.71,5.71,0,0,0-1.64-1.22.78.78,0,0,0-.37.39c0,.42,0,.85,0,1.27C94.17,21.35,94.17,21.36,95.22,21.35Z"/><path class="cls-19" d="M19.1,18.91c-1.34-.52-2.57-.95-3.75-1.48a1.28,1.28,0,0,0-1.44,0,2,2,0,0,1-1.91.41c-.76-.32-.82-.74-.21-1.28.8-.7.79-.7,0-1.39a6.93,6.93,0,0,1-1.14-1.09c-.2-.28-.41-.82-.27-1a.94.94,0,0,1,1.33-.26l1.56.91c.94.55,1.41.37,1.77-.68.14-.43.23-.88.4-1.29.3-.7,1-.85,1.78-.43.6.34.67.77.28,1.46a18.45,18.45,0,0,0-1.09,2.06.82.82,0,0,0,.22.77,28.5,28.5,0,0,0,2.8,1.45c.48.21,1,.47.79,1C20.07,18.41,19.5,18.61,19.1,18.91Z"/><path class="cls-20" d="M29.31,22.16a1.15,1.15,0,0,0-.84-1.61,2.84,2.84,0,0,1-.76-.47c-.17-.15-.4-.46-.34-.57A1,1,0,0,1,28,19c.39-.07.81,0,1.21,0,.72-.06.91-.41.64-1.07a2.83,2.83,0,0,1-.35-1,1.19,1.19,0,0,1,.39-.88.9.9,0,0,1,.85.11A7.58,7.58,0,0,1,32,17.87a1.26,1.26,0,0,0,1.16.77A5,5,0,0,1,34.7,19c.26.11.59.59.52.78a1.24,1.24,0,0,1-.8.66,21,21,0,0,1-2.23.3c-.63.07-.77.37-.62,1a13.38,13.38,0,0,1,.13,1.8c.07.76.41.9,1.06.58.28-.14.8-.27,1-.12.42.37.19.85-.14,1.19a2.49,2.49,0,0,1-2.49.94,2.38,2.38,0,0,1-1.48-1.87A14.69,14.69,0,0,1,29.31,22.16Z"/><path class="cls-21" d="M63.26,32.7c1-.73,1-.73,2,.58,0,0,.12,0,.15,0,1-1,1.85-.72,2.28.64a12.33,12.33,0,0,0,.79,1.69c.11.22.33.46.3.67a1.42,1.42,0,0,1-.37.9.89.89,0,0,1-.86-.1A25.94,25.94,0,0,1,66,34.91a7.23,7.23,0,0,1-.46-.87l-.22.07c0,.28,0,.56,0,.84,0,.7,0,1.4,0,2.1,0,.48-.18.86-.73.87s-.8-.36-.86-.86c-.09-.75-.17-1.5-.27-2.25a6.62,6.62,0,0,0-.28-.84,3.52,3.52,0,0,0-.16.64,25.48,25.48,0,0,1-.1,2.63c0,.38-.41.72-.63,1.07a3.79,3.79,0,0,1-.91-.76,2.43,2.43,0,0,1-.26-1.09c-.11-1-.25-2-.26-3.06,0-.59.13-1.33.91-1.35C62.18,32,62.63,32.42,63.26,32.7Z"/><path class="cls-22" d="M95.94,33.86c.16-.83.23-1.46.39-2.06a.7.7,0,0,1,1.31-.24,2.52,2.52,0,0,1,.43,1.16c.11.9.15,1.8.21,2.7a5.44,5.44,0,0,0,1.58,3.26c.37.42.79.58,1.25.23a18.31,18.31,0,0,0,1.63-1.41c.36-.35.66-.66,1.15-.27a.83.83,0,0,1,.2,1.3,12.2,12.2,0,0,1-1.27,1.58c-1.06,1-2.35.66-3.49.28a4,4,0,0,1-2.61-2.74C96.36,36.35,96.17,35,95.94,33.86Z"/><path class="cls-23" d="M93.05,35.7a24.29,24.29,0,0,1,0-2.56,2,2,0,0,1,1.16-1.89c.88-.36,1.45.11,1.3,1s-.34,1.83-.46,2.75c-.15,1.07-.23,2.15-.34,3.22,0,.15,0,.34-.06.44-.24.28-.52.53-.79.79-.23-.26-.62-.5-.66-.79-.15-1-.17-2-.24-3Z"/><path class="cls-24" d="M60.47,33.79c-.08.74-.14,1.49-.26,2.23a1,1,0,0,1-1.1.94.87.87,0,0,1-.94-.87,7.25,7.25,0,0,1,0-1,12.7,12.7,0,0,0,0-1.85,1.2,1.2,0,0,1,.84-1.44,1.12,1.12,0,0,1,1.3,1,9.11,9.11,0,0,1,.06,1.05Z"/><path class="cls-25" d="M80.89,72c.18-.38.31-.61.4-.86.33-.89.62-1.8,1-2.67.27-.67.87-.52,1.37-.37a.91.91,0,0,1,.65,1.3c-.77,1.4-1.09,3-2.17,4.27s-.74,2.76-.46,4.18a15.36,15.36,0,0,0,.85,2.41c.18.46.43.26.7.06.67-.49,1-.34,1.11.5.17,1.47-.5,2.33-1.76,2.32A1.39,1.39,0,0,1,81.18,82c-.52-1.54-1-3.1-1.51-4.65a1.55,1.55,0,0,0-.17-.25c-.16.12-.3.24-.46.34-1,.7-2,1.46-3.12,2.06a2.47,2.47,0,0,1-1.43,0c-.16,0-.37-.39-.36-.59s.24-.43.43-.51a11,11,0,0,0,3.94-3.1A2.51,2.51,0,0,0,79,73c-.46-2.4-.79-4.82-1.12-7.23-.17-1.21-.24-1.35-1.46-1.44s-2.2-.1-3.3-.16c-.53,0-.79.15-.72.75a2,2,0,0,1-.21.94c-.21.47,0,.64.42.7.72.1,1.45.18,2.16.32a1.71,1.71,0,0,1,1.44,1.7A12.73,12.73,0,0,1,76,70.56c-.16.88-.38,1.76-.51,2.65s-.25,1.79-1.18,2.2a2.91,2.91,0,0,1-2.86-.92A2.63,2.63,0,0,1,71.09,73c0-.43.6-.5,1.11-.17.74.49.92.45,1.1-.4a22.86,22.86,0,0,0,.41-2.84,1.06,1.06,0,0,0-.4-.69,2.63,2.63,0,0,0-.76-.34c-.91-.31-1-.21-1.5.63-.89,1.64-1.45,3.48-2.92,4.79-.62.56-1,1.4-1.61,2a3,3,0,0,1-2.79,1,1.45,1.45,0,0,1-.86-.51c-.28-.45.08-.63.49-.79a4.48,4.48,0,0,0,1.43-.72,17.85,17.85,0,0,0,4.9-7.66,30.07,30.07,0,0,0,.85-3.52c0-.16-.33-.48-.57-.58-.75-.32-1-.73-.7-1.29a.76.76,0,0,1,1.13-.37c.16.08.37.26.46.21,1.34-.65,2.44.53,3.7.48.7,0,1.4,0,2.11.07.53,0,.73-.21.56-.75a7,7,0,0,0-1.15-2.84c-.4-.45-.19-.89.39-1.1a1.74,1.74,0,0,1,2.11,1.12,24.92,24.92,0,0,1,.62,2.55,1.46,1.46,0,0,0,2.24.88,1.09,1.09,0,0,1,1.38.09c.28.28.65.79.57,1.06a1.66,1.66,0,0,1-1,.85,12.62,12.62,0,0,1-1.86.26.72.72,0,0,0-.67.85q.34,3.15.74,6.29C80.62,71.62,80.71,71.69,80.89,72Z"/><path class="cls-26" d="M29.57,73.68c0-1.23,0-2.46,0-3.7a1.49,1.49,0,0,0-.74-1.38c-.64-.38-.62-.73-.17-1.38a14.29,14.29,0,0,1,.8-1.31,1.56,1.56,0,0,1,1-.54c.34,0,.95.25,1,.47.17.9.71.67,1.25.55,1-.24,1-.31.6-1.24a1.56,1.56,0,0,1-.06-.93c.2-.77-.09-1.13-.89-1.09-1.31,0-2.62.09-3.93.09a1.75,1.75,0,0,1-1.72-1.4.9.9,0,0,1,.16-.67c.11-.11.43-.09.62,0a6.8,6.8,0,0,0,3.47,0,15.34,15.34,0,0,1,3.59-.17,1.31,1.31,0,0,1,1.16,1.44,15.29,15.29,0,0,1-.41,2.42c-.09.38-.11.59.27.8.89.46,1,1.12.09,1.59a15.4,15.4,0,0,1-3.22,1.2c-.52.15-.7.28-.69.82,0,2.39,0,4.78,0,7.17,0,.91.22,1.1,1.11,1.08A7,7,0,0,0,37,75.85a.76.76,0,0,0,.17-1.22c-.4-.54-.74-1.14-1.1-1.71a.61.61,0,0,1,.2-1,1.08,1.08,0,0,1,.93,0,20.6,20.6,0,0,1,1.66,1.83c.34.4.6.88,1,1.26a.89.89,0,0,1-.13,1.52c-2,1.41-3.94,2.94-6.61,2.69-.45,0-.91,0-1.36,0a1.8,1.8,0,0,1-2-1.85c-.05-.62,0-1.26,0-1.88V73.68Z"/><path class="cls-27" d="M54.62,78.23c-.5,1-.94,1.79-1.39,2.62A1.27,1.27,0,0,1,52,81.7c-.66,0-.84-.29-.62-.92.59-1.68,1.19-3.36,1.77-5,.27-.76.17-.9-.63-1.07a10.93,10.93,0,0,1-1.79-.46c-.22-.1-.49-.59-.41-.76s.51-.49.79-.71c0,0,.09,0,.14,0,2.14.23,4-.68,6-1.26a3.61,3.61,0,0,1,1.49-.14,1.59,1.59,0,0,1,.91.66c.06.08-.28.62-.54.74-.8.4-1.64.72-2.48,1s-1.21.58-.85,1.56a19,19,0,0,0,1.74,3.57,1.56,1.56,0,0,0,2.64-.23c.11-.17.16-.41.31-.51s.52-.3.72-.23a.89.89,0,0,1,.43.62,2.68,2.68,0,0,1-2.48,2.65,3.79,3.79,0,0,1-4-2.3A5,5,0,0,0,54.62,78.23Z"/><path class="cls-28" d="M50.38,65.3c-.06.37-.11.74-.19,1.11a.79.79,0,0,1-.95.65.76.76,0,0,1-.75-.86c0-1.18-.07-2.37-.13-3.55a3.91,3.91,0,0,0-.14-1c-.24-.85.07-1.29,1-1.27.75,0,1.5,0,2.26,0s1-.25.83-.92a12.23,12.23,0,0,0-.48-1.8c-.26-.69-.14-1.08.55-1.37A1.08,1.08,0,0,1,53.9,57a17.55,17.55,0,0,1,.31,2.16c0,.57.28.82.85.8s1.16,0,1.74,0c2.06,0,2.92,1.14,2.77,3,0,.2-.06.4-.07.6,0,.62-.24,1.11-1,1.12s-1-.5-1.16-1.09a4.44,4.44,0,0,0-.26-1,1.7,1.7,0,0,0-2-.69,26.88,26.88,0,0,1-3.69.53c-.65.05-.91.26-1,.86l-.12,2Z"/><path class="cls-29" d="M53.11,67.81l2.59-.63a5.18,5.18,0,0,1,.66-.14c.54,0,1.13-.07,1.26.63s-.39,1-.88,1.15a20.09,20.09,0,0,1-3.63.91A5,5,0,0,1,51,69.17c-.16-.06-.34-.57-.25-.68a2.3,2.3,0,0,1,1-.81,4.33,4.33,0,0,1,1.35,0A.94.94,0,0,0,53.11,67.81Z"/><path class="cls-30" d="M87.49,62.4a3.34,3.34,0,0,1-.94-.45,17.06,17.06,0,0,1-1.72-1.89,1,1,0,0,1-.11-.9.9.9,0,0,1,1.23-.4,5.5,5.5,0,0,1,2.51,3C88.73,62.44,88,62.25,87.49,62.4Z"/><path class="cls-31" d="M191.61,63.94,174.79,80.81a1.55,1.55,0,0,1-.94.56.86.86,0,0,1-1-1c0-.18.17-.47.58-.88l16.82-16.87a1.54,1.54,0,0,1,.94-.56.85.85,0,0,1,1,1C192.19,63.26,192,63.56,191.61,63.94Zm-11.55,6.65a3.24,3.24,0,0,1-3,1.7c-2.58,0-3.87-1.7-3.87-5.13s1.29-5.1,3.87-5.1a3.3,3.3,0,0,1,3,1.7,7,7,0,0,1,.76,3.4A7.24,7.24,0,0,1,180.06,70.59Zm-3-6.65c-1.23,0-1.82,1.08-1.82,3.22s.59,3.22,1.82,3.22,1.7-1,1.7-3.22S178.13,63.94,177,63.94Zm14.18,15.7a3.19,3.19,0,0,1-3,1.73c-2.58,0-3.87-1.7-3.87-5.13s1.29-5.1,3.87-5.1a3.3,3.3,0,0,1,3,1.7,7,7,0,0,1,.76,3.4A6.79,6.79,0,0,1,191.2,79.64Zm-3-6.62c-1.23,0-1.82,1.08-1.82,3.22s.59,3.22,1.82,3.22,1.7-1,1.7-3.22S189.29,73,188.18,73Z"/></svg>